<svg width="1128.33" height="786.75" xmlns="http://www.w3.org/2000/svg" data-name="Layer 1">
 <defs>
  <linearGradient y2="-0.00004" x2="0.50029" y1="0.99998" x1="0.50029" id="be48829d-c862-4d39-810b-ff1fea1d92ea">
   <stop stop-opacity="0.25" stop-color="gray" offset="0"/>
   <stop stop-opacity="0.12" stop-color="gray" offset="0.54"/>
   <stop stop-opacity="0.1" stop-color="gray" offset="1"/>
  </linearGradient>
 </defs>
 <title>booking</title>
 <g>
  <title>Layer 1</title>
  <path id="svg_1" opacity="0.1" fill="#0ccc88" d="m655.7,124.47c-72.31,-2.51 -141.18,-25.86 -206.95,-51.4s-130.91,-53.84 -201.5,-67.37c-45.39,-8.71 -97.31,-9.94 -133.89,14.4c-35.2,23.42 -46.57,63.85 -52.69,101.37c-4.6,28.23 -7.3,57.93 5.3,84.36c8.75,18.34 24.29,33.76 35,51.33c37.39,61.15 11,136.54 -29.56,196.25c-19,28 -41.06,54.72 -55.72,84.53s-21.42,63.97 -8.53,94.43c12.72,30.14 43,52.78 75.87,68.71c66.64,32.29 145.23,41.55 221.86,46.79c169.64,11.6 340.19,6.58 510.28,1.55c62.94,-1.87 126.17,-3.75 188.09,-13.49c34.39,-5.4 69.89,-14 94.86,-34.69c31.69,-26.29 39.55,-70.81 18.31,-103.78c-35.62,-55.3 -134.11,-69 -159,-128.38c-13.71,-32.66 0.37,-69.05 20.29,-99.34c42.72,-65 114.33,-122 118.1,-196.29c2.6,-51 -31.83,-102.12 -85.06,-126.26c-55.8,-25.3 -133.16,-22.12 -174.33,19.77c-42.39,43.13 -116.88,59.72 -180.73,57.51z"/>
  <path id="svg_2" fill="#0ccc88" d="m902.64,681.91a30.82,30.82 0 0 0 -12.59,-1.34c-5.17,0.56 -4.44,8.43 0.75,8.06a37.18,37.18 0 0 0 7.66,-1.41l4.18,-5.31z"/>
  <path id="svg_3" fill="#0ccc88" d="m904.21,681.98a30.77,30.77 0 0 1 3.08,12.29c0.17,5.2 -7.73,5.57 -8.09,0.38a37.63,37.63 0 0 1 0.34,-7.78l4.67,-4.89z"/>
  <path id="svg_4" fill="#0ccc88" d="m915.97,665.14s-2.53,-7.94 -18,-4.86c-7,1.39 -6.81,11.43 0.2,12.49l0.3,0c10.21,1.42 13.76,-2.63 17.5,-7.63z"/>
  <path id="svg_5" fill="#0ccc88" d="m917.58,664.67s8.31,0.65 8.83,16.4c0.24,7.09 -9.57,9.24 -12.2,2.66c0,-0.1 -0.07,-0.19 -0.11,-0.29c-3.67,-9.61 -0.54,-13.99 3.48,-18.77z"/>
  <path id="svg_6" fill="#0ccc88" d="m928.68,644.37a16.53,16.53 0 0 0 -11.16,-12.46c-10.47,-3.3 -16,12.36 -5.77,16.34a32.68,32.68 0 0 0 13.24,1.92l3.69,-5.8z"/>
  <path id="svg_7" fill="#0ccc88" d="m941.45,618.22s-4.23,-10 -15.2,-12c-11.63,-2.13 -15.15,15.34 -3.66,18.13a38.35,38.35 0 0 0 15.66,0.13l3.2,-6.26z"/>
  <path id="svg_8" fill="#0ccc88" d="m949.16,592.47a24.82,24.82 0 0 0 -16,-11c-10,-1.88 -13.37,13.09 -3.55,15.65a37.34,37.34 0 0 0 18.74,-0.26l0.81,-4.39z"/>
  <path id="svg_9" fill="#0ccc88" d="m956.43,567.37a25.81,25.81 0 0 0 -14,-11.13c-10,-3.07 -14.94,12.09 -5,15.39a28.47,28.47 0 0 0 18.14,-0.07l0.86,-4.19z"/>
  <path id="svg_10" fill="#0ccc88" d="m959.49,544.5s-4,-9.38 -12.15,-14.34c-9.08,-5.53 -17.73,8 -9,14.09c5.38,3.77 12.27,6.37 20.32,4.63l0.83,-4.38z"/>
  <path id="svg_11" fill="#0ccc88" d="m961,517.37s-4.41,-9.47 -12.87,-14c-9.46,-5 -17.69,8.82 -8.78,14.78c5.83,3.89 13.11,6.41 20.84,3.37l0.81,-4.15z"/>
  <path id="svg_12" fill="#0ccc88" d="m960.06,492.63a61.35,61.35 0 0 0 -12,-13.65c-6.62,-5.41 -15,4.33 -8.73,10.11c5.79,5.31 13,9.77 20.45,9.41l0.28,-5.87z"/>
  <path id="svg_13" fill="#0ccc88" d="m957.55,468.89a89.9,89.9 0 0 0 -13.56,-17.52c-5.18,-5 -12.84,2.62 -8,7.89c5.59,6 13.13,12.22 22.19,14.94l-0.63,-5.31z"/>
  <path id="svg_14" fill="#0ccc88" d="m952.7,440.97a80.15,80.15 0 0 0 -10.83,-13.41c-5.22,-5.11 -13.09,2.58 -8.08,7.89c5.32,5.65 12.2,10.94 20.27,12.74l-1.36,-7.22z"/>
  <path id="svg_15" fill="#0ccc88" d="m948.46,414.92a127.83,127.83 0 0 0 -10.41,-12.37c-4.18,-4.31 -10.86,1.75 -6.92,6.29c4.63,5.34 10.57,10.07 17.4,10.83l-0.07,-4.75z"/>
  <path id="svg_16" fill="#0ccc88" d="m944.06,390.76a130.3,130.3 0 0 0 -10,-16.45c-3.13,-4.28 -9.65,0.3 -6.7,4.7c3.86,5.77 9.22,11.48 16.26,14.23l0.44,-2.48z"/>
  <path id="svg_17" fill="#0ccc88" d="m940.43,358.65s-2.47,-4.19 -6,-9.06c-3.26,-4.49 -10.14,0.15 -7.12,4.8c3.4,5.21 7.66,9.65 12.62,10.53l0.5,-6.27z"/>
  <path id="svg_18" fill="#0ccc88" d="m938.7,337.37l-3.13,-15.65c-0.83,-4.14 -7,-3.15 -6.5,1c1.12,8.36 4,16.77 10.27,22.29l-0.64,-7.64z"/>
  <path id="svg_19" fill="#0ccc88" d="m940.56,292.89l0,0a3.07,3.07 0 0 0 -5.86,1.68a79.23,79.23 0 0 0 3.16,12.8l2.7,-14.48z"/>
  <path id="svg_20" fill="#0ccc88" d="m929.38,644.06a16.53,16.53 0 0 1 16.36,3.52c8,7.47 -2.82,20 -11.35,13.11a32.86,32.86 0 0 1 -8.23,-10.55l3.22,-6.08z"/>
  <path id="svg_21" fill="#0ccc88" d="m942.16,617.27s10.52,-2.54 18.66,5.08c8.63,8.08 -3.3,21.31 -12.39,13.74a38.29,38.29 0 0 1 -9.43,-12.51l3.16,-6.31z"/>
  <path id="svg_22" fill="#0ccc88" d="m949.85,594.23a24.83,24.83 0 0 1 19,-4.22c10,2 7.51,17.13 -2.56,15.84a37.41,37.41 0 0 1 -17.28,-7.25l0.84,-4.37z"/>
  <path id="svg_23" fill="#0ccc88" d="m956.93,567.51a25.78,25.78 0 0 1 17.12,-5.11c10.46,0.91 9.34,16.8 -1.13,16.14a28.41,28.41 0 0 1 -16.8,-6.85l0.81,-4.18z"/>
  <path id="svg_24" fill="#0ccc88" d="m959.36,545.15s5.55,-8.56 14.41,-12.06c9.83,-3.89 16.14,10.84 6.59,15.37c-6,2.83 -13.23,4.26 -20.91,1.15l-0.09,-4.46z"/>
  <path id="svg_25" fill="#0ccc88" d="m959.71,516.96s5.61,-8.8 14.58,-12.16c10,-3.75 16.39,11.05 6.78,15.8c-6.29,3.1 -13.84,4.64 -21.1,0.62l-0.26,-4.26z"/>
  <path id="svg_26" fill="#0ccc88" d="m957.83,492.37a61.32,61.32 0 0 1 8.8,-15.9c5.3,-6.71 15.61,1 10.69,8c-4.52,6.43 -10.56,12.32 -18,13.57l-1.49,-5.67z"/>
  <path id="svg_27" fill="#0ccc88" d="m957.06,468.85a89.53,89.53 0 0 1 8.12,-20.66c3.59,-6.22 13.06,-1.07 9.84,5.35c-3.68,7.35 -9.2,15.4 -17.14,20.55l-0.82,-5.24z"/>
  <path id="svg_28" fill="#0ccc88" d="m951.26,439.67a80.22,80.22 0 0 1 8.26,-15.77c4.12,-6 13.25,-0.12 9.48,6.08c-4.1,6.76 -9.88,13.56 -17.63,17l-0.11,-7.31z"/>
  <path id="svg_29" fill="#0ccc88" d="m946.64,414.78a128.51,128.51 0 0 1 4.33,-15.57c2,-5.67 10.61,-2.93 8.91,2.84c-2,6.78 -5.43,13.55 -11.32,17.08l-1.92,-4.35z"/>
  <path id="svg_30" fill="#0ccc88" d="m943.43,390.29a129.85,129.85 0 0 1 6,-18.31c2.08,-4.88 9.48,-1.91 7.6,3.05c-2.44,6.5 -6.36,13.28 -12.58,17.56l-1.02,-2.3z"/>
  <path id="svg_31" fill="#0ccc88" d="m938.62,360.85s0.94,-4.77 2.65,-10.54c1.58,-5.32 9.62,-3.23 8.31,2.16c-1.46,6 -4,11.65 -8.4,14.13l-2.56,-5.75z"/>
  <path id="svg_32" fill="#0ccc88" d="m939.74,336.31l5.44,-15c1.44,-4 7.44,-2.06 6.27,2c-2.35,8.1 -6.43,16 -13.48,20.5l1.77,-7.5z"/>
  <path id="svg_33" fill="#0ccc88" d="m946.52,294.46s0.85,-0.68 2.15,-1.75c2.65,-2.2 6.11,1.64 3.61,4a51,51 0 0 1 -14.79,9.38l9.03,-11.63z"/>
  <path id="svg_34" fill="#0ccc88" d="m946.16,285.77a197,197 0 0 1 10.85,-19.32a2,2 0 0 0 -3.24,-2.29c-3.2,4.38 -6.34,10.79 -8.72,20.21l1.11,1.4z"/>
  <path id="svg_35" fill="#444053" d="m939.96,365.17l1.16,-0.12c-5,-46.61 -2.89,-75.35 5.85,-80.92l-0.63,-1c-9.26,5.93 -11.46,34.29 -6.38,82.04z"/>
  <path id="svg_36" fill="#444053" d="m957.16,475.37l1.73,-0.26c-0.65,-4.31 -1.4,-8.69 -2.24,-13c-7.28,-37.83 -12.94,-72.8 -15.77,-99.36l-1.27,-1c2.84,26.61 8,62.79 15.33,100.67c0.82,4.28 1.57,8.65 2.22,12.95z"/>
  <path id="svg_37" fill="#444053" d="m876.16,710.95c0.26,-0.21 26.9,-20.59 50.29,-59.68a252,252 0 0 0 29.6,-73.79c7.39,-32.51 7.6,-70.37 2.27,-105.83l-1.56,1.25c12,79.58 -10.89,141.37 -32.25,177.09c-23.16,38.73 -49.49,58.9 -49.76,59.1l1.41,1.86z"/>
  <ellipse id="svg_38" fill="#0ccc88" ry="12.8" rx="66.55" cy="697.97" cx="194.02"/>
  <ellipse id="svg_39" fill="#3f3d56" ry="10.14" rx="7.75" cy="692.53" cx="192.9"/>
  <ellipse id="svg_40" fill="#3f3d56" ry="10.14" rx="7.75" cy="680.13" cx="192.9"/>
  <ellipse id="svg_41" fill="#3f3d56" ry="10.14" rx="7.75" cy="667.74" cx="192.9"/>
  <ellipse id="svg_42" fill="#3f3d56" ry="10.14" rx="7.75" cy="655.34" cx="192.9"/>
  <ellipse id="svg_43" fill="#3f3d56" ry="10.14" rx="7.75" cy="642.94" cx="192.9"/>
  <ellipse id="svg_44" fill="#3f3d56" ry="10.14" rx="7.75" cy="630.55" cx="192.9"/>
  <ellipse id="svg_45" fill="#3f3d56" ry="10.14" rx="7.75" cy="618.15" cx="192.9"/>
  <path id="svg_46" fill="#0ccc88" d="m221.9,533.31a36.51,36.51 0 0 0 2.89,-4.25l-20.36,-3.34l22,0.16a37.14,37.14 0 0 0 0.71,-29.4l-29.54,15.32l27.24,-20a37.12,37.12 0 1 0 -61.3,41.53a37.49,37.49 0 0 0 -4.23,6.77l26.43,13.73l-28.16,-9.46a37.13,37.13 0 0 0 6,34.85a37.12,37.12 0 1 0 58.34,0a37.09,37.09 0 0 0 0,-45.89l-0.02,-0.02z"/>
  <path id="svg_47" opacity="0.1" d="m155.62,556.26a37,37 0 0 0 7.94,22.94a37.12,37.12 0 1 0 58.34,0c4.98,-6.31 -66.28,-27.11 -66.28,-22.94z"/>
  <path id="svg_48" fill="#fff" d="m231.97,261.24l0,441.71a15.42,15.42 0 0 0 15.42,15.42l633.87,0a15.42,15.42 0 0 0 15.42,-15.42l0,-441.71l-664.71,0z"/>
  <rect id="svg_49" opacity="0.1" rx="8.65" height="93.27" width="158.9" y="300.78" x="284.57"/>
  <rect id="svg_50" opacity="0.1" rx="8.65" height="93.27" width="158.9" y="300.78" x="484.88"/>
  <rect opacity="0.1" id="svg_51" fill="#444053" rx="8.65" height="90.64" width="154.43" y="302.09" x="286.8"/>
  <rect id="svg_52" transform="rotate(-180 1565.11 751.45)" opacity="0.1" fill="#444053" rx="8.65" height="90.64" width="154.43" y="1110.17001" x="2288.36999"/>
  <rect transform="rotate(-180 1764.65 1155.49)" id="svg_53" fill="#0ccc88" rx="8.65" height="90.64" width="154.43" y="1110.17001" x="1687.43999"/>
  <rect id="svg_54" opacity="0.1" fill="#444053" rx="8.65" height="90.64" width="154.43" y="433.02" x="286.8"/>
  <rect id="svg_55" transform="rotate(-180 1565.11 1013.31)" opacity="0.1" fill="#444053" rx="8.65" height="90.64" width="154.43" y="1502.96" x="2288.36999"/>
  <rect id="svg_56" transform="rotate(-180 1164.49 1013.31)" opacity="0.1" fill="#444053" rx="8.65" height="90.64" width="154.43" y="1502.96" x="1687.43999"/>
  <rect id="svg_57" opacity="0.1" fill="#444053" rx="8.65" height="90.64" width="154.43" y="563.95" x="286.8"/>
  <rect id="svg_58" transform="rotate(-180 1565.11 1275.17)" opacity="0.1" fill="#444053" rx="8.65" height="90.64" width="154.43" y="1895.74004" x="2288.36999"/>
  <rect id="svg_59" transform="rotate(-180 1164.49 1275.17)" opacity="0.1" fill="#444053" rx="8.65" height="90.64" width="154.43" y="1895.74004" x="1687.43999"/>
  <path id="svg_60" fill="#0ccc88" d="m231.97,183.23l0,80.25l664.71,0l0,-80.25a15.42,15.42 0 0 0 -15.42,-15.43l-633.87,0a15.42,15.42 0 0 0 -15.42,15.43zm164.5,23.74a12.31,12.31 0 1 1 12.31,-12.31a12.31,12.31 0 0 1 -12.31,12.31zm335.71,0a12.31,12.31 0 1 1 12.31,-12.31a12.31,12.31 0 0 1 -12.33,12.31l0.02,0z"/>
  <path id="svg_61" opacity="0.1" d="m396.47,180.11a14.55,14.55 0 1 0 14.54,14.55a14.54,14.54 0 0 0 -14.54,-14.55zm0,26.86a12.31,12.31 0 1 1 12.31,-12.31a12.31,12.31 0 0 1 -12.31,12.31z"/>
  <path id="svg_62" opacity="0.1" d="m732.16,180.11a14.55,14.55 0 1 0 14.55,14.55a14.55,14.55 0 0 0 -14.55,-14.55zm0,26.86a12.31,12.31 0 1 1 12.31,-12.31a12.31,12.31 0 0 1 -12.31,12.31z"/>
  <circle id="svg_63" opacity="0.1" fill="#0ccc88" r="15.27" cy="419.94" cx="1033.1"/>
  <circle id="svg_64" opacity="0.1" fill="#0ccc88" r="25.6" cy="351.84" cx="1087.73"/>
  <circle id="svg_65" opacity="0.1" fill="#0ccc88" r="25.6" cy="476.06" cx="1053.84"/>
  <circle id="svg_66" opacity="0.1" fill="#0ccc88" r="36.25" cy="345.56" cx="36.25"/>
  <path id="svg_67" fill="url(#be48829d-c862-4d39-810b-ff1fea1d92ea)" d="m925.65,740.37a32,32 0 0 0 -7.42,-4.17a1.53,1.53 0 0 0 -0.65,-0.17a114.16,114.16 0 0 1 -15.3,-13.18c1,-0.8 1.92,-1.58 2.9,-2.35c-6,-2.86 -9.33,-9.41 -12.57,-15.32a151.14,151.14 0 0 0 -33.34,-41.54c-0.33,-1.27 -2.26,-1 -3.29,-1.82a2.64,2.64 0 0 1 -0.73,-2.55c0.16,-0.92 0.58,-1.77 0.81,-2.67c0.55,-2.11 0.07,-4.33 -0.17,-6.5s-0.14,-4.59 1.3,-6.21c0.46,-0.53 1.05,-0.94 1.5,-1.48a5.64,5.64 0 0 0 1,-4.49a15.94,15.94 0 0 0 -1,-4.55q7.35,-20 14.69,-40.07c3.43,-9.34 6.89,-18.88 7.24,-28.84c0.28,-8 -1.78,-16.31 -6.62,-22.42c0.88,-0.21 1.76,-0.43 2.63,-0.68c-5.72,-7.58 -6.34,-17.62 -6.49,-27.17q-0.12,-7.14 -0.49,-14.29c1.66,0.73 3.34,1.38 5.06,1.94l1.6,0.49a55.15,55.15 0 0 0 7.93,1.7c1.18,0.17 2.38,0.3 3.57,0.38l0,0q-2.58,-6.46 -5.15,-12.94a17.68,17.68 0 0 1 -1.6,-6.07l0,0l0,-0.4c0,-0.24 0,-0.48 0.05,-0.72a7.9,7.9 0 0 1 0.39,-1.68a7.61,7.61 0 0 1 0.31,-0.79a14,14 0 0 1 1.28,-2.25c0.36,-0.55 0.76,-1.08 1.16,-1.62a22.11,22.11 0 0 0 3.59,-5.81a11,11 0 0 0 0.55,-3.31a16.29,16.29 0 0 0 -0.3,-3.4c-0.14,-0.74 -0.32,-1.49 -0.52,-2.21l0,0c-0.13,-0.45 -0.27,-0.9 -0.41,-1.34l-0.12,-0.36c-0.11,-0.34 -0.22,-0.67 -0.34,-1l-0.12,-0.34c-0.13,-0.36 -0.26,-0.71 -0.4,-1.07l-0.08,-0.21c-1.91,-4.91 -4.45,-9.59 -6,-14.64a38.6,38.6 0 0 1 -1,-4.09c-0.07,-0.35 -0.12,-0.71 -0.18,-1.06s-0.09,-0.6 -0.13,-0.9s-0.09,-0.7 -0.13,-1.05l-0.09,-1c0,-0.32 -0.05,-0.64 -0.07,-1c0,-0.61 -0.06,-1.22 -0.07,-1.83c0,-0.22 0,-0.43 0,-0.65c0,-0.46 0,-0.93 0,-1.39c0,-0.25 0,-0.5 0,-0.74c0,-0.46 0.07,-0.92 0.11,-1.37c0,-0.22 0,-0.44 0.07,-0.65q0.1,-1 0.27,-2l0,0c0.1,-0.59 0.21,-1.19 0.33,-1.79a23.88,23.88 0 0 0 0.56,-5c0,-0.32 0,-0.65 -0.07,-1s-0.08,-0.54 -0.13,-0.8a2,2 0 0 1 0,-0.24c0,-0.18 -0.09,-0.36 -0.13,-0.54s-0.05,-0.17 -0.08,-0.25s-0.11,-0.35 -0.17,-0.52s-0.05,-0.15 -0.08,-0.23s-0.14,-0.36 -0.22,-0.53l-0.07,-0.18c-0.1,-0.22 -0.21,-0.43 -0.32,-0.64l0,0a14.73,14.73 0 0 0 -1.34,-2.08l0,0c-3.29,-4.32 -8.76,-7.61 -11.77,-12.37a27.54,27.54 0 0 1 -3.37,-10c-0.15,-0.8 -0.28,-1.6 -0.42,-2.39s-0.26,-1.57 -0.4,-2.35c-0.09,-0.48 -0.18,-1 -0.28,-1.44l-0.06,-0.31c-0.08,-0.38 -0.16,-0.77 -0.25,-1.15l-0.06,-0.27c-0.09,-0.4 -0.18,-0.8 -0.28,-1.2l-0.06,-0.21c-0.1,-0.42 -0.21,-0.84 -0.32,-1.26a0.83,0.83 0 0 1 0,-0.15c-0.12,-0.44 -0.25,-0.88 -0.38,-1.32l0,-0.09c-0.14,-0.46 -0.28,-0.91 -0.43,-1.36l0,0c-0.15,-0.46 -0.31,-0.93 -0.48,-1.39l0,0c-0.18,-0.47 -0.35,-0.94 -0.54,-1.4l0,0a37,37 0 0 0 -5.06,-9c-4.58,-5.88 -11.66,-10.1 -19,-9.82c-3.94,0.15 -7.72,1.53 -11.43,2.9l-9.63,3.55l2.69,-1.24c-2.8,0.25 -5.66,0.51 -8.19,1.75s-4.67,3.67 -4.75,6.51c-0.05,1.65 0.6,3.29 0.39,4.93c-0.35,2.71 -2.84,4.55 -4.13,6.95a8.94,8.94 0 0 0 -1,4.7l0,0.08c0,0.19 0,0.37 0,0.56a0.88,0.88 0 0 0 0,0.16l0,0.32c-4,-1.74 -8,-3.55 -12,-5.49c-6.61,-3.25 -13.3,-7.07 -17.42,-13.23c-1.32,-2 -2.34,-4.16 -3.65,-6.14a48.6,48.6 0 0 0 -5,-6l-12.27,-13.28c-0.94,1.77 0.27,3.86 1.22,5.62a24.13,24.13 0 0 1 2.27,5.86a2.78,2.78 0 0 1 -0.06,2.05a4,4 0 0 1 -1.68,1.19a6,6 0 0 0 -2.53,6.87a7.6,7.6 0 0 0 5.67,4.94a10.29,10.29 0 0 1 2.53,0.62c1.48,0.73 2.18,2.43 3.24,3.7c1.93,2.32 5,3.19 7.93,3.95c4.54,5.24 9.26,10.26 13.8,15.5c6.87,7.93 13.9,16 22.86,21.36c0.93,0.56 1.88,1.08 2.84,1.56c0,0.16 0,0.32 -0.05,0.48a5.42,5.42 0 0 0 0.43,3.5c0.8,1.27 2.45,1.65 3.92,1.91l6.78,1.21a23.16,23.16 0 0 1 -0.33,2.62c-0.09,0.53 -0.2,1.05 -0.3,1.58l0,0l-0.12,0.68s0,0.07 0,0.1s0,0.36 -0.07,0.55s0,0.13 0,0.19l0,0.48l0,0.2c0,0.21 0,0.43 0,0.65c0.23,2.66 2,4.86 3.77,6.89l0.95,1.15a16,16 0 0 0 -3.09,6.48a22,22 0 0 0 -0.44,4.51a7.83,7.83 0 0 0 -2,3.12a14.26,14.26 0 0 0 -0.52,5.05l0,0.12c0,0.63 0,1.25 0,1.88a16.8,16.8 0 0 0 1.16,7c0.09,0.18 0.19,0.34 0.28,0.51c-1.5,2.94 -4,5.23 -5.79,8a17.36,17.36 0 0 0 1.59,19.88c1.37,1.58 3.13,3.1 3.29,5.2a19.51,19.51 0 0 1 -0.28,2.84c-0.16,2.26 0.88,4.4 1.44,6.59c0.47,1.82 0.49,4 -0.55,5.46a8,8 0 0 0 -1.37,5.24c0.51,2.83 -0.66,5.66 -0.86,8.53c-0.09,1.23 0,2.48 -0.11,3.71a20.91,20.91 0 0 1 -0.73,3.48c0,0.12 -0.06,0.25 -0.1,0.38c-2.47,1.09 -4.92,2.22 -7.28,3.53a6.39,6.39 0 0 0 -3,2.76a7.08,7.08 0 0 0 -0.16,3.8l2.13,14.82l-0.37,-0.16q0.25,3.64 0.52,7.31c0.13,1.85 0.3,3.81 1.4,5.29a13.78,13.78 0 0 1 1.51,1.93c0.84,1.7 -0.16,3.68 -0.9,5.42s-1,4.21 0.63,5.15a13.29,13.29 0 0 0 2.73,1.46c-2,8.34 -0.16,17.08 1.7,25.45q2.13,9.6 4.27,19.18a46.54,46.54 0 0 1 0.94,8.24c0,0.4 0,0.8 0,1.2a46.16,46.16 0 0 0 2,11.22c2.22,7.48 0.09,16.46 0.79,24.61a73,73 0 0 0 2.34,11.59c4.83,19.16 9.14,37.94 10.8,57.64a14.48,14.48 0 0 0 6.92,4.83c-0.2,2.42 0.07,5.19 0,6.6a11.4,11.4 0 0 1 -0.54,3.44c-0.85,2.22 -3,3.67 -5.23,4.45c-0.7,0.24 -1.41,0.43 -2.13,0.6l0.8,-0.68a17.86,17.86 0 0 0 -13.31,2.34a5.27,5.27 0 0 0 -2.63,3.1a5,5 0 0 0 0.92,3.59a16.37,16.37 0 0 0 9.25,6.57a48.52,48.52 0 0 0 11.4,1.59l7.06,0.41a1.94,1.94 0 0 0 0.46,2.51a4.94,4.94 0 0 0 2.59,0.94a33,33 0 0 0 8.71,0.13a3.41,3.41 0 0 0 2,-0.72a1.29,1.29 0 0 0 0,-1.91a2.11,2.11 0 0 0 1.92,-1.4a5.68,5.68 0 0 0 0.26,-2.53c-0.19,-3.29 -0.48,-8.07 -2.19,-11a2.79,2.79 0 0 0 -3.09,-1.36a120,120 0 0 1 -2,-17.74a43.33,43.33 0 0 0 5.14,-2.32c-4.91,-7.93 -5,-18 -3.5,-27.22a82.46,82.46 0 0 0 1.31,-8.81c0.33,-5.9 -0.56,-12.58 -3.83,-17.46a62.47,62.47 0 0 1 15.6,14.12c6.91,9 11.12,19.9 19.59,27.4q1.67,-1.63 3.38,-3.24q2.68,4.54 5.07,9.27a35.26,35.26 0 0 1 2.94,7.31a33.81,33.81 0 0 1 0.27,11.79q-0.35,3.12 -0.85,6.21a16.9,16.9 0 0 1 -0.61,2.6a1.8,1.8 0 0 0 -0.19,-0.78c-0.53,-0.93 -2,-0.51 -2.8,0.13a12.36,12.36 0 0 0 -3.45,4a4.31,4.31 0 0 0 -0.62,2.55a3.77,3.77 0 0 0 2,2.5c3.71,2.17 8.37,0.6 12.35,-1a14.49,14.49 0 0 0 3.12,-1.57c2,-1.44 3.09,-3.81 5.08,-5.21a29.43,29.43 0 0 0 3.07,-1.94c1.85,-1.69 2,-4.54 3.35,-6.68c2.24,-3.69 7.25,-4.64 9.21,-8.55c2.27,-4.32 -0.38,-9.77 -3.8,-12.59z"/>
  <path id="svg_68" fill="#a1616a" d="m839.44,757.97a11.15,11.15 0 0 1 -0.55,3.4c-0.84,2.19 -3,3.62 -5.22,4.39s-4.58,1 -6.84,1.67a6,6 0 0 0 -2.67,1.38c-2,2 -0.8,5.6 1.54,7.09s5.32,1.44 8.1,1.25a106.69,106.69 0 0 0 17.52,-2.49c2.08,-0.49 4.51,-1.45 4.84,-3.56a5.84,5.84 0 0 0 -0.16,-2a118.21,118.21 0 0 1 -2.25,-21.73c0,-0.48 -11.6,-0.79 -12.68,-0.09c-2.42,1.59 -1.5,8.23 -1.63,10.69z"/>
  <path id="svg_69" fill="#a1616a" d="m891.16,732.5q2.88,4.77 5.41,9.73a34.45,34.45 0 0 1 2.94,7.21a33.14,33.14 0 0 1 0.27,11.63q-0.35,3.07 -0.86,6.13c-0.33,2 -0.86,4.27 -2.57,5.42a5.92,5.92 0 0 0 5.1,0.45a14.69,14.69 0 0 0 4.49,-2.75c8.57,-7.07 15,-17.34 15.32,-28.45a4.51,4.51 0 0 0 -0.47,-2.52a5,5 0 0 0 -1.5,-1.34a115.25,115.25 0 0 1 -17.73,-14.89a2.17,2.17 0 0 0 -1.3,-0.83a2.25,2.25 0 0 0 -1.16,0.33c-3.29,1.65 -8.79,4 -10.16,7.75a5.24,5.24 0 0 1 2.22,2.13z"/>
  <path id="svg_70" fill="#3f3d56" d="m851.16,769.58c-7.2,3 -15,4.08 -22.79,5.11c-1,0.12 -2.07,0.2 -2.73,-0.5a2.08,2.08 0 0 1 -0.18,-2.34a6.1,6.1 0 0 1 1.67,-1.84l5.17,-4.33a18,18 0 0 0 -13.14,2.26a5.23,5.23 0 0 0 -2.62,3a4.88,4.88 0 0 0 0.92,3.55a16.34,16.34 0 0 0 9.24,6.48a49.4,49.4 0 0 0 11.39,1.57l7,0.4a1.89,1.89 0 0 0 0.47,2.48a5,5 0 0 0 2.6,0.95a33.34,33.34 0 0 0 8.7,0.12a3.33,3.33 0 0 0 2,-0.71a1.26,1.26 0 0 0 0,-1.88a2.11,2.11 0 0 0 1.92,-1.39a5.79,5.79 0 0 0 0.26,-2.49c-0.19,-3.24 -0.48,-8 -2.19,-10.83s-5.27,-0.61 -7.69,0.39z"/>
  <path id="svg_71" fill="#3f3d56" d="m925.47,740.99a32.17,32.17 0 0 0 -7.42,-4.11a0.88,0.88 0 0 0 -1.34,0.34a76.13,76.13 0 0 0 -10.93,21.07c-1.43,4.3 -2.56,8.88 -5.46,12.36c-0.38,0.46 -1,0.93 -1.52,0.66c-0.75,-0.38 -0.29,-1.59 -0.71,-2.32c-0.52,-0.92 -1.94,-0.5 -2.79,0.13a12,12 0 0 0 -3.44,4a4,4 0 0 0 -0.62,2.51a3.7,3.7 0 0 0 1.95,2.46c3.71,2.15 8.37,0.6 12.34,-1a14.12,14.12 0 0 0 3.11,-1.55c2,-1.41 3.09,-3.76 5.08,-5.13a29.27,29.27 0 0 0 3.07,-1.92c1.84,-1.67 2,-4.48 3.34,-6.6c2.24,-3.63 7.25,-4.57 9.21,-8.43c2.19,-4.31 -0.45,-9.69 -3.87,-12.47z"/>
  <path id="svg_72" fill="#3f3d56" d="m869.66,541.24c7.86,5.9 11.16,16.39 10.81,26.21s-3.8,19.24 -7.22,28.45q-7.35,19.77 -14.68,39.53a16.3,16.3 0 0 1 1,4.5a5.53,5.53 0 0 1 -1,4.42c-0.46,0.53 -1,0.94 -1.5,1.46c-1.44,1.6 -1.53,4 -1.3,6.13s0.72,4.33 0.17,6.41c-0.23,0.89 -0.65,1.73 -0.81,2.63a2.61,2.61 0 0 0 0.73,2.52c1,0.8 3,0.54 3.29,1.8a149.46,149.46 0 0 1 33.3,41c3.24,5.83 6.51,12.29 12.56,15.11a219.28,219.28 0 0 0 -16.93,14.89c-8.45,-7.4 -12.66,-18.17 -19.56,-27a62,62 0 0 0 -15.58,-13.93c3.27,4.81 4.16,11.41 3.83,17.22a79.91,79.91 0 0 1 -1.31,8.69c-1.55,9.1 -1.41,19 3.5,26.86c-5.24,2.72 -11.26,4.74 -17.11,3.93a14.56,14.56 0 0 1 -9.32,-5.32c-1.66,-19.44 -6,-38 -10.79,-56.87a69.91,69.91 0 0 1 -2.33,-11.51c-0.7,-8 1.43,-16.9 -0.8,-24.28a45.27,45.27 0 0 1 -2,-11.06c0,-0.4 0,-0.79 0,-1.19a45.32,45.32 0 0 0 -0.94,-8.12l-4.26,-18.92c-1.86,-8.27 -3.72,-16.89 -1.71,-25.12a13.35,13.35 0 0 1 -2.72,-1.43c-1.63,-0.93 -1.37,-3.36 -0.63,-5.08s1.73,-3.67 0.9,-5.35a13.06,13.06 0 0 0 -1.51,-1.91c-1.1,-1.46 -1.27,-3.39 -1.4,-5.21l-0.52,-7.22a14.13,14.13 0 0 1 7.12,6.23c-3.94,-6.1 -2,-14.8 0.91,-21.46a9.78,9.78 0 0 1 9.18,-7.27c16.03,-2.74 35.61,-9.53 48.63,0.26z"/>
  <path id="svg_73" opacity="0.1" d="m862.35,582.3s-7.88,5.26 -7.88,9.2s-2,39.4 -2,39.4l0,25s1.31,13.14 0,16.42s0,18.39 0,20.36s2,-20.36 2,-20.36l0,-23.68l2,-53.86l5.88,-12.48z"/>
  <path id="svg_74" fill="#a1616a" d="m818.4,400.16l-4.59,-1.79c-9.38,-3.76 -18.77,-7.53 -27.85,-11.94c-6.6,-3.21 -13.29,-7 -17.4,-13.05c-1.32,-2 -2.34,-4.1 -3.65,-6.07a48.42,48.42 0 0 0 -5,-5.93l-12.26,-13.1c-0.94,1.75 0.26,3.81 1.22,5.54a24,24 0 0 1 2.27,5.79a2.68,2.68 0 0 1 -0.07,2a3.89,3.89 0 0 1 -1.67,1.18a5.87,5.87 0 0 0 -2.53,6.77a7.55,7.55 0 0 0 5.66,4.88a10.75,10.75 0 0 1 2.53,0.61c1.48,0.73 2.18,2.4 3.24,3.65c1.93,2.29 5,3.16 7.92,3.9c4.54,5.17 9.25,10.12 13.79,15.29c6.86,7.82 13.88,15.78 22.84,21.08a33.45,33.45 0 0 0 10.31,4.14a167.08,167.08 0 0 1 5.24,-22.95z"/>
  <path id="svg_75" opacity="0.15" d="m818.4,400.16l-4.59,-1.79c-9.38,-3.76 -18.77,-7.53 -27.85,-11.94c-6.6,-3.21 -13.29,-7 -17.4,-13.05c-1.32,-2 -2.34,-4.1 -3.65,-6.07a48.42,48.42 0 0 0 -5,-5.93l-12.26,-13.1c-0.94,1.75 0.26,3.81 1.22,5.54a24,24 0 0 1 2.27,5.79a2.68,2.68 0 0 1 -0.07,2a3.89,3.89 0 0 1 -1.67,1.18a5.87,5.87 0 0 0 -2.53,6.77a7.55,7.55 0 0 0 5.66,4.88a10.75,10.75 0 0 1 2.53,0.61c1.48,0.73 2.18,2.4 3.24,3.65c1.93,2.29 5,3.16 7.92,3.9c4.54,5.17 9.25,10.12 13.79,15.29c6.86,7.82 13.88,15.78 22.84,21.08a33.45,33.45 0 0 0 10.31,4.14a167.08,167.08 0 0 1 5.24,-22.95z"/>
  <path id="svg_76" fill="#0ccc88" d="m810,426.27c-1.47,-0.26 -3.12,-0.62 -3.92,-1.88a5.27,5.27 0 0 1 -0.43,-3.45a96.76,96.76 0 0 1 5,-22.1c2.23,4.13 6.62,6.54 10.78,8.71a80,80 0 0 0 11.58,5.28c-1,-0.32 -3.45,15.06 -4.83,16c-1.74,1.22 -5.94,-0.43 -7.87,-0.76l-10.31,-1.8z"/>
  <circle id="svg_77" fill="#a1616a" r="21.02" cy="400.71" cx="820.65"/>
  <path id="svg_78" fill="#fbbebe" d="m816.38,418.11s13.79,11.82 7.88,19.7s-9.2,13.14 -1.32,13.8s34.15,-13.14 34.15,-13.14s-24.3,-19.7 -20.36,-31.52s-20.35,11.16 -20.35,11.16z"/>
  <path id="svg_79" fill="#0ccc88" d="m829.61,436.61a16.31,16.31 0 0 0 -12.07,12.14c-1.55,7.08 1.74,15 -1.36,21.52c-1.46,3.1 -4.17,5.42 -6,8.33a17,17 0 0 0 1.58,19.61c1.37,1.56 3.13,3.07 3.29,5.13a18.84,18.84 0 0 1 -0.28,2.8c-0.16,2.23 0.88,4.35 1.44,6.51c0.47,1.79 0.49,3.94 -0.55,5.38a7.79,7.79 0 0 0 -1.36,5.17c0.5,2.8 -0.67,5.59 -0.87,8.42c-0.09,1.22 0,2.44 -0.11,3.66a21.35,21.35 0 0 1 -0.72,3.43l-1.76,6.49c9.54,4.08 19.68,5.55 30,5.36c9.24,-0.18 18.35,-2.09 27.39,-4c2.75,-0.58 5.5,-1.16 8.21,-1.91c-5.72,-7.48 -6.33,-17.39 -6.49,-26.8a400.06,400.06 0 0 0 -3.51,-46.9c2.77,-5.23 4,-11.06 5.14,-16.87a28.53,28.53 0 0 0 0.64,-7.13c-0.28,-5 -2.58,-9.75 -4.83,-14.28c-2.06,-4.14 -4.29,-8.5 -8.88,-10.29a7.06,7.06 0 0 0 -6.83,0.75c-3.47,2.62 -2.44,7.14 -3.33,11c-1.17,5 -5.78,8.59 -10.69,10a34.75,34.75 0 0 1 -11.24,1.05a2,2 0 0 1 -1.42,-3.28c1.61,-1.78 3.23,-3.59 4.61,-5.29z"/>
  <path id="svg_80" fill="#a1616a" d="m845.89,517.86c-7.78,6.36 -15.65,12.78 -24.63,17.28c-5.27,2.64 -10.87,4.59 -16,7.43a6.39,6.39 0 0 0 -3,2.72a6.72,6.72 0 0 0 -0.16,3.75l2.28,15.72c0.63,4.26 4.72,7 8,9.72c-0.18,-1.43 -0.47,-2.54 0.21,-3.81a12.8,12.8 0 0 1 0.77,-1.15c1.4,-2.12 1.45,-4.87 1.11,-7.39s-1,-5 -0.87,-7.58a2.48,2.48 0 0 1 1.06,-2.2c11.17,-5.37 23.2,-9.49 34.49,-14.59a36.55,36.55 0 0 0 8.37,-4.75a12.88,12.88 0 0 0 4.86,-8.07a1.58,1.58 0 0 0 -0.2,-1.23a1.67,1.67 0 0 0 -0.85,-0.5c-5.06,-1.84 -10.4,-3.53 -15.44,-5.35z"/>
  <path id="svg_81" opacity="0.1" d="m824.28,451.9c-3.86,0.65 -7.92,2.65 -9.23,6.35a14.11,14.11 0 0 0 -0.52,5a16.26,16.26 0 0 0 1.17,6.93a19.57,19.57 0 0 0 2.34,3.4c9.24,11.84 13.88,26.71 22.88,38.74c0.8,1.06 2.26,2.44 1.81,3.69a8.94,8.94 0 0 0 -0.43,1a2,2 0 0 0 0.66,1.75a4.27,4.27 0 0 1 1.09,1.59c0.17,0.63 -0.25,1.45 -0.9,1.4c1.08,3.34 4.39,5.29 7.53,6.87c5.22,2.63 11,4.7 16.81,4.13c1.09,-4.37 2.61,-9.31 2,-13.76a35.72,35.72 0 0 0 -3.35,-9.76l-3.91,-8.54c-3.33,-7.29 -6.69,-14.63 -11.33,-21.16a32,32 0 0 1 -4.19,-6.75c-1.19,-3.09 -4.46,-5.26 -6.44,-7.91c-2.94,-4 -6,-8 -9.94,-10.89c-1.58,-1.22 -4.12,-2.4 -6.05,-2.08z"/>
  <path id="svg_82" fill="#0ccc88" d="m824.28,449.93c-3.86,0.65 -7.92,2.65 -9.23,6.34a14.19,14.19 0 0 0 -0.52,5a16.26,16.26 0 0 0 1.17,6.93a19.57,19.57 0 0 0 2.34,3.4c9.24,11.84 13.88,26.71 22.88,38.74c0.8,1.06 2.26,2.44 1.81,3.69a8.94,8.94 0 0 0 -0.43,1a2,2 0 0 0 0.66,1.75a4.27,4.27 0 0 1 1.09,1.59c0.17,0.63 -0.25,1.45 -0.9,1.4c1.08,3.34 4.39,5.29 7.53,6.87c5.22,2.63 11,4.7 16.81,4.13c1.09,-4.37 2.61,-9.31 2,-13.76a35.72,35.72 0 0 0 -3.35,-9.76l-3.91,-8.54c-3.33,-7.29 -6.69,-14.63 -11.33,-21.16a31.84,31.84 0 0 1 -4.19,-6.76c-1.19,-3.08 -4.46,-5.25 -6.44,-7.9c-2.94,-4 -6,-8 -9.94,-10.89c-1.58,-1.21 -4.12,-2.39 -6.05,-2.07z"/>
  <path id="svg_83" fill="#3f3d56" d="m815.47,366.18c-2.79,0.24 -5.66,0.5 -8.18,1.72s-4.67,3.62 -4.75,6.42c0,1.63 0.6,3.25 0.39,4.86c-0.35,2.68 -2.84,4.49 -4.12,6.86c-2.24,4.12 -0.5,9.36 2.4,13s6.83,6.44 9.81,10.06a26,26 0 0 1 5.42,20.92a16.6,16.6 0 0 0 -0.53,4.37c0.23,2.62 2,4.79 3.76,6.79a313.68,313.68 0 0 1 23.72,31.56a85.27,85.27 0 0 1 5.84,10c1.7,3.58 3,7.4 5.36,10.57a27.91,27.91 0 0 0 7.87,6.75a55.58,55.58 0 0 0 25.2,8.13l-5.15,-12.77c-0.91,-2.27 -1.85,-4.66 -1.55,-7.09c0.57,-4.6 5.21,-7.62 6.72,-12c1,-2.82 0.55,-5.93 -0.27,-8.8c-1.82,-6.47 -5.46,-12.29 -7.42,-18.72a38,38 0 0 1 -1.12,-17.41c0.43,-2.56 1.13,-5.13 0.81,-7.7c-0.95,-7.82 -10.12,-11.56 -14.36,-18.19c-2.74,-4.26 -3.27,-9.51 -4.19,-14.49c-1.33,-7.27 -3.7,-14.53 -8.28,-20.33s-11.64,-10 -19,-9.69c-3.94,0.15 -7.71,1.52 -11.42,2.86l-9.64,3.51"/>
  <g id="svg_84" opacity="0.1">
   <path id="svg_85" d="m858.5,382.51c0.83,4.49 1.35,9.2 3.45,13.21c-0.29,-1.56 -0.53,-3.13 -0.82,-4.67a58.24,58.24 0 0 0 -3.22,-11.46c0.25,0.97 0.42,1.94 0.59,2.92z"/>
   <path id="svg_86" d="m876.24,422.89a38.19,38.19 0 0 0 1.12,17.42c0.47,1.53 1,3 1.64,4.5a38.07,38.07 0 0 1 -0.13,-13.38c0.43,-2.56 1.13,-5.13 0.81,-7.7a12,12 0 0 0 -2.6,-6c-0.15,1.74 -0.55,3.45 -0.84,5.16z"/>
   <path id="svg_87" d="m887.41,467.56a48.27,48.27 0 0 0 -2,-5.52a12.27,12.27 0 0 1 -0.38,5.78c-1.51,4.37 -6.16,7.4 -6.72,12c-0.3,2.43 0.63,4.82 1.55,7.09c0.34,0.85 0.68,1.71 1,2.56a8.24,8.24 0 0 1 0,-1.11c0.57,-4.6 5.21,-7.62 6.72,-12c1.08,-2.82 0.65,-5.93 -0.17,-8.8z"/>
   <path id="svg_88" d="m859.84,491.55a28,28 0 0 1 -7.87,-6.76c-2.37,-3.17 -3.67,-7 -5.37,-10.57a84.33,84.33 0 0 0 -5.84,-10a314.08,314.08 0 0 0 -23.71,-31.57c-0.31,-0.35 -0.61,-0.71 -0.91,-1.07a10.28,10.28 0 0 0 -0.23,2.82c0.23,2.62 2,4.79 3.76,6.79a313.68,313.68 0 0 1 23.72,31.56a85.27,85.27 0 0 1 5.84,10c1.7,3.58 3,7.4 5.36,10.57a27.91,27.91 0 0 0 7.87,6.75a55.58,55.58 0 0 0 25.2,8.13l-3.5,-8.6a55.64,55.64 0 0 1 -24.32,-8.05z"/>
   <path id="svg_89" d="m808.39,400.6c-3,-3.62 -6.91,-6.37 -9.81,-10.05c-0.26,-0.34 -0.51,-0.69 -0.76,-1.06a14.56,14.56 0 0 0 3.39,9.59c2.9,3.69 6.83,6.44 9.81,10.06a25,25 0 0 1 3,4.56a26,26 0 0 0 -5.63,-13.1z"/>
  </g>
  <path id="svg_90" fill="#3acc6c" d="m418.04,297.95l-7.25,-7.29a3.85,3.85 0 0 0 -5.47,0l-45.53,45.11l-19.26,-19.4a3.84,3.84 0 0 0 -5.43,0l-7.33,7.25a3.89,3.89 0 0 0 0,5.47l29.25,29.47a3.88,3.88 0 0 0 5.46,0l55.56,-55.14a3.85,3.85 0 0 0 0,-5.47z"/>
  <path id="svg_91" fill="#3acc6c" d="m619.04,297.95l-7.25,-7.29a3.85,3.85 0 0 0 -5.47,0l-45.53,45.11l-19.26,-19.4a3.84,3.84 0 0 0 -5.43,0l-7.33,7.25a3.89,3.89 0 0 0 0,5.47l29.25,29.47a3.88,3.88 0 0 0 5.46,0l55.56,-55.14a3.85,3.85 0 0 0 0,-5.47z"/>
 </g>
</svg>