<svg width="1130" height="814.83" xmlns="http://www.w3.org/2000/svg" xmlns:xlink="http://www.w3.org/1999/xlink" data-name="Layer 1">
 <defs>
  <linearGradient y2="0.00022" x2="0.49984" y1="1.00006" x1="0.49984" id="feb95feb-fdda-4dbf-a11d-82daac0de6ae">
   <stop stop-opacity="0.25" stop-color="gray" offset="0"/>
   <stop stop-opacity="0.12" stop-color="gray" offset="0.54"/>
   <stop stop-opacity="0.1" stop-color="gray" offset="1"/>
  </linearGradient>
  <linearGradient xlink:href="#feb95feb-fdda-4dbf-a11d-82daac0de6ae" y2="590.97" x2="396.2" y1="590.97" x1="178.88" id="b2e6dffe-26e9-4285-a3da-2186fa2c443c"/>
 </defs>
 <title>email campaign</title>
 <g>
  <title>Layer 1</title>
  <path id="svg_1" opacity="0.1" fill="#0ccc88" d="m656.54,126.55c-72.44,-2.51 -141.44,-25.9 -207.32,-51.49s-131.15,-53.93 -201.85,-67.49c-45.48,-8.72 -97.49,-9.95 -134.13,14.43c-35.24,23.42 -46.66,63.97 -52.78,101.55c-4.61,28.27 -7.32,58 5.3,84.5c8.77,18.38 24.34,33.83 35.11,51.43c37.45,61.25 11,136.79 -29.62,196.59c-19,28.06 -41.13,54.82 -55.82,84.68s-21.49,64.09 -8.64,94.55c12.75,30.2 43.11,52.88 76,68.83c66.81,32.4 145.54,41.68 222.31,46.93c169.94,11.62 340.79,6.59 511.18,1.55c63.06,-1.87 126.39,-3.76 188.43,-13.51c34.44,-5.41 70,-14 95,-34.75c31.75,-26.34 39.62,-70.94 18.34,-104c-35.68,-55.39 -134.35,-69.15 -159.29,-128.6c-13.73,-32.72 0.37,-69.18 20.32,-99.52c42.8,-65.11 114.54,-122.23 118.32,-196.64c2.6,-51.11 -31.89,-102.3 -85.21,-126.48c-55.9,-25.35 -133.4,-22.16 -174.64,19.8c-42.43,43.24 -117.05,59.86 -181.01,57.64z"/>
  <g id="svg_2" opacity="0.9">
   <rect id="svg_3" fill="#3a3768" rx="2.29" height="81.73" width="9.91" y="238.91" x="724.27"/>
   <rect id="svg_4" fill="#3a3768" rx="2.29" height="26.91" width="5.56" y="174.88" x="394.7"/>
   <rect id="svg_5" fill="#3a3768" rx="2.29" height="46.84" width="6.27" y="224.14" x="394.5"/>
   <rect id="svg_6" fill="#3a3768" rx="2.29" height="47.24" width="5.97" y="287.36" x="394.6"/>
   <rect id="svg_7" fill="#3a3768" rx="38.99" height="674.27" width="331.77" y="85.95" x="397.85"/>
   <rect id="svg_8" fill="#e6e8ec" rx="3.87" height="9.41" width="46.33" y="106.09" x="531.73"/>
   <circle id="svg_9" fill="#e6e8ec" r="5.34" cy="110.79" cx="590.4"/>
  </g>
  <path id="svg_10" opacity="0.5" fill="#0ccc88" d="m682.78,103.52l-38,0l0,4.58a21.69,21.69 0 0 1 -21.7,21.69l-121.08,0a21.7,21.7 0 0 1 -21.7,-21.69l0,-4.58l-35.61,0a26.35,26.35 0 0 0 -26.35,26.35l0,586.44a26.35,26.35 0 0 0 26.35,26.35l238.09,0a26.35,26.35 0 0 0 26.35,-26.35l0,-586.44a26.35,26.35 0 0 0 -26.35,-26.35z"/>
  <rect id="svg_11" fill="#e6e8ec" height="26.86" width="291.02" y="148.47" x="418.58"/>
  <rect id="svg_12" fill="#3a3768" height="2.24" width="24.63" y="154.06" x="427.54"/>
  <rect id="svg_13" fill="#3a3768" height="2.24" width="24.63" y="160.78" x="427.54"/>
  <rect id="svg_14" fill="#3a3768" height="2.24" width="24.63" y="167.5" x="427.54"/>
  <path id="svg_15" fill="#3a3768" d="m690,164.49l-0.91,0l-0.35,-0.28a7.66,7.66 0 0 0 1.78,-4.9a7.44,7.44 0 1 0 -7.4,7.49a7.68,7.68 0 0 0 4.88,-1.79l0.34,0.29l0,0.92l5.74,5.76l1.72,-1.73l-5.8,-5.76zm-6.88,0a5.18,5.18 0 1 1 5.16,-5.18a5.15,5.15 0 0 1 -5.16,5.18z"/>
  <circle id="svg_16" fill="#e6e8ec" r="12.31" cy="224.58" cx="439.85"/>
  <rect id="svg_17" fill="#e6e8ec" height="6.72" width="171.26" y="236.89" x="478.47"/>
  <rect id="svg_18" fill="#e6e8ec" height="6.72" width="171.26" y="251.44" x="479.03"/>
  <rect id="svg_19" fill="#e6e8ec" height="6.72" width="171.26" y="266" x="479.59"/>
  <circle id="svg_20" fill="#e6e8ec" r="12.31" cy="308.53" cx="439.85"/>
  <rect id="svg_21" fill="#e6e8ec" height="6.72" width="171.26" y="320.84" x="478.47"/>
  <rect id="svg_22" fill="#e6e8ec" height="6.72" width="171.26" y="335.39" x="479.03"/>
  <rect id="svg_23" fill="#e6e8ec" height="6.72" width="171.26" y="349.94" x="479.59"/>
  <circle id="svg_24" fill="#e6e8ec" r="12.31" cy="392.48" cx="439.85"/>
  <rect id="svg_25" fill="#e6e8ec" height="6.72" width="171.26" y="404.79" x="478.47"/>
  <rect id="svg_26" fill="#e6e8ec" height="6.72" width="171.26" y="419.34" x="479.03"/>
  <rect id="svg_27" fill="#e6e8ec" height="6.72" width="171.26" y="433.89" x="479.59"/>
  <circle id="svg_28" fill="#e6e8ec" r="12.31" cy="476.43" cx="439.85"/>
  <rect id="svg_29" fill="#e6e8ec" height="6.72" width="171.26" y="488.74" x="478.47"/>
  <rect id="svg_30" fill="#e6e8ec" height="6.72" width="171.26" y="503.29" x="479.03"/>
  <rect id="svg_31" fill="#e6e8ec" height="6.72" width="171.26" y="517.84" x="479.59"/>
  <circle id="svg_32" fill="#e6e8ec" r="12.31" cy="560.38" cx="439.85"/>
  <rect id="svg_33" fill="#e6e8ec" height="6.72" width="171.26" y="572.69" x="478.47"/>
  <rect id="svg_34" fill="#e6e8ec" height="6.72" width="171.26" y="587.24" x="479.03"/>
  <rect id="svg_35" fill="#e6e8ec" height="6.72" width="171.26" y="601.79" x="479.59"/>
  <circle id="svg_36" fill="#e6e8ec" r="12.31" cy="644.33" cx="439.85"/>
  <rect id="svg_37" fill="#e6e8ec" height="6.72" width="171.26" y="656.64" x="478.47"/>
  <rect id="svg_38" fill="#e6e8ec" height="6.72" width="171.26" y="671.19" x="479.03"/>
  <rect id="svg_39" fill="#e6e8ec" height="6.72" width="171.26" y="685.74" x="479.59"/>
  <circle id="svg_40" opacity="0.1" r="31.34" cy="692.46" cx="650.28"/>
  <circle id="svg_41" fill="#0ccc88" r="27.98" cy="692.46" cx="650.28"/>
  <path id="svg_42" fill="#0ccc88" d="m314.09,115.85l-54.73,29.57a1.14,1.14 0 0 0 0.08,2l9.34,3.51a2.27,2.27 0 0 1 1.23,1.15l7.25,14.94c0.14,0.66 1.36,0.83 1.37,0.16l-1.11,-12.34a4.44,4.44 0 0 1 1,-2.5l28.38,-27.8a0.7,0.7 0 0 1 0.62,-0.18a0.65,0.65 0 0 1 0.35,1l-24.46,30.06a5.45,5.45 0 0 0 -1,2.46l-1.41,10.66c0.12,0.93 0.85,1.28 1.43,0.45l5.27,-6.19a1.1,1.1 0 0 1 1.55,-0.26l13.58,9.9a1.1,1.1 0 0 0 1.73,-0.67l11.14,-54.69a1.11,1.11 0 0 0 -1.6,-1.23l-0.01,0z"/>
  <path id="svg_43" fill="#0ccc88" d="m892,127.47l-54.73,29.61a1.14,1.14 0 0 0 0.09,2l9.33,3.52a2.17,2.17 0 0 1 1.23,1.15l7.26,14.93c0.14,0.66 1.35,0.84 1.37,0.17l-1.11,-12.35a4.38,4.38 0 0 1 1,-2.49l28.37,-27.8a0.68,0.68 0 0 1 0.62,-0.18a0.65,0.65 0 0 1 0.36,1l-24.47,29.92a5.47,5.47 0 0 0 -1,2.47l-1.47,10.66c0.12,0.93 0.85,1.29 1.44,0.45l5.27,-6.18a1.1,1.1 0 0 1 1.55,-0.26l13.58,9.89a1.09,1.09 0 0 0 1.72,-0.67l11.14,-54.69a1.11,1.11 0 0 0 -1.6,-1.23l0.05,0.08z"/>
  <path id="svg_44" fill="#0ccc88" d="m554.26,19.13l-37.37,20.21a0.78,0.78 0 0 0 0.05,1.4l6.38,2.4a1.53,1.53 0 0 1 0.84,0.78l5,10.2c0.1,0.45 0.93,0.57 0.94,0.12l-0.76,-8.44a3.06,3.06 0 0 1 0.68,-1.7l19.38,-19a0.46,0.46 0 0 1 0.42,-0.12a0.44,0.44 0 0 1 0.24,0.71l-16.7,20.43a3.74,3.74 0 0 0 -0.65,1.68l-1,7.28c0.08,0.64 0.57,0.88 1,0.31l3.6,-4.22a0.75,0.75 0 0 1 1,-0.18l9.27,6.76a0.75,0.75 0 0 0 1.18,-0.46l7.61,-37.34a0.75,0.75 0 0 0 -1.09,-0.84l-0.02,0.02z"/>
  <path id="svg_45" fill="#0ccc88" d="m766.93,0.1l-37.37,20.22a0.78,0.78 0 0 0 0.05,1.39l6.38,2.4a1.51,1.51 0 0 1 0.84,0.79l4.95,10.19c0.1,0.45 0.93,0.57 0.94,0.12l-0.72,-8.43a3.07,3.07 0 0 1 0.68,-1.71l19.38,-19a0.46,0.46 0 0 1 0.42,-0.12a0.44,0.44 0 0 1 0.24,0.71l-16.72,20.45a3.74,3.74 0 0 0 -0.65,1.68l-1,7.29c0.08,0.63 0.58,0.87 1,0.3l3.6,-4.22a0.75,0.75 0 0 1 1.05,-0.18l9.28,6.76a0.74,0.74 0 0 0 1.17,-0.46l7.55,-37.34a0.75,0.75 0 0 0 -1.09,-0.84l0.02,0z"/>
  <path id="svg_46" fill="#0ccc88" d="m909.05,259.82l-110.32,-9.11a2,2 0 0 0 -1.86,3.12l10.49,14.32a3.91,3.91 0 0 1 0.72,2.91l-3.72,29.3c-0.43,1.11 1.21,2.56 1.88,1.58l10.36,-19.52a7.81,7.81 0 0 1 3.91,-2.74l69.3,-13.82a1.23,1.23 0 0 1 1.09,0.33a1.16,1.16 0 0 1 -0.48,1.9l-65.53,20.83a9.78,9.78 0 0 0 -3.83,2.74l-12.55,14.46c-0.72,1.51 0,2.74 1.7,2.07l13.87,-4.09a2,2 0 0 1 2.56,1.12l10.6,27.94a2,2 0 0 0 3.23,0.68l69.77,-70.63a2,2 0 0 0 -1.19,-3.39z"/>
  <path id="svg_47" fill="url(#feb95feb-fdda-4dbf-a11d-82daac0de6ae)" d="m611.66,371.08a17.82,17.82 0 0 0 3.76,3.8c0.93,0.77 1.89,1.56 2.89,2.26c0.28,0.2 0.57,0.39 0.86,0.58c0,0.05 -0.06,0.1 -0.08,0.16a2.27,2.27 0 0 0 -0.26,1.39a3,3 0 0 0 1.07,1.44a14.8,14.8 0 0 1 4.51,8.15c0.34,1.81 -0.88,3.75 -0.8,5.59a16.28,16.28 0 0 0 1.42,5.22c1.53,3.88 3.15,7.91 6.2,10.74a34.72,34.72 0 0 0 6.95,17.13c3.22,4.11 7.5,7.23 11.73,10.28a22.79,22.79 0 0 0 4.33,2.72a24.47,24.47 0 0 0 4.29,1.15a221.18,221.18 0 0 0 37.69,4.26q0.53,11.3 0.46,22.59a9.32,9.32 0 0 1 -0.52,3.65a16.24,16.24 0 0 1 -2.18,3.06c-2.89,3.84 -3,9.06 -2.8,13.87a127.76,127.76 0 0 0 2,16.78c1.31,7.1 0.11,14.94 2.63,21.7c1,2.67 2,5.33 3,8a7.06,7.06 0 0 1 0.59,2.37c0,1.75 -1.16,3.24 -2,4.76a13.79,13.79 0 0 0 -1.75,7.27a1.51,1.51 0 0 0 0.21,0.81c0.33,0.44 1,0.4 1.54,0.32a64.77,64.77 0 0 1 6.68,-0.62a12.26,12.26 0 0 0 -1.08,1.59a23.39,23.39 0 0 0 -1.42,2.92a27.62,27.62 0 0 0 -1.9,5.22a6.36,6.36 0 0 0 -0.19,0.8c-0.12,0.54 -0.23,1.09 -0.32,1.63a54,54 0 0 0 -0.59,9.6c-0.31,6 -0.61,12.24 -1.19,14.06c-0.82,2.59 0.2,6.73 1.21,10.68a25.28,25.28 0 0 0 1.45,8a48.21,48.21 0 0 0 1,8.44q5.19,29.24 11,58.34c0.35,1.69 0.68,3.37 1.13,5a40.92,40.92 0 0 0 7.49,14.81a67.32,67.32 0 0 1 7.82,12.52c-0.23,1.06 -0.47,2.12 -0.72,3.17c-2.2,9.29 -5.11,18.45 -6.12,27.94c-0.4,3.78 -0.52,7.68 -2,11.17c-0.76,1.78 -1.88,3.48 -2,5.41a6,6 0 0 0 0.83,3.51c-0.26,0.19 -0.51,0.39 -0.75,0.59l-0.41,0.34c-2.84,2.26 -6.65,2.72 -10.15,3.63s-7.27,2.76 -8.35,6.24a5.48,5.48 0 0 0 -0.17,0.67c-0.64,3.2 1.3,6.6 4,8.48c2.91,2 6.53,2.62 10,3.07s7.12,0.8 10.29,2.36c2.74,1.36 5.05,3.59 8,4.57l0.51,0.15c-0.65,0.39 -1.31,0.77 -2,1.12a30.11,30.11 0 0 1 -9.59,3c-3.38,0.47 -7.42,0.69 -9.16,3.64l0,0c-1.42,2.44 -0.39,5.73 1.66,7.65s4.89,2.78 7.64,3.38a139,139 0 0 0 19,2.36l6.21,0.47c6,0.46 12.12,0.93 18.2,1a125.37,125.37 0 0 0 22.38,-1.95a2.44,2.44 0 0 0 1.78,-0.86a2.54,2.54 0 0 0 0.27,-1.42a109.38,109.38 0 0 0 -2.84,-22.56c-0.51,-2.22 -3.54,0.81 -5.24,2.73c-0.22,-1.11 -0.48,-2.21 -0.77,-3.28l1.33,-0.63a4.79,4.79 0 0 0 2.44,-2a4.89,4.89 0 0 0 0.26,-2.35c-0.24,-4.88 -0.54,-9.94 -2.86,-14.23a30.16,30.16 0 0 0 -5.66,-6.89c-0.69,-15.33 -2.19,-30.68 -5.54,-45.64c-1.72,-7.65 -3.85,-15.38 -8.27,-21.85c-0.55,-0.81 -1.15,-1.62 -1.75,-2.43a196.52,196.52 0 0 0 -2.67,-21.93a5.66,5.66 0 0 1 0,-2.92a9,9 0 0 1 1.61,-2.22c2.66,-3.43 1.57,-8.31 1.26,-12.65c-0.44,-6.24 1,-12.42 2.49,-18.5q2.72,-11.24 5.41,-22.49a36.43,36.43 0 0 1 1.9,-6.23c1.26,-2.82 3.21,-5.26 4.88,-7.86a44.33,44.33 0 0 0 6.78,-26.71c1,0.36 2,0.73 3.06,1.13c0.75,-6.28 -1.9,-13.41 0,-19.31a24.82,24.82 0 0 0 7.66,-9.12c1.48,-3.32 1.9,-7.06 3.45,-10.35c0.88,-1.85 2.11,-3.56 2.62,-5.55c0.77,-3 -0.19,-6.12 -0.15,-9.19c0.1,-6.69 5,-12.9 3.9,-19.51c-0.5,-3.14 -2.32,-6 -2.22,-9.23a15.45,15.45 0 0 1 1.29,-5c3.68,-9.75 7.31,-20.13 5.42,-30.39c-0.48,-2.62 -1.33,-5.23 -1.19,-7.9c0.16,-3.05 1.61,-6 1.18,-9.05a6.87,6.87 0 0 0 -1.36,-3.17a38,38 0 0 0 3.35,-6.42a9.19,9.19 0 0 0 0.89,-4.1a7.26,7.26 0 0 0 -2.89,-4.88a29.25,29.25 0 0 0 -5,-2.91a4.08,4.08 0 0 1 -1.47,-1.05a10.77,10.77 0 0 1 -0.83,-1.58c-1,-1.71 -3.13,-2.25 -4.82,-3.28c-6.1,-3.72 -5.51,-13.31 -10.72,-18.22a10.42,10.42 0 0 0 -13,-0.69a3.19,3.19 0 0 1 -1.84,0.91a3.53,3.53 0 0 1 -1.78,-1a7.17,7.17 0 0 0 -4.4,-1.22a42.21,42.21 0 0 1 -1.32,-11.67l0.47,0a6.17,6.17 0 0 0 1.82,-0.21c2.68,-0.77 4.21,-3.54 5.3,-6.12a46.5,46.5 0 0 0 2.35,-6.72c0.06,-0.22 0.11,-0.44 0.16,-0.65c5.13,3.6 11.09,7.37 12.51,6.58c2.63,-1.45 -11.75,-11.68 -11.75,-11.68l0,0l0,0c1.69,-1.5 2.63,-4.21 3,-6.6c0.84,-4.77 1.24,-9.73 0.12,-14.45s-3.95,-9.21 -8.25,-11.41c-1.9,-1 -4.21,-1.66 -5.59,-3.17l0,0a3.6,3.6 0 0 1 -0.54,-0.74l0,0a1.87,1.87 0 0 1 -0.22,-0.39a5.46,5.46 0 0 0 -0.6,-1.18c-0.79,-0.91 -2.22,-0.63 -3.41,-0.49l-0.38,0l-0.33,0l-0.32,0c-4.26,0.09 -8.39,-2.29 -12.7,-2.29c-4.73,0 -8.75,2.74 -12.91,4.62c-0.84,0.38 -1.64,0.73 -2.39,1.08c-2.6,1.22 -4.65,2.52 -6,5.45a8.45,8.45 0 0 0 -1.73,3.35a7.87,7.87 0 0 0 -0.22,1.72a28.61,28.61 0 0 0 12.86,48c0.1,0.28 0.2,0.56 0.29,0.84a24.07,24.07 0 0 1 1.25,8c0,0.19 0,0.38 0,0.57a21.71,21.71 0 0 0 -6.17,2.51a11.93,11.93 0 0 0 -5.2,6.39a6.18,6.18 0 0 0 -0.16,0.61a16.46,16.46 0 0 0 -4.7,-0.81c-1.45,0 -3.08,0.11 -4,1.21a3.69,3.69 0 0 0 -0.76,1.55c-0.55,0.51 -0.66,1.39 -1,2.06c-1.21,2.11 -4.33,1.42 -6.68,2c-2.55,0.63 -4.56,3 -7.19,3a12.28,12.28 0 0 0 -3,-0.11c-1,0.24 -1.76,1.59 -1,2.27a3.19,3.19 0 0 0 -3,1.45c-0.72,0.94 -1.2,2.06 -2,2.94a3.06,3.06 0 0 0 -3.12,-1.21a11.58,11.58 0 0 0 -3.29,1.3a4.73,4.73 0 0 1 -1.45,0.51a6.25,6.25 0 0 1 -1.77,-0.16a14.14,14.14 0 0 0 -8.28,1.16c-2.28,1.08 -4.47,-0.9 -7,-1.06a3.91,3.91 0 0 1 -2.56,-0.79a5,5 0 0 1 -1,-2a10,10 0 0 0 -7.32,-6.48a8.52,8.52 0 0 0 -5,-10.51a9.09,9.09 0 0 0 -3.12,-7.92a14.62,14.62 0 0 1 -1.58,-1.24a7.58,7.58 0 0 1 -1.45,-2.68l-2.22,-5.88c-1,-0.2 -1.75,-0.61 -2.68,-0.77c0,-0.19 0,-0.39 0,-0.6a19.28,19.28 0 0 0 -1,-5.9a33.05,33.05 0 0 0 -4.74,-8.63c-2.12,-3 -4.47,-5.87 -7.62,-7.66a27.33,27.33 0 0 0 -3.25,-1.5l-5.72,-2.36a2.78,2.78 0 0 0 -1,-0.28c-1.54,0 -1.82,2.38 -1,3.65c1.74,2.57 5.66,3.29 6.77,6.2a4.41,4.41 0 0 0 -4.09,3.18a2.23,2.23 0 0 1 -0.55,1.29c-0.5,0.41 -1.29,0.17 -1.87,0.48c-1,0.55 -0.57,2.07 -0.68,3.22a15.46,15.46 0 0 1 -1,2.9a6.21,6.21 0 0 0 0.89,5.22zm137.12,401c0,-0.59 -0.08,-1.18 -0.13,-1.76c0.12,0.31 0.23,0.63 0.35,0.94c1,2.64 2.13,5.24 3.31,7.81l-0.2,-0.11a9.88,9.88 0 0 0 -2.73,-0.78c-0.25,0 -0.51,0 -0.76,-0.07a21.32,21.32 0 0 0 0.16,-6.01l0,-0.02z"/>
  <path id="svg_48" fill="#ee8e9e" d="m733.28,386.26c-0.11,4.18 -1.52,8.22 -1.74,12.39c12.29,0.61 24.42,-5.35 36.6,-3.53c-3.4,-2.2 -5.22,-6.17 -6.3,-10.08a42.07,42.07 0 0 1 -1.2,-15.48a6.37,6.37 0 0 1 0.16,-0.86c0.45,-2 1.62,-4.93 1.3,-6.54c-0.41,-2.12 -2.41,-1.7 -4.22,-1.58a159,159 0 0 0 -16.41,2.12c-1.41,0.24 -15.2,3.68 -15.4,3.32a64.79,64.79 0 0 1 6,12.29a23.87,23.87 0 0 1 1.21,7.95z"/>
  <path id="svg_49" fill="#ee8e9e" d="m611.66,373.36a18,18 0 0 0 3.76,3.78c0.93,0.77 1.89,1.55 2.89,2.25a12.35,12.35 0 0 0 6.15,2.5c2.93,0.2 9.14,-1.52 11,-4a7.22,7.22 0 0 0 1.05,-4.2a19.07,19.07 0 0 0 -1,-5.87a32.76,32.76 0 0 0 -4.74,-8.58c-2.12,-2.94 -4.47,-5.84 -7.62,-7.62a29,29 0 0 0 -3.25,-1.5l-5.72,-2.34a2.78,2.78 0 0 0 -1,-0.28c-1.54,0 -1.82,2.36 -1,3.63c1.74,2.56 5.66,3.27 6.77,6.17a4.39,4.39 0 0 0 -4.09,3.16a2.2,2.2 0 0 1 -0.55,1.28c-0.5,0.41 -1.29,0.18 -1.87,0.48c-1,0.55 -0.57,2.06 -0.68,3.21a15.53,15.53 0 0 1 -1,2.88a6.14,6.14 0 0 0 0.9,5.05z"/>
  <path id="svg_50" fill="#65617d" d="m781.18,792.03c-0.94,-1 -2.49,-0.79 -3.81,-0.58a141.46,141.46 0 0 1 -21.45,1.74c-0.9,-4.39 1.71,-8.66 2.55,-13.07a11.54,11.54 0 0 1 0.85,-3.3c1,-1.94 3.29,-2.83 5.43,-3.28c3.87,-0.81 9.91,-2.25 12.07,1.65c2.59,4.69 3.42,11.62 4.36,16.84z"/>
  <path id="svg_51" fill="#3f3d56" d="m702.59,775.42c2.91,2 6.53,2.61 10,3.06s7.12,0.79 10.29,2.35c2.74,1.35 5.05,3.57 8,4.54a16.57,16.57 0 0 0 8.25,0.13c3.26,-0.61 6.73,-1.8 8.49,-4.61c1.56,-2.5 1.4,-5.68 1.18,-8.62c-0.25,-3.33 -0.49,-6.66 -0.74,-10a4.73,4.73 0 0 0 -0.62,-2.41c-2.35,-3.44 -8.08,1.43 -11.15,1.43c-4.86,0 -10.07,-2.64 -13.57,-5.86a4.35,4.35 0 0 0 -1.06,-0.8c-1.38,-0.62 -2.77,0.53 -4,1.53l-0.41,0.34c-2.84,2.25 -6.65,2.71 -10.15,3.62s-7.27,2.74 -8.35,6.2a5.33,5.33 0 0 0 -0.17,0.66c-0.66,3.21 1.28,6.59 4.01,8.44z"/>
  <path id="svg_52" opacity="0.05" d="m702.59,775.42c2.91,2 6.53,2.61 10,3.06s7.12,0.79 10.29,2.35c2.74,1.35 5.05,3.57 8,4.54a16.57,16.57 0 0 0 8.25,0.13c3.26,-0.61 6.73,-1.8 8.49,-4.61c1.56,-2.5 1.4,-5.68 1.18,-8.62c-0.25,-3.33 -0.49,-6.66 -0.74,-10a4.73,4.73 0 0 0 -0.62,-2.41c-2.35,-3.44 -8.08,1.43 -11.15,1.43c-4.86,0 -10.07,-2.64 -13.57,-5.86a4.35,4.35 0 0 0 -1.06,-0.8c-1.38,-0.62 -2.77,0.53 -4,1.53l-0.41,0.34c-2.84,2.25 -6.65,2.71 -10.15,3.62s-7.27,2.74 -8.35,6.2a5.33,5.33 0 0 0 -0.17,0.66c-0.66,3.21 1.28,6.59 4.01,8.44z"/>
  <path id="svg_53" fill="#e8eaf2" d="m702.59,776.56c2.91,2 6.53,2.61 10,3.06s7.12,0.79 10.29,2.35c2.74,1.35 5.05,3.57 8,4.54a16.57,16.57 0 0 0 8.25,0.13a13.63,13.63 0 0 0 8.49,-5.73c1.56,-2.5 1.4,-5.68 1.18,-8.62c-0.25,-3.33 -0.49,-6.66 -0.74,-10a4.73,4.73 0 0 0 -0.62,-2.41c-2.35,-3.44 -8.08,1.43 -11.15,1.43c-4.86,0 -10.07,-2.64 -13.57,-5.86a4.35,4.35 0 0 0 -1.06,-0.8c-1.38,-0.62 -2.77,0.53 -4,1.53a28.61,28.61 0 0 0 3.41,7a14.71,14.71 0 0 0 10.7,6.7c2.17,0.16 4.4,-0.27 6.5,0.29s4,2.7 3.31,4.75s-3.29,2.42 -5.41,2.53c-3,0.17 -6,0.31 -8.83,-0.61c-1.72,-0.58 -3.29,-1.53 -5,-2.22c-7.12,-3 -16.11,-1.3 -22,-6.29a13.23,13.23 0 0 0 -1.8,-1.38c-1.54,3.28 1.32,7.74 4.05,9.61z"/>
  <path id="svg_54" opacity="0.05" d="m702.59,776.56c2.91,2 6.53,2.61 10,3.06s7.12,0.79 10.29,2.35c2.74,1.35 5.05,3.57 8,4.54a16.57,16.57 0 0 0 8.25,0.13a13.63,13.63 0 0 0 8.49,-5.73c1.56,-2.5 1.4,-5.68 1.18,-8.62c-0.25,-3.33 -0.49,-6.66 -0.74,-10a4.73,4.73 0 0 0 -0.62,-2.41c-2.35,-3.44 -8.08,1.43 -11.15,1.43c-4.86,0 -10.07,-2.64 -13.57,-5.86a4.35,4.35 0 0 0 -1.06,-0.8c-1.38,-0.62 -2.77,0.53 -4,1.53a28.61,28.61 0 0 0 3.41,7a14.71,14.71 0 0 0 10.7,6.7c2.17,0.16 4.4,-0.27 6.5,0.29s4,2.7 3.31,4.75s-3.29,2.42 -5.41,2.53c-3,0.17 -6,0.31 -8.83,-0.61c-1.72,-0.58 -3.29,-1.53 -5,-2.22c-7.12,-3 -16.11,-1.3 -22,-6.29a13.23,13.23 0 0 0 -1.8,-1.38c-1.54,3.28 1.32,7.74 4.05,9.61z"/>
  <path id="svg_55" fill="#303d5c" d="m779.85,558.68a43.77,43.77 0 0 1 -6,32.3c-1.67,2.59 -3.62,5 -4.88,7.82a36.11,36.11 0 0 0 -1.9,6.2l-5.41,22.42c-1.46,6 -2.93,12.2 -2.49,18.4c0.31,4.32 1.4,9.17 -1.26,12.59a9,9 0 0 0 -1.61,2.2a5.63,5.63 0 0 0 0,2.91c2.74,16.24 4.76,33.23 -0.18,48.94c-4.47,14.24 -4.73,30 -8.54,44.46c-0.47,1.79 -1,3.67 -2.36,4.93a7.81,7.81 0 0 1 -3.55,1.69c-5.61,1.33 -11.53,-0.23 -16.76,-2.66c-3.68,-1.7 -7.64,-4.69 -7.32,-8.73c0.15,-1.92 1.27,-3.61 2,-5.38c1.5,-3.47 1.62,-7.35 2,-11.11c1,-9.44 3.92,-18.55 6.12,-27.79s3.7,-18.89 1.84,-28.2a246.83,246.83 0 0 0 -18.15,-55.81a6.53,6.53 0 0 0 -1.66,-2.49a17.72,17.72 0 0 1 -2.35,-1.61a7.07,7.07 0 0 1 -1.07,-2.93c-0.82,-2.94 -3.25,-5.12 -4.88,-7.7c-4.12,-6.54 -2.81,-14.92 -2.66,-22.64c0.15,-7.51 -0.93,-15.08 0.3,-22.49s5.47,-15 12.61,-17.3c3.54,-1.15 7.37,-0.89 11.07,-0.52c19.63,1.89 38.69,5.45 57.09,12.5z"/>
  <path id="svg_56" opacity="0.05" d="m779.85,558.68a43.77,43.77 0 0 1 -6,32.3c-1.67,2.59 -3.62,5 -4.88,7.82a36.11,36.11 0 0 0 -1.9,6.2l-5.41,22.42c-1.46,6 -2.93,12.2 -2.49,18.4c0.31,4.32 1.4,9.17 -1.26,12.59a9,9 0 0 0 -1.61,2.2a5.63,5.63 0 0 0 0,2.91c2.74,16.24 4.76,33.23 -0.18,48.94c-4.47,14.24 -4.73,30 -8.54,44.46c-0.47,1.79 -1,3.67 -2.36,4.93a7.81,7.81 0 0 1 -3.55,1.69c-5.61,1.33 -11.53,-0.23 -16.76,-2.66c-3.68,-1.7 -7.64,-4.69 -7.32,-8.73c0.15,-1.92 1.27,-3.61 2,-5.38c1.5,-3.47 1.62,-7.35 2,-11.11c1,-9.44 3.92,-18.55 6.12,-27.79s3.7,-18.89 1.84,-28.2a246.83,246.83 0 0 0 -18.15,-55.81a6.53,6.53 0 0 0 -1.66,-2.49a17.72,17.72 0 0 1 -2.35,-1.61a7.07,7.07 0 0 1 -1.07,-2.93c-0.82,-2.94 -3.25,-5.12 -4.88,-7.7c-4.12,-6.54 -2.81,-14.92 -2.66,-22.64c0.15,-7.51 -0.93,-15.08 0.3,-22.49s5.47,-15 12.61,-17.3c3.54,-1.15 7.37,-0.89 11.07,-0.52c19.63,1.89 38.69,5.45 57.09,12.5z"/>
  <path id="svg_57" fill="#303d5c" d="m700,605.76a47,47 0 0 0 1,8.68q5.19,29.09 11,58c0.35,1.68 0.68,3.35 1.13,5a40.65,40.65 0 0 0 7.49,14.73c16.3,20.31 17.71,49.81 26.55,74.3c0.59,1.66 1.19,3.32 1.82,5a123.85,123.85 0 0 0 5.46,12.17a3.43,3.43 0 0 0 1.12,1.45a3.35,3.35 0 0 0 1.78,0.35a51.85,51.85 0 0 0 23,-5.23a4.76,4.76 0 0 0 2.44,-2a4.87,4.87 0 0 0 0.26,-2.34c-0.24,-4.85 -0.54,-9.89 -2.86,-14.15a30,30 0 0 0 -5.66,-6.86c-0.69,-15.25 -2.19,-30.52 -5.54,-45.4c-1.72,-7.61 -3.85,-15.3 -8.27,-21.74c-3.26,-4.75 -7.93,-9.43 -7.36,-15.16c0.26,-2.52 1.31,-5.65 -0.74,-7.13c-0.89,-0.65 -2.22,-0.73 -2.82,-1.66a3.06,3.06 0 0 1 -0.4,-1.42a35.23,35.23 0 0 1 0.73,-11.76a63.32,63.32 0 0 0 1.75,-7.66c0.26,-2.62 -0.18,-5.45 -1.93,-7.4c-0.11,-5.23 0,-10.66 -0.07,-15.89a29.61,29.61 0 0 1 0.74,-8.87c0.39,-1.37 1,-2.68 1.3,-4.08c1.1,-5 -1.63,-11 1.62,-15c1.35,-1.66 3.44,-2.48 5.21,-3.68c3.55,-2.36 5.87,-6.23 7.16,-10.29a56.84,56.84 0 0 0 2,-12.6a13.13,13.13 0 0 0 0,-2.73a5.09,5.09 0 0 0 -0.37,-1.36c-1,-2.27 -3.72,-3.15 -6.14,-3.73a198.59,198.59 0 0 0 -46.9,-5.48c-5.84,-4 -9.13,-2.56 -11.6,1.66a42.75,42.75 0 0 0 -3.31,8.07c-1.13,3.41 -1.2,22.55 -2.3,26c-1.4,4.41 2.71,13.53 2.71,18.21z"/>
  <path id="svg_58" fill="#3f3d56" d="m805.62,431.63c0.43,3 -1,6 -1.18,9c-0.14,2.66 0.71,5.25 1.19,7.86c1.89,10.2 -1.74,20.53 -5.42,30.23a15.28,15.28 0 0 0 -1.29,5c-0.1,3.16 1.72,6.06 2.22,9.19c1.05,6.57 -3.8,12.75 -3.9,19.4c0,3.06 0.92,6.18 0.15,9.14c-0.51,2 -1.74,3.68 -2.62,5.53c-1.55,3.27 -2,7 -3.45,10.29c-2.68,6 -8.44,9.87 -13.91,13.45c-3.12,-1 -6.49,-2.27 -8.2,-5.07a12.55,12.55 0 0 1 -1.43,-4.46c-1.19,-6.8 -1.15,-13.75 -1.1,-20.65a128.77,128.77 0 0 1 0.94,-17.79c1.11,-7.5 3.54,-14.73 5.29,-22.11c2.2,-9.31 3.33,-18.93 6.76,-27.86c3,-7.84 7.71,-14.89 12.66,-21.63c1.88,-2.58 3.37,-6.25 7,-5.66a7.69,7.69 0 0 1 6.29,6.14z"/>
  <path id="svg_59" opacity="0.05" d="m805.62,431.63c0.43,3 -1,6 -1.18,9c-0.14,2.66 0.71,5.25 1.19,7.86c1.89,10.2 -1.74,20.53 -5.42,30.23a15.28,15.28 0 0 0 -1.29,5c-0.1,3.16 1.72,6.06 2.22,9.19c1.05,6.57 -3.8,12.75 -3.9,19.4c0,3.06 0.92,6.18 0.15,9.14c-0.51,2 -1.74,3.68 -2.62,5.53c-1.55,3.27 -2,7 -3.45,10.29c-2.68,6 -8.44,9.87 -13.91,13.45c-3.12,-1 -6.49,-2.27 -8.2,-5.07a12.55,12.55 0 0 1 -1.43,-4.46c-1.19,-6.8 -1.15,-13.75 -1.1,-20.65a128.77,128.77 0 0 1 0.94,-17.79c1.11,-7.5 3.54,-14.73 5.29,-22.11c2.2,-9.31 3.33,-18.93 6.76,-27.86c3,-7.84 7.71,-14.89 12.66,-21.63c1.88,-2.58 3.37,-6.25 7,-5.66a7.69,7.69 0 0 1 6.29,6.14z"/>
  <path id="svg_60" opacity="0.1" d="m726.07,366.02a64.79,64.79 0 0 1 6,12.29a28.16,28.16 0 0 0 6.78,0.82c8.86,0 15.14,-5 20.35,-11.41c0.45,-2 3.26,-3.95 2.94,-5.56c-0.41,-2.12 -2.41,-1.7 -4.22,-1.58a159,159 0 0 0 -16.41,2.12c-1.45,0.24 -15.24,3.72 -15.44,3.32z"/>
  <circle id="svg_61" fill="#ee8e9e" r="28.4" cy="349.96" cx="738.81"/>
  <path id="svg_62" opacity="0.1" d="m702.93,553.42c4.91,-0.29 9.86,-0.1 14.79,0.1a51.43,51.43 0 0 1 9.19,0.94c3.73,0.85 7.22,2.55 10.9,3.61c5.89,1.72 12.1,1.79 18.21,2.4a104.7,104.7 0 0 1 11.92,1.86a5.09,5.09 0 0 0 -0.37,-1.36c-1,-2.27 -3.72,-3.15 -6.14,-3.73a198.59,198.59 0 0 0 -46.9,-5.48c-5.84,-3.96 -9.13,-2.54 -11.6,1.66z"/>
  <path id="svg_63" fill="#3f3d56" d="m722.28,396.42c1.24,1.43 2.9,3 4.74,2.54a6.54,6.54 0 0 0 1.84,-1c3.27,-2.11 7.29,-2.61 11.14,-3.19a163.72,163.72 0 0 0 23,-5.16a23.45,23.45 0 0 1 6.79,-1.38c4.81,0 9.08,3.23 12.09,7s5.12,8.19 8.12,11.98c2.11,2.7 4.62,5.08 6.59,7.89c5,7.09 6,16.34 4.75,24.9s-4.7,16.64 -8.09,24.6a84.79,84.79 0 0 1 -6.61,13.33c1.14,6.5 0.54,13.94 -2.55,19.78c-1,1.9 -2.24,3.75 -2.58,5.88a14.86,14.86 0 0 0 0.18,4.31l1.45,10.28c0.44,3.13 0.88,6.27 1.45,9.38c1,5.69 2.46,11.86 -0.18,17c-3.16,6.16 0.16,14.07 -0.67,21a105.43,105.43 0 0 0 -27.74,-6.61c-6.1,-0.59 -12.31,-0.67 -18.2,-2.38c-3.68,-1.07 -7.17,-2.77 -10.9,-3.62a50.52,50.52 0 0 0 -9.19,-0.94c-6.81,-0.27 -13.66,-0.54 -20.39,0.46c-0.55,0.08 -1.21,0.12 -1.54,-0.32a1.47,1.47 0 0 1 -0.21,-0.8a13.62,13.62 0 0 1 1.75,-7.23c0.85,-1.52 2,-3 2,-4.74a7,7 0 0 0 -0.59,-2.36l-3,-8c-2.52,-6.72 -1.32,-14.52 -2.63,-21.58a126.42,126.42 0 0 1 -2,-16.69c-0.24,-4.79 -0.09,-10 2.8,-13.81a15.73,15.73 0 0 0 2.18,-3a9.25,9.25 0 0 0 0.52,-3.63q0.09,-14.37 -0.79,-28.73c2.52,-4.53 5.15,-9.16 7.67,-13.68c2.93,-5.27 5.9,-10.64 7.09,-16.55c0.78,-3.92 0.75,-7.95 1.31,-11.9a5.18,5.18 0 0 1 1,-2.77c1,-1.09 2.59,-1.25 4,-1.2a17.65,17.65 0 0 1 5.4,0.94z"/>
  <path id="svg_64" opacity="0.1" d="m618.31,379.42a12.35,12.35 0 0 0 6.15,2.5c2.93,0.2 9.14,-1.52 11,-4a7.22,7.22 0 0 0 1.05,-4.2a5.18,5.18 0 0 0 -1.22,-0.23a32,32 0 0 0 -9.53,0.38c-3.1,0.76 -6.09,2.64 -7.4,5.55c-0.04,0 -0.04,0 -0.05,0z"/>
  <path id="svg_65" fill="#3f3d56" d="m712.79,440.81c-1.72,2.16 -3.53,4.37 -6,5.65c-2.82,1.46 -6.14,1.49 -9.32,1.43a223.68,223.68 0 0 1 -39,-4.28a24.47,24.47 0 0 1 -4.29,-1.15a22.74,22.74 0 0 1 -4.33,-2.71c-4.23,-3 -8.51,-6.13 -11.73,-10.22a34.49,34.49 0 0 1 -6.95,-17.05c-3.05,-2.81 -4.67,-6.81 -6.2,-10.68a16.12,16.12 0 0 1 -1.42,-5.18c-0.08,-1.84 1.14,-3.77 0.8,-5.58a14.69,14.69 0 0 0 -4.51,-8.1a3,3 0 0 1 -1.07,-1.43a2.24,2.24 0 0 1 0.26,-1.38c1.3,-2.92 4.29,-4.8 7.39,-5.56a32.07,32.07 0 0 1 9.54,-0.38a22.13,22.13 0 0 1 3.12,0.83l2.22,5.85a7.54,7.54 0 0 0 1.45,2.67a14.53,14.53 0 0 0 1.58,1.23a9,9 0 0 1 3.12,7.88a8.47,8.47 0 0 1 5,10.46a10,10 0 0 1 7.32,6.44a4.88,4.88 0 0 0 1,2a3.91,3.91 0 0 0 2.56,0.79c2.51,0.15 4.7,2.13 7,1.06a14.14,14.14 0 0 1 8.28,-1.16a6.24,6.24 0 0 0 1.77,0.15a4.46,4.46 0 0 0 1.45,-0.5a11.88,11.88 0 0 1 3.29,-1.3a3.08,3.08 0 0 1 3.12,1.21c0.8,-0.87 1.28,-2 2,-2.92a3.21,3.21 0 0 1 3,-1.45c-0.76,-0.67 0,-2 1,-2.26a13.35,13.35 0 0 1 3,0.11c2.63,0 4.64,-2.4 7.19,-3c2.35,-0.58 5.47,0.11 6.68,-2c0.42,-0.74 0.51,-1.74 1.23,-2.2a2.4,2.4 0 0 1 1.59,-0.18a15.53,15.53 0 0 1 4.79,1.45c2.46,9.62 1.17,19.61 -0.71,29.36a25.75,25.75 0 0 1 -5.22,12.1z"/>
  <path id="svg_66" opacity="0.1" d="m712.87,475.28l12.23,24.66c-1.32,-2.28 -4.11,-3.17 -6.31,-4.63a16.78,16.78 0 0 1 -6,-8.1a50,50 0 0 1 -2.31,-10c-0.25,-1.57 -0.76,-3.76 0,-5.18c1.36,0.3 1.81,2.09 2.39,3.25z"/>
  <path id="svg_67" opacity="0.1" d="m748.06,496.22c2.76,2.73 6.13,4.74 9.17,7.16c7.09,5.65 12.15,13.39 17.09,21a33.92,33.92 0 0 1 3.49,6.36c-0.58,0.5 -1.45,0 -2,-0.52l-9.6,-8.44a21.31,21.31 0 0 1 -3.2,-3.24c-1.67,-2.25 -2.41,-5 -3.92,-7.4a29.13,29.13 0 0 0 -5.84,-6c-2.2,-1.89 -12.34,-10.46 -9.87,-13.79c1.76,0.95 3.22,3.42 4.68,4.87z"/>
  <path id="svg_68" fill="#3f3d56" d="m727.07,389.33c3,-1.9 6.64,-2.7 10.17,-3.35a21.31,21.31 0 0 1 6.46,-0.46c2,0.25 3.92,1 5.93,1.13c2.83,0.16 5.54,-1 8.26,-1.73s5.88,-1 8.18,0.61a3.46,3.46 0 0 0 1.78,0.95a3.17,3.17 0 0 0 1.84,-0.9a10.46,10.46 0 0 1 13,0.69c5.21,4.88 4.62,14.42 10.72,18.12c1.69,1 3.84,1.56 4.82,3.27a11.77,11.77 0 0 0 0.83,1.57a4.18,4.18 0 0 0 1.47,1a29.15,29.15 0 0 1 5,2.89a7.22,7.22 0 0 1 2.89,4.86a9.11,9.11 0 0 1 -0.89,4.08a38.29,38.29 0 0 1 -37.21,23.79a5.88,5.88 0 0 1 -3.9,-1.21a7.39,7.39 0 0 1 -1.37,-2.25c-2.87,-6 -8.25,-10.46 -11.68,-16.18c-2,-3.41 -3.34,-7.22 -5.47,-10.57c-3.21,-5.09 -8.11,-8.85 -12.9,-12.5c-2.7,-2.06 -5.71,-4.22 -9.1,-4.07c-3,0.13 -5.22,0.29 -4.11,-3.42a11.86,11.86 0 0 1 5.28,-6.32z"/>
  <path id="svg_69" opacity="0.05" d="m727.07,389.33c3,-1.9 6.64,-2.7 10.17,-3.35a21.31,21.31 0 0 1 6.46,-0.46c2,0.25 3.92,1 5.93,1.13c2.83,0.16 5.54,-1 8.26,-1.73s5.88,-1 8.18,0.61a3.46,3.46 0 0 0 1.78,0.95a3.17,3.17 0 0 0 1.84,-0.9a10.46,10.46 0 0 1 13,0.69c5.21,4.88 4.62,14.42 10.72,18.12c1.69,1 3.84,1.56 4.82,3.27a11.77,11.77 0 0 0 0.83,1.57a4.18,4.18 0 0 0 1.47,1a29.15,29.15 0 0 1 5,2.89a7.22,7.22 0 0 1 2.89,4.86a9.11,9.11 0 0 1 -0.89,4.08a38.29,38.29 0 0 1 -37.21,23.79a5.88,5.88 0 0 1 -3.9,-1.21a7.39,7.39 0 0 1 -1.37,-2.25c-2.87,-6 -8.25,-10.46 -11.68,-16.18c-2,-3.41 -3.34,-7.22 -5.47,-10.57c-3.21,-5.09 -8.11,-8.85 -12.9,-12.5c-2.7,-2.06 -5.71,-4.22 -9.1,-4.07c-3,0.13 -5.22,0.29 -4.11,-3.42a11.86,11.86 0 0 1 5.28,-6.32z"/>
  <path id="svg_70" fill="#3f3d56" d="m712.29,800.94c2.06,1.92 4.89,2.76 7.64,3.36a138.94,138.94 0 0 0 19,2.34l6.21,0.48c6,0.46 12.12,0.92 18.2,0.95a125.36,125.36 0 0 0 22.38,-1.94a2.44,2.44 0 0 0 1.78,-0.86a2.49,2.49 0 0 0 0.27,-1.41a108.32,108.32 0 0 0 -2.77,-22.44c-0.7,-3 -6.13,3.76 -6.38,4c-1.5,1.71 -2.64,2.5 -4.93,2.62c-6.25,0.34 -13.24,-3.46 -18.21,-6.84a23,23 0 0 0 -3.37,-2.09a10.24,10.24 0 0 0 -2.73,-0.78a16.51,16.51 0 0 0 -9.29,1.89c-3.74,1.85 -7,4.51 -10.7,6.41a30.09,30.09 0 0 1 -9.59,3c-3.38,0.46 -7.42,0.69 -9.16,3.62c0,0 0,0 0,0c-1.43,2.5 -0.4,5.78 1.65,7.69z"/>
  <path id="svg_71" fill="#e8eaf2" d="m712.29,802.06c2.06,1.92 4.89,2.76 7.64,3.35a137.41,137.41 0 0 0 19,2.35l6.21,0.48c6,0.46 12.12,0.92 18.2,0.95a125.36,125.36 0 0 0 22.38,-1.94a2.44,2.44 0 0 0 1.78,-0.86a10,10 0 0 0 1.39,-2.53c-0.13,-7.56 -2.18,-15.1 -3.88,-22.47c-0.7,-3 -6.13,3.76 -6.38,4c-1.5,1.71 -2.64,2.5 -4.93,2.62c-6.25,0.34 -13.24,-3.46 -18.21,-6.84a23,23 0 0 0 -3.37,-2.09a10.24,10.24 0 0 0 -2.73,-0.78c0.8,4.5 7.25,9.93 10.58,11.58c6.73,3.34 14.73,1.68 22.24,2.07a3,3 0 0 1 1.57,0.38c0.9,0.6 1,1.87 0.93,2.95c-0.06,1.79 -0.29,3.9 -1.85,4.81a5.38,5.38 0 0 1 -2.49,0.52a351.81,351.81 0 0 1 -55.45,-2a30.2,30.2 0 0 1 -9,-2a23.77,23.77 0 0 1 -5.24,-3.37c-2.41,1.95 -0.44,6.91 1.61,8.82z"/>
  <path id="svg_72" fill="#3f3d56" d="m727.76,349.66c0.11,2.93 -1.9,8.63 3.59,7c3.28,-0.95 4.2,-4.82 8.35,-4s5.11,6 6.52,9.33a17.88,17.88 0 0 0 12.94,10.46a7.78,7.78 0 0 0 3.56,0c2.68,-0.77 4.21,-3.53 5.3,-6.09a46.43,46.43 0 0 0 2.35,-6.68a28.34,28.34 0 0 0 0.85,-4.91l0,0a22.57,22.57 0 0 0 0,-3.39c-0.5,-6.68 -4.3,-12.77 -9.17,-17.37s-10.77,-7.93 -16.61,-11.21a24.13,24.13 0 0 0 -6.12,-2.73a20.34,20.34 0 0 0 -6.47,-0.27a22.68,22.68 0 0 0 -8.23,1.93a11.51,11.51 0 0 0 -2.9,2a8.71,8.71 0 0 0 -2.51,4.19c-1.05,4.31 1.7,8.2 3.93,11.61c2.01,3.14 4.47,6.35 4.62,10.13z"/>
  <path id="svg_73" opacity="0.1" d="m635.35,412.69c1.17,-3 6.1,-11.14 4.68,-14a37.42,37.42 0 0 0 -3.76,6.71c-0.93,2.33 -0.17,5.4 -0.92,7.29z"/>
  <path id="svg_74" opacity="0.1" d="m723,339.64c-2.24,-3.41 -5,-7.3 -3.94,-11.61a9,9 0 0 1 3.2,-4.78a7.63,7.63 0 0 0 -0.81,2c-1.06,4.32 1.7,8.2 3.93,11.61c2,3 4.45,6.25 4.6,10c0.11,2.94 -1.9,8.64 3.6,7c3.27,-0.95 4.19,-4.83 8.35,-4s5.1,6 6.51,9.33a17.87,17.87 0 0 0 12.94,10.45a7.78,7.78 0 0 0 3.56,0a5.26,5.26 0 0 0 1.68,-0.82a7.27,7.27 0 0 1 -4.06,3.59a7.78,7.78 0 0 1 -3.56,0a17.9,17.9 0 0 1 -12.95,-10.46c-1.4,-3.35 -2.32,-8.45 -6.51,-9.33s-5.08,3 -8.35,4c-5.5,1.59 -3.49,-4.11 -3.6,-7c-0.1,-3.74 -2.59,-6.95 -4.59,-9.98z"/>
  <path id="svg_75" opacity="0.1" d="m721.82,333.8a25.38,25.38 0 0 0 1.69,2.41a28.89,28.89 0 0 0 3.88,4c0.84,0.73 1.71,1.41 2.62,2.06a41.86,41.86 0 0 0 5.3,3.16c5.37,2.71 11.19,4.41 17,6.08l11.34,3.3c1.39,1 3.94,2.95 6.75,4.92a28.34,28.34 0 0 0 0.85,-4.91l0,0a22.57,22.57 0 0 0 0,-3.39c-0.5,-6.68 -4.3,-12.77 -9.17,-17.37s-10.77,-7.93 -16.61,-11.21a24.13,24.13 0 0 0 -6.12,-2.73a20.34,20.34 0 0 0 -6.47,-0.27a22.68,22.68 0 0 0 -8.23,1.93a11.51,11.51 0 0 0 -2.9,2a11.1,11.1 0 0 0 -1.45,3.07c-0.73,2.39 0.25,4.89 1.52,6.95z"/>
  <path id="svg_76" fill="#0ccc88" d="m721.82,333.04a25.24,25.24 0 0 0 1.69,2.4a27.83,27.83 0 0 0 3.88,4a30.4,30.4 0 0 0 2.61,2.08a43.15,43.15 0 0 0 5.3,3.17c5.37,2.7 11.19,4.4 17,6.08l11.34,3.29c4,3 17.2,12.81 19.42,11.58c2.63,-1.44 -11.75,-11.62 -11.75,-11.62l-0.66,0.5c2.11,-1.32 3.21,-4.39 3.68,-7c0.84,-4.75 1.24,-9.68 0.12,-14.38s-3.95,-9.15 -8.25,-11.35c-1.9,-1 -4.21,-1.64 -5.59,-3.15a3.83,3.83 0 0 1 -0.54,-0.73a2.56,2.56 0 0 1 -0.22,-0.39a5.16,5.16 0 0 0 -0.6,-1.17c-0.79,-0.91 -2.22,-0.64 -3.41,-0.49c-0.13,0 -0.25,0 -0.38,0a4.72,4.72 0 0 1 -0.65,0c-4.26,0.1 -8.39,-2.27 -12.7,-2.27c-4.73,0 -8.75,2.73 -12.91,4.59c-0.84,0.38 -1.64,0.73 -2.39,1.08c-3,1.4 -5.26,2.89 -6.5,6.87c-0.74,2.34 0.24,4.84 1.51,6.91z"/>
  <path id="svg_77" opacity="0.1" d="m754.79,315.88a2.07,2.07 0 0 0 -0.26,1a2,2 0 0 0 0.71,1.53a3.51,3.51 0 0 0 1.79,0.63a13,13 0 0 0 1.4,0.11a3.75,3.75 0 0 0 1.84,-0.31a2.2,2.2 0 0 0 0.32,-0.21a3.83,3.83 0 0 1 -0.54,-0.73c-0.11,0.08 -0.22,0.06 -0.64,0a10.54,10.54 0 0 1 -2.3,-0.39a2.65,2.65 0 0 1 -0.86,-0.42a2.52,2.52 0 0 1 -0.81,-1.24l-0.65,0.03z"/>
  <path id="svg_78" opacity="0.1" d="m771,353.91a5.4,5.4 0 0 1 -2,0.73a7.89,7.89 0 0 1 -1.52,0.24a8.42,8.42 0 0 1 -3.72,-1"/>
  <rect id="svg_79" opacity="0.1" fill="#3f3d56" height="25.38" width="51.73" y="340.99" x="201.28"/>
  <rect id="svg_80" opacity="0.1" fill="#3f3d56" height="25.38" width="51.73" y="412.24" x="201.28"/>
  <rect id="svg_81" opacity="0.1" fill="#3f3d56" height="25.38" width="51.73" y="483.49" x="201.28"/>
  <rect id="svg_82" opacity="0.1" fill="#3f3d56" height="25.38" width="51.73" y="554.74" x="201.28"/>
  <path id="svg_83" fill="url(#b2e6dffe-26e9-4285-a3da-2186fa2c443c)" d="m358.42,404.64c1.44,-0.92 0.87,-3.38 -0.62,-4.22s-3.33,-0.58 -5,-0.24a2,2 0 0 0 -1.07,-2.15l0,-0.37c1,-0.94 0.6,-2.94 -0.58,-3.79s-3,-0.9 -4.66,-0.82a6.18,6.18 0 0 0 -2,-5.27a1.65,1.65 0 0 0 -1.08,-0.52c-0.93,0 -1.24,1.25 -1.31,2.18a43.06,43.06 0 0 1 -1.2,7.21l-30.31,50.77c-3.38,4.88 7.12,-9.72 3.74,-4.84a43.72,43.72 0 0 1 -6,7.42a29.48,29.48 0 0 1 -6.75,4.51a7.94,7.94 0 0 1 -4.61,-1.3a18.65,18.65 0 0 1 -4.43,-4.39a86.62,86.62 0 0 1 -7.15,-10.63a13.34,13.34 0 0 1 -1.64,-3.8c-0.46,-2.1 0,-4.39 -0.84,-6.36a9.87,9.87 0 0 0 -1.3,-2.07l-2.09,-2.79a0.49,0.49 0 0 1 0,-0.12c-0.24,-4.13 -3.58,-7.3 -6.7,-10c-2.66,-2.32 -5.54,-4.74 -9,-5.19c-1.88,-0.24 -3.8,0.12 -5.68,-0.12c-1.53,-0.19 -3,-0.77 -4.5,-1a19.78,19.78 0 0 0 -4.42,-0.09l-0.63,-0.57a17.56,17.56 0 0 0 7.9,-6.64c1.45,-2.34 2.23,-5 3.57,-7.43c1.63,-2.93 4,-5.35 5.89,-8.16c4.36,-6.67 5.16,-15.25 3.4,-23s-5.91,-14.82 -10.78,-21.12c-9.37,-12.12 -25.09,-16.62 -39.89,-14.24c-1,0.15 -2,0.34 -2.95,0.55a37.38,37.38 0 0 0 -7.25,2.32a18.39,18.39 0 0 0 -7.91,6.17a13.38,13.38 0 0 0 -1.38,2.56a14.63,14.63 0 0 0 -0.67,2.1a21.72,21.72 0 0 0 -0.36,6.6c0.06,0.75 0.14,1.51 0.23,2.26c0,0.38 0.09,0.75 0.14,1.13c0.1,0.75 0.21,1.51 0.31,2.26c0.16,1.13 0.31,2.26 0.42,3.37a21.08,21.08 0 0 1 0.12,2.38c0,0.2 0,0.39 0,0.59a9.36,9.36 0 0 1 -0.26,1.75a9,9 0 0 1 -0.29,0.92a11.6,11.6 0 0 1 -1.38,2.54a34,34 0 0 1 -2.47,3l-0.85,1l-0.84,1a34.9,34.9 0 0 0 -3.05,4.13a19.62,19.62 0 0 0 -1.21,2.26a16.55,16.55 0 0 0 -0.68,1.82a13.1,13.1 0 0 0 -0.53,2.53c0,0.22 -0.05,0.43 -0.06,0.65a10.92,10.92 0 0 0 0,1.28a8.83,8.83 0 0 0 0.14,1.26a9.67,9.67 0 0 0 0.74,2.43c0,0.11 0.11,0.22 0.16,0.32s0.11,0.21 0.16,0.32s0.21,0.43 0.31,0.64a4.65,4.65 0 0 1 0.32,1c0,0.11 0,0.23 0,0.35a2.29,2.29 0 0 1 0,0.37a4,4 0 0 1 -1.44,2.49c-0.19,0.18 -0.4,0.35 -0.6,0.52l-0.31,0.25l-0.63,0.5l-0.61,0.49a12,12 0 0 0 -1.47,1.47a54.19,54.19 0 0 0 -16.34,1.6a22.31,22.31 0 0 1 -5.87,1.06a2.92,2.92 0 0 1 -2.54,-1.07a3.84,3.84 0 0 1 -0.26,-2.33a20.11,20.11 0 0 0 -1.56,-9.57a5.38,5.38 0 0 0 -1.57,-2.28a2.22,2.22 0 0 0 -2.59,-0.14a24.4,24.4 0 0 1 -0.67,16.28a53.71,53.71 0 0 1 -3.76,7.06c-2.23,3.79 -3.48,8.13 -5.46,12.06c2.22,7.51 1.73,15.53 2.89,23.27c1.08,7.22 3.6,14.12 6.13,21c1.91,5.17 4,10.55 8.12,14.19a7.45,7.45 0 0 0 5,2.18a8.83,8.83 0 0 0 3.93,-1.48a15.31,15.31 0 0 0 3.31,-2.44a7.54,7.54 0 0 0 1,-1.3a4.9,4.9 0 0 0 0.73,1.84c2.38,-5.13 5,-10.15 7.8,-15.06a12.91,12.91 0 0 0 2.34,-1.6c0.05,0.17 0.09,0.35 0.13,0.53c-0.12,0.47 -0.24,0.95 -0.37,1.42s-0.27,0.9 -0.41,1.34s-0.2,0.66 -0.31,1s-0.26,0.78 -0.4,1.17l-0.48,1.27c-0.12,0.3 -0.23,0.6 -0.36,0.9c-0.3,0.73 -0.61,1.46 -0.95,2.18a6.58,6.58 0 0 0 0.83,0.34l0.19,0.06a7.2,7.2 0 0 0 0.77,0.19l0.28,0l0.58,0.06l0.22,0c0.1,0 0.2,0 0.3,0l0.39,0a9.18,9.18 0 0 0 2.06,-0.36c0.13,0.52 0.25,1.05 0.38,1.57a55.9,55.9 0 0 1 1.88,10.71c0.18,4.1 -0.53,8.26 0.25,12.3c0.41,2.09 1.22,4.1 1.51,6.22a25.85,25.85 0 0 1 -0.11,6q-0.68,7.19 -1.36,14.38a12.29,12.29 0 0 1 -1.23,5.07c-0.68,1.17 -1.77,2.51 -1.09,3.67a23.85,23.85 0 0 1 3.43,-0.66c-0.42,1.53 -0.8,3.06 -1.16,4.6a8.09,8.09 0 0 0 -0.27,3.55c0.24,1.11 0.93,2.11 1,3.25c0.17,1.75 -1,3.3 -1.72,4.93c-1.72,4.16 0.11,8.85 1.93,13l5.38,12.21q2.2,5 4.42,10c1.31,3 2.63,6 3.89,9a291.5,291.5 0 0 1 14.08,42.21a4.94,4.94 0 0 0 0.72,1.83c0.75,1 2.1,1.29 3.2,1.9c3.32,1.82 3.7,7.27 0.66,9.53c0.63,7.34 -4.87,14.43 -7.7,21.23c-6.52,15.63 -5.34,33.24 -7.58,50l2.53,-1.48a3.33,3.33 0 0 1 0.82,0.54c-0.06,0.31 -0.12,0.62 -0.2,0.94a14.89,14.89 0 0 1 -1.63,4.06c-1.47,2.54 -3.72,4.79 -4.06,7.7c-0.21,1.75 0.33,3.51 0.32,5.28c0,0.16 0,0.32 0,0.49c-0.22,-0.22 -0.56,-0.2 -1.08,0.2a6.42,6.42 0 0 0 -1.59,3c-0.44,1.25 -0.79,2.53 -1.14,3.81l-1.23,4.52a52.43,52.43 0 0 1 -2.64,7.94a33.38,33.38 0 0 0 -2.34,5.4a16.69,16.69 0 0 0 -0.41,4.63a14.08,14.08 0 0 0 0.64,4.38a10.91,10.91 0 0 0 6.39,6.07a30,30 0 0 0 8.88,1.67a7.58,7.58 0 0 0 2.33,-0.06a6.4,6.4 0 0 0 2.27,-1.18c4.11,-3 6.24,-8.6 6.61,-13.7a19.82,19.82 0 0 0 -0.56,-3.11c0.25,-5.55 -0.56,-11.13 -0.13,-16.66c0.08,0.63 0.18,1.25 0.27,1.88q0.5,3.1 1,6.21a1.31,1.31 0 0 0 -0.34,-0.58a14.31,14.31 0 0 0 -0.36,7.12a41.68,41.68 0 0 0 2,6.9l1.33,3.71a8.88,8.88 0 0 0 1.58,3.07c1.17,1.28 2.95,1.75 4.63,2.17a50.31,50.31 0 0 0 11.2,1.91a2.57,2.57 0 0 0 1.48,-0.27a8.51,8.51 0 0 0 0.66,-0.56a6.1,6.1 0 0 1 1.08,-0.63a7.06,7.06 0 0 0 3.43,-4.06a6.43,6.43 0 0 0 -0.63,-5.26a12.08,12.08 0 0 0 -1.52,-1.84l-6.67,-7.07a38.29,38.29 0 0 0 -3.27,-3.46a1.22,1.22 0 0 0 -1.07,-0.36c-1.81,-4.52 -1.58,-9.82 -1.26,-14.78c0.09,-1.48 0.9,-4.56 1.23,-7.08a11.27,11.27 0 0 0 3.54,-1.91a5.42,5.42 0 0 0 2,-3c3.36,-17.2 8.81,-33.87 13.9,-50.63c0.5,-1.65 1,-3.31 1.49,-5l0.62,-2.12c0.16,-0.58 0.34,-1.16 0.5,-1.74c0.28,-1 0.55,-1.95 0.81,-2.93c0.08,-0.26 0.15,-0.53 0.22,-0.79a0.94,0.94 0 0 0 0,-0.16c0.33,-1.2 0.64,-2.4 0.95,-3.6l0.36,-1.38c0.39,-1.53 0.76,-3.07 1.13,-4.6c0.05,-0.21 0.1,-0.43 0.14,-0.65a2.82,2.82 0 0 0 -0.11,-1.63l0,0l0,0a2.68,2.68 0 0 0 -0.39,-0.56c-0.1,-0.12 -0.22,-0.25 -0.34,-0.37l-0.37,-0.41a3.69,3.69 0 0 1 -0.68,-1.28c0,-0.47 0,-0.94 0,-1.4s-0.06,-1 -0.09,-1.49a15.2,15.2 0 0 1 0.44,-1.94c0.11,-0.38 0.24,-0.76 0.36,-1.14s0.29,-1 0.45,-1.42a3.55,3.55 0 0 0 0.89,-2.41c0.6,-1.51 1.26,-3 2,-4.44a13.51,13.51 0 0 0 1.79,-4.8a19.19,19.19 0 0 0 -0.58,-4.56c-1,-6.34 1.94,-12.53 4.12,-18.56a82.4,82.4 0 0 0 3.63,-13.62c0.64,-3.57 1.08,-7.3 3,-10.39a15.59,15.59 0 0 0 1.6,-2.76a11.09,11.09 0 0 0 0.43,-3.15a34.54,34.54 0 0 1 3.07,-12.47a7.34,7.34 0 0 0 0.8,-2.42a1,1 0 0 0 0,-0.17l0,-0.24l0.5,-0.07c0.85,-5.38 1.7,-11.38 1.12,-16.79a25.67,25.67 0 0 0 -8.58,-16.21l0.1,0c1.68,-0.85 2.43,-2.88 2.45,-4.76a9.26,9.26 0 0 0 -3.45,-7.26a3.53,3.53 0 0 1 -1.17,-1.2a3.65,3.65 0 0 1 -0.14,-1.58a8.06,8.06 0 0 0 -5,-7.46a1.84,1.84 0 0 1 -0.81,-0.47a2,2 0 0 1 -0.2,-1.42a8.73,8.73 0 0 0 -4.21,-8a13.71,13.71 0 0 0 0.18,-6.33c-0.6,-2 -2.52,-3.87 -4.63,-3.6c1.72,-4.69 -0.72,-9.91 -0.07,-14.86c0.28,-2.12 1.13,-4.16 1.24,-6.3c0.1,-1.94 -0.39,-4 0.56,-5.74s3.19,-3 2.61,-4.84c-0.25,-0.8 -1,-1.34 -1.32,-2.12s1,-2 1.73,-1.52c0.33,-0.25 0.66,-0.52 1,-0.79a16.36,16.36 0 0 0 0.59,2.93c0.47,1.6 1.21,3.11 1.7,4.7c0.76,2.43 1,5.06 2.22,7.29c2,3.56 6.07,5.32 8.87,8.28c1.64,1.73 2.81,3.86 4.5,5.55a24.9,24.9 0 0 0 4.2,3.15l9,5.84a10.2,10.2 0 0 0 3.08,1.53a5.26,5.26 0 0 0 6.2,-4.46a5.9,5.9 0 0 1 -2.22,-1.37c0.13,0 0.26,0 0.38,-0.06a14.24,14.24 0 0 0 5.8,-3.08c6.42,-5.11 11,-12.09 15.54,-18.95c4.72,-7.19 27.46,-26.22 27.46,-26.22l0,-7.72a27.85,27.85 0 0 0 7.57,-6.44a8.35,8.35 0 0 0 1.9,-4.93a4.34,4.34 0 0 0 -2.65,-4.34zm-189.06,18.49q-0.66,4.2 -1.61,8.36a81.26,81.26 0 0 1 -2.69,9.44c-0.12,0.32 -0.24,0.65 -0.35,1c-0.33,-0.6 -0.65,-1.2 -0.94,-1.81c-0.74,-1.53 -1.33,-3.13 -1.92,-4.72l-3.76,-10.15c-0.49,-1.31 -1,-2.84 -0.25,-4.05a4.54,4.54 0 0 1 2.15,-1.61a42.9,42.9 0 0 1 8.25,-2.8a24.19,24.19 0 0 0 2.66,-0.7a39.67,39.67 0 0 0 -1.54,7.04zm4.16,-12.66a1.53,1.53 0 0 1 0,-1.47a3.25,3.25 0 0 1 1,-0.68a2,2 0 0 0 0.28,-0.2l-1.28,2.35zm7.8,-11a19.43,19.43 0 0 0 -3,3.08a31.59,31.59 0 0 0 -2.58,4a2.9,2.9 0 0 0 -1.07,-2.95a6.09,6.09 0 0 1 -1,-0.66a2.05,2.05 0 0 1 0.41,-2.87a6,6 0 0 1 3,-1l4.49,-0.66c-0.06,0.29 -0.15,0.66 -0.25,1.01l0,0.05zm42.14,326.59a16.41,16.41 0 0 0 -0.26,-4c0.56,0 1.11,0 1.66,-0.05l-1.4,4.05z"/>
  <path id="svg_84" fill="#303d5c" d="m218.88,328.35c-7.81,1.25 -16.5,4.26 -19.49,11.58c-2.25,5.53 -0.51,11.76 0.07,17.71a13.54,13.54 0 0 1 -0.17,4.71c-0.64,2.51 -2.42,4.54 -4.13,6.48a34.45,34.45 0 0 0 -5.95,8.33c-1.41,3.13 -1.85,6.86 -0.4,10a7.35,7.35 0 0 1 1,2.62c0.09,2 -2,3.32 -3.6,4.62c-5.86,4.85 -5.61,13.69 -5.66,21.31a107.76,107.76 0 0 1 -10.19,45a13.76,13.76 0 0 0 15.4,-2a51.43,51.43 0 0 1 -3.5,10.08c5,2.4 10.94,-1.54 13.43,-6.46s2.78,-10.64 4.55,-15.86s4.91,-9.76 6.25,-15c0.45,-1.74 0.72,-3.59 1.78,-5a13.1,13.1 0 0 1 3.12,-2.66a30.44,30.44 0 0 0 11,-15c6.08,1.34 12.27,2.69 18.46,2.13s12.51,-3.37 15.78,-8.66c1.45,-2.34 2.23,-5 3.57,-7.42c1.63,-2.93 4,-5.35 5.89,-8.15c4.35,-6.66 5.16,-15.23 3.39,-23s-5.9,-14.8 -10.77,-21.1c-9.33,-12.14 -25.04,-16.64 -39.83,-14.26z"/>
  <path id="svg_85" fill="#0ccc88" d="m169.59,425.96q-0.66,4.2 -1.6,8.34a80.54,80.54 0 0 1 -2.69,9.43a9,9 0 0 0 -0.85,4.34a7.8,7.8 0 0 0 1.05,2.58c3.56,6.33 8.37,12.45 8.78,19.71c0.11,1.81 0,3.77 1,5.26q4.14,-8.88 9.12,-17.33c3.47,-5.9 7.34,-11.85 8.34,-18.62a35.26,35.26 0 0 0 -0.13,-9.57c-0.46,-3.56 -1.26,-7.21 -3.43,-10.06c-2.36,-3.09 -8.83,-7.74 -13,-6.78c-4.95,1.16 -5.97,8.73 -6.59,12.7z"/>
  <path id="svg_86" fill="#ee8e9e" d="m295.39,460.11c4.67,-1.91 9.43,-3.93 13.13,-7.35a42.63,42.63 0 0 0 6,-7.4l11,-15.87c2.6,-3.76 5.28,-7.72 5.84,-12.26a40.39,40.39 0 0 0 11,-24.92c0.08,-0.93 0.39,-2.15 1.32,-2.17a1.66,1.66 0 0 1 1.08,0.51a6.18,6.18 0 0 1 2,5.27c1.6,-0.08 3.35,-0.12 4.65,0.81s1.65,3.26 0.25,4a2,2 0 0 1 1.4,2.27c1.68,-0.34 3.52,-0.61 5,0.23s2.06,3.3 0.62,4.22a4.35,4.35 0 0 1 2.78,4.17a8.33,8.33 0 0 1 -1.9,4.92c-4.21,5.65 -11.66,7.94 -16.54,13a39.29,39.29 0 0 0 -4.31,5.76l-14.16,21.54c-4.5,6.85 -9.12,13.83 -15.54,18.93a14.26,14.26 0 0 1 -5.79,3.08a6.42,6.42 0 0 1 -6.08,-1.69c-1.42,-1.61 -1.62,-3.92 -1.77,-6.06c-0.37,-3.59 0.26,-7.34 0.02,-10.99z"/>
  <path id="svg_87" fill="#303d5c" d="m248,759.42a12.12,12.12 0 0 1 1.51,1.84a6.41,6.41 0 0 1 0.64,5.25a7.13,7.13 0 0 1 -3.43,4.06a6.05,6.05 0 0 0 -1.08,0.62a8.51,8.51 0 0 1 -0.66,0.56a2.66,2.66 0 0 1 -1.48,0.28a51.48,51.48 0 0 1 -11.2,-1.91c-1.68,-0.42 -3.45,-0.9 -4.62,-2.17a8.88,8.88 0 0 1 -1.58,-3.07l-1.33,-3.7a42.85,42.85 0 0 1 -2,-6.89a14.26,14.26 0 0 1 0.36,-7.11a2.14,2.14 0 0 1 0.49,1.45a16.11,16.11 0 0 0 2.85,6.9a5.53,5.53 0 0 0 4.44,2.79a41.43,41.43 0 0 0 7.1,0.91a2.12,2.12 0 0 0 1,-0.12a1.73,1.73 0 0 0 0.81,-1a4.31,4.31 0 0 0 0,-2.92c-0.63,-1.8 -2.4,-3 -3.25,-4.7c-0.62,-1.27 0.25,-2.66 1.53,-1.59a39.54,39.54 0 0 1 3.27,3.45l6.63,7.07z"/>
  <path id="svg_88" fill="#ee8e9e" d="m235.7,733.78c-0.38,6 -0.65,12.39 2.62,17.4c1.17,1.8 2.74,3.31 4.08,5a5.94,5.94 0 0 1 1.46,3c0.2,2.19 -1.86,4.06 -4,4.46s-4.36,-0.26 -6.45,-0.93a15.66,15.66 0 0 1 -5.47,-2.58c-2.84,-2.4 -3.59,-6.4 -4.16,-10.07l-1.33,-8.53a27.07,27.07 0 0 1 -0.48,-6.21a27.49,27.49 0 0 1 1.67,-6.71l2.19,-6.41a3,3 0 0 1 1,-1.59a2.78,2.78 0 0 1 1.66,-0.31c2.1,0.11 7.37,0.87 8.39,3.09c0.84,1.94 -1.03,8.09 -1.18,10.39z"/>
  <path id="svg_89" opacity="0.05" d="m235.7,733.78c-0.38,6 -0.65,12.39 2.62,17.4c1.17,1.8 2.74,3.31 4.08,5a5.94,5.94 0 0 1 1.46,3c0.2,2.19 -1.86,4.06 -4,4.46s-4.36,-0.26 -6.45,-0.93a15.66,15.66 0 0 1 -5.47,-2.58c-2.84,-2.4 -3.59,-6.4 -4.16,-10.07l-1.33,-8.53a27.07,27.07 0 0 1 -0.48,-6.21a27.49,27.49 0 0 1 1.67,-6.71l2.19,-6.41a3,3 0 0 1 1,-1.59a2.78,2.78 0 0 1 1.66,-0.31c2.1,0.11 7.37,0.87 8.39,3.09c0.84,1.94 -1.03,8.09 -1.18,10.39z"/>
  <path id="svg_90" fill="#303d5c" d="m282.61,557a1,1 0 0 1 0,0.17a7.49,7.49 0 0 1 -0.8,2.42a34.64,34.64 0 0 0 -3.07,12.45a11,11 0 0 1 -0.43,3.14a15.59,15.59 0 0 1 -1.6,2.76c-1.9,3.09 -2.34,6.82 -3,10.38a81,81 0 0 1 -3.63,13.6c-2.17,6 -5.1,12.21 -4.11,18.54a19,19 0 0 1 0.58,4.55a13.51,13.51 0 0 1 -1.79,4.8c-0.74,1.44 -1.4,2.92 -2,4.43s-1.21,3.29 -1.7,5c-0.59,2 -1,4.46 0.37,6.1a7.83,7.83 0 0 1 1.1,1.35a3.56,3.56 0 0 1 0,2.3q-1.15,4.88 -2.48,9.72c-0.68,2.54 -1.4,5.06 -2.15,7.58c-5.48,18.42 -11.69,36.65 -15.38,55.52c-0.53,2.71 -4,4.66 -6.71,5.25a8.82,8.82 0 0 1 -7.71,-2.06l-0.53,-0.53c-2.83,-3 -3.24,-7.72 -3,-11.94c1,-19.41 10.73,-37.18 15.38,-56.05a107.38,107.38 0 0 0 3,-20.81c1.09,-23.44 1.52,-48.2 -5.1,-70.71c-1.38,-4.68 -3,-10 -0.54,-14.17c1.57,-2.66 4.47,-4.22 7.33,-5.36a47.16,47.16 0 0 1 36.57,0.93a13.19,13.19 0 0 1 -0.05,1.41a14.33,14.33 0 0 0 0.73,6.46a8.06,8.06 0 0 1 0.72,2.77z"/>
  <path id="svg_91" fill="#303d5c" d="m202.36,739.77l-1.23,4.51a52.06,52.06 0 0 1 -2.64,7.94a33.78,33.78 0 0 0 -2.34,5.39a16.65,16.65 0 0 0 -0.4,4.62a13.79,13.79 0 0 0 0.64,4.38a10.87,10.87 0 0 0 6.38,6.06a30,30 0 0 0 8.88,1.67a7.58,7.58 0 0 0 2.33,-0.06a6.44,6.44 0 0 0 2.26,-1.18c4.11,-3 6.24,-8.59 6.61,-13.68a17,17 0 0 0 -0.7,-3.49c-0.32,-0.43 -3.43,1.33 -2.1,2.79c2,2.18 -3.8,1.05 -6.73,0.87a27.14,27.14 0 0 1 -3.8,-0.63l-4.75,-1c-1.55,-0.34 -3.34,-0.87 -3.89,-2.36s0.65,-3.26 1.59,-4.7c2.48,-3.83 3.11,-8.53 3.69,-13.06c0.11,-0.89 1.22,-6.65 -1.07,-4.86a6.42,6.42 0 0 0 -1.59,3c-0.44,1.24 -0.79,2.52 -1.14,3.79z"/>
  <path id="svg_92" opacity="0.05" d="m261.44,645.31c-1.35,-1.64 -0.95,-4.06 -0.37,-6.1c0.22,-0.76 0.46,-1.52 0.71,-2.27l-18.63,-6.3c-0.07,1.67 -0.14,3.34 -0.22,5a107.58,107.58 0 0 1 -3,20.82c-4.65,18.86 -14.43,36.63 -15.38,56c-0.22,4.47 0.26,9.46 3.56,12.47a8.81,8.81 0 0 0 7.71,2.06c2.7,-0.59 6.18,-2.54 6.71,-5.26c3.69,-18.86 9.89,-37.09 15.38,-55.52q2.57,-8.58 4.63,-17.3a3.53,3.53 0 0 0 0,-2.29a7,7 0 0 0 -1.1,-1.31z"/>
  <path id="svg_93" fill="#ee8e9e" d="m209.94,719.32c-1.47,2.53 -3.72,4.78 -4.06,7.69c-0.21,1.75 0.33,3.51 0.32,5.27a16.69,16.69 0 0 1 -0.77,4.3q-2.72,9.83 -6.27,19.39a5.28,5.28 0 0 0 -0.49,2.63c0.24,1.5 1.68,2.48 3.08,3.07c4.43,1.9 9.43,1.77 14.25,1.57a7.47,7.47 0 0 0 4,-0.93c1.72,-1.18 2.15,-3.52 2.26,-5.61c0.33,-6 -0.69,-12.12 0,-18.14c0.24,-2.19 0.7,-4.35 1.05,-6.53c0.47,-3 0.71,-6.2 -0.28,-9.1a21.26,21.26 0 0 0 -3.41,-5.73a17.88,17.88 0 0 0 -4.74,-4.72c-0.56,-0.34 -2.18,-1.37 -2.75,-0.72c-0.29,0.33 -0.16,1.21 -0.21,1.62a15.1,15.1 0 0 1 -0.33,1.88a15.35,15.35 0 0 1 -1.65,4.06z"/>
  <path id="svg_94" opacity="0.05" d="m245.76,564.56c-0.87,1.18 -0.69,2.82 -0.34,4.24c0.62,2.58 1.65,5 2.49,7.56a104.5,104.5 0 0 1 3.2,13.74c0.79,4.2 2.44,8.88 1.76,13.1a93.64,93.64 0 0 1 9.9,31c0.38,2.78 -5.8,6.38 -5.68,9.19c0.23,5.57 4.68,6 1.39,10.48c-0.16,0.22 1.23,5.2 1,5.42c-1.34,1.61 -3,2.89 -4.47,4.4a33.86,33.86 0 0 0 -4.71,6.91c-8.5,15.33 -20.77,32.73 -17,49.85a3,3 0 0 1 -1.62,3.08a8.12,8.12 0 0 1 -3.59,0.83l-0.59,0c-2.83,-3 -3.24,-7.72 -3,-11.94c1,-19.41 10.73,-37.18 15.38,-56.05a107.38,107.38 0 0 0 3,-20.81c1.09,-23.44 1.52,-48.2 -5.1,-70.71c-1.38,-4.68 -3,-10 -0.54,-14.17c1.57,-2.66 4.47,-4.22 7.33,-5.36a47.16,47.16 0 0 1 36.57,0.93a13.19,13.19 0 0 1 -0.05,1.41a14.33,14.33 0 0 0 0.73,6.46a8.06,8.06 0 0 1 0.73,2.81c0,0.06 0.34,-3.77 0.33,-3.72c-7.61,1.1 -15.55,6.08 -23.16,7.17a53.23,53.23 0 0 0 -11.62,2.56a5.21,5.21 0 0 0 -2.34,1.62z"/>
  <path id="svg_95" fill="#303d5c" d="m193.07,523q-1.55,4.88 -2.7,9.86a8.19,8.19 0 0 0 -0.28,3.54c0.25,1.11 0.94,2.11 1,3.25c0.18,1.75 -1,3.3 -1.71,4.93c-1.72,4.15 0.11,8.83 1.92,12.94l5.38,12.21l4.42,10c1.31,3 2.63,5.95 3.89,8.95a290.72,290.72 0 0 1 14.07,42.15a5.09,5.09 0 0 0 0.72,1.84c0.75,1 2.1,1.28 3.2,1.89c3.32,1.82 3.69,7.26 0.66,9.52c0.63,7.33 -4.87,14.41 -7.7,21.2c-6.51,15.61 -5.33,33.2 -7.57,50l2.53,-1.47c2.43,1.11 2.34,4.55 3.65,6.88c2,3.5 6.75,4 10.76,3.73a8.19,8.19 0 0 0 3.59,-0.83a3,3 0 0 0 1.62,-3.08c-3.78,-17.12 8.49,-34.51 17,-49.86a33.28,33.28 0 0 1 4.71,-6.9c1.44,-1.52 3.13,-2.8 4.47,-4.4c3.75,-4.5 4.23,-10.85 4,-16.7a93.55,93.55 0 0 0 -10.64,-39.44c0.67,-4.22 -1,-8.89 -1.76,-13.09a103.65,103.65 0 0 0 -3.19,-13.7c-0.84,-2.53 -1.87,-5 -2.49,-7.57c-0.34,-1.42 -0.52,-3.06 0.34,-4.24a5.19,5.19 0 0 1 2.4,-1.55a53.49,53.49 0 0 1 11.64,-2.64l26.16,-3.76c0.85,-5.37 1.7,-11.37 1.12,-16.77a25.8,25.8 0 0 0 -18.44,-21.58c-1.15,-0.31 -2.48,-0.51 -3.42,0.22a136.18,136.18 0 0 0 -69.35,4.47z"/>
  <path id="svg_96" fill="#ee8e9e" d="m216.85,381.57a12.88,12.88 0 0 1 -1.15,7.49a11.79,11.79 0 0 1 -3,3.29a22.41,22.41 0 0 1 -8.62,4.29c-1.86,0.46 -3.94,0.78 -5.16,2.25c-1.84,2.22 -0.61,5.57 1,8c2.71,4.2 6.48,8 11.31,9.35c3.86,1.05 8,0.4 11.92,1.09c2.86,0.49 5.55,1.67 8.37,2.35a24.73,24.73 0 0 0 22.71,-6.34c-4.19,-3.22 -8.54,-6.64 -10.71,-11.46a16.26,16.26 0 0 1 -0.82,-11c1,-3.58 3.27,-7.06 2.57,-10.7s-4.3,-6.16 -7.86,-7.39a50.62,50.62 0 0 0 -9.85,-2c-1.85,-0.25 -13.56,-2.84 -14.29,-1.56c-0.41,0.72 2,5 2.32,5.94a22.4,22.4 0 0 1 1.26,6.4z"/>
  <circle id="svg_97" fill="#ee8e9e" r="23.76" cy="366.35" cx="231.58"/>
  <path id="svg_98" fill="#0ccc88" d="m219,405.62l16.11,2.72a61,61 0 0 0 12,1.21a33.4,33.4 0 0 1 6.63,0c1.52,0.25 3,0.83 4.51,1c1.88,0.24 3.79,-0.12 5.67,0.12c3.5,0.45 6.38,2.87 9,5.18c3.11,2.72 6.46,5.89 6.69,10a2.8,2.8 0 0 1 -0.19,1.38a4.05,4.05 0 0 1 -1.19,1.25c-3,2.43 -4.62,6.06 -6.73,9.26a35.93,35.93 0 0 1 -8,8.63c-0.7,-0.45 -2,0.74 -1.73,1.51s1.07,1.32 1.32,2.12c0.57,1.82 -1.68,3.16 -2.61,4.83s-0.46,3.79 -0.56,5.74c-0.11,2.13 -1,4.17 -1.24,6.29c-0.65,4.95 1.79,10.16 0.07,14.84c2.12,-0.27 4,1.56 4.63,3.6a13.54,13.54 0 0 1 -0.19,6.32a8.7,8.7 0 0 1 4.21,7.95a1.91,1.91 0 0 0 0.21,1.42a2,2 0 0 0 0.81,0.47a8,8 0 0 1 5,7.45a3.59,3.59 0 0 0 0.15,1.57a3.52,3.52 0 0 0 1.16,1.21a9.26,9.26 0 0 1 3.46,7.24c0,1.88 -0.78,3.91 -2.46,4.76c-3.41,1.73 -7.07,2.41 -10.82,3.22a92.87,92.87 0 0 1 -10.47,1.85a94.27,94.27 0 0 1 -9.8,0.31l-21.56,-0.09c-6,0 -12.12,0 -18.16,-0.45c-5.64,-0.38 -11.41,-1.09 -16.87,0.39c-0.68,-1.15 0.41,-2.5 1.09,-3.66a12.33,12.33 0 0 0 1.23,-5.07l1.36,-14.36a26.41,26.41 0 0 0 0.1,-6c-0.29,-2.11 -1.09,-4.11 -1.5,-6.21c-0.78,-4 -0.07,-8.18 -0.25,-12.28a57.53,57.53 0 0 0 -1.88,-10.7l-4.2,-17.54c-0.68,-2.83 -1,-6.1 -2.1,-8.81q-4.94,-12.66 -10.33,-25.11a2.65,2.65 0 0 1 0.19,-2.23l3.56,-6.38a40.48,40.48 0 0 1 3.26,-5.2a20.48,20.48 0 0 1 12,-7.38a21.19,21.19 0 0 1 14,2.07c1.66,0.89 3.2,2 4.89,2.83c2.85,1.44 6.35,2.95 9.53,2.73z"/>
  <path id="svg_99" fill="#0ccc88" d="m276.2,421.27l5.62,7.48a10.42,10.42 0 0 1 1.3,2.07c0.85,2 0.38,4.26 0.84,6.36a13.4,13.4 0 0 0 1.64,3.79a86.07,86.07 0 0 0 7.14,10.62a18.46,18.46 0 0 0 4.44,4.38a7.28,7.28 0 0 0 6,1.06a3.71,3.71 0 0 0 -2,1.78c-2.14,4.23 -2.3,9.24 -1.39,13.9a14.53,14.53 0 0 0 1.56,4.55a6.81,6.81 0 0 0 3.58,3.09a5.27,5.27 0 0 1 -6.2,4.45a10.44,10.44 0 0 1 -3.08,-1.53l-9,-5.83a25.94,25.94 0 0 1 -4.19,-3.15c-1.68,-1.68 -2.86,-3.81 -4.5,-5.54c-2.79,-3 -6.89,-4.72 -8.87,-8.27c-1.23,-2.23 -1.45,-4.86 -2.21,-7.29c-0.5,-1.59 -1.23,-3.09 -1.71,-4.69c-1.48,-4.93 -0.41,-10.36 1.85,-15s5.85,-8.29 9.18,-12.23z"/>
  <path id="svg_100" fill="#303d5c" d="m255.05,352.81a31.28,31.28 0 0 0 -8.36,-8.69c-4.43,-3.32 -9.54,-6.07 -15.07,-6.38a16.29,16.29 0 0 0 -6.79,1.11c-0.1,-6.71 -1.77,-11.18 -5.95,-10.5c-7.81,1.25 -16.5,4.26 -19.49,11.58c-2.25,5.53 -0.51,11.76 0.07,17.71a13.54,13.54 0 0 1 -0.17,4.71c-0.64,2.51 -2.42,4.54 -4.13,6.48a34.45,34.45 0 0 0 -5.95,8.33c-1.41,3.13 -1.85,6.86 -0.4,10a7.35,7.35 0 0 1 1,2.62c0.09,2 -2,3.32 -3.6,4.62c-5.86,4.85 -5.61,13.69 -5.66,21.31a107.76,107.76 0 0 1 -10.19,45a13.76,13.76 0 0 0 15.4,-2a51.43,51.43 0 0 1 -3.5,10.08c5,2.4 10.94,-1.54 13.43,-6.46s2.78,-10.64 4.55,-15.86s4.91,-9.76 6.25,-15c0.45,-1.74 0.72,-3.59 1.78,-5a13.1,13.1 0 0 1 3.12,-2.66c5.12,-3.67 -2.41,-31.48 -0.41,-37.46c3,0.66 8.44,-13.69 11.55,-28.28a14.78,14.78 0 0 0 6.76,0.67a8.62,8.62 0 0 1 2.42,-0.17a6.44,6.44 0 0 1 2.11,0.86a51.94,51.94 0 0 0 7.19,3.7c5.16,1.92 10.83,1.67 16.32,1.39a16.23,16.23 0 0 0 -2.28,-11.71z"/>
  <g id="svg_101" opacity="0.1">
   <path id="svg_102" d="m173.15,460.71a107.91,107.91 0 0 0 10.19,-45c0,-7.62 -0.21,-16.46 5.66,-21.31c1.56,-1.3 3.69,-2.59 3.59,-4.62a7.14,7.14 0 0 0 -1,-2.62c-1.46,-3.1 -1,-6.83 0.39,-10a34.73,34.73 0 0 1 5.95,-8.33c1.71,-1.94 3.5,-4 4.14,-6.48a13.79,13.79 0 0 0 0.17,-4.71c-0.58,-6 -2.33,-12.18 -0.07,-17.71c2.89,-7.09 11.12,-10.13 18.73,-11.45a4,4 0 0 0 -2,-0.13c-7.81,1.25 -16.5,4.26 -19.49,11.58c-2.25,5.53 -0.51,11.76 0.07,17.71a13.54,13.54 0 0 1 -0.17,4.71c-0.64,2.51 -2.42,4.54 -4.13,6.48a34.45,34.45 0 0 0 -5.95,8.33c-1.41,3.13 -1.85,6.86 -0.4,10a7.35,7.35 0 0 1 1,2.62c0.09,2 -2,3.32 -3.6,4.62c-5.86,4.85 -5.61,13.69 -5.66,21.31a107.76,107.76 0 0 1 -10.19,45a13.32,13.32 0 0 0 7.55,1.41a12.93,12.93 0 0 1 -4.78,-1.41z"/>
   <path id="svg_103" d="m185.05,468.77a51.39,51.39 0 0 0 3.49,-10.08a12.67,12.67 0 0 1 -3.38,2.24a50.89,50.89 0 0 1 -2.91,7.84a7.4,7.4 0 0 0 4.59,0.59a7.37,7.37 0 0 1 -1.79,-0.59z"/>
   <path id="svg_104" d="m227.63,338.85a16,16 0 0 1 4.52,-1.06l-0.53,-0.05a16,16 0 0 0 -4,0.3c-0.01,0.27 0.01,0.53 0.01,0.81z"/>
   <path id="svg_105" d="m243.8,363.05a52.63,52.63 0 0 1 -7.2,-3.7a6.27,6.27 0 0 0 -2.11,-0.86a7.51,7.51 0 0 0 -2.21,0.14a8.2,8.2 0 0 1 1.53,0.72a51.94,51.94 0 0 0 7.19,3.7a32.38,32.38 0 0 0 12.05,1.56a28.38,28.38 0 0 1 -9.25,-1.56z"/>
   <path id="svg_106" d="m225.32,357.99c-0.05,0.21 -0.1,0.42 -0.14,0.64a14.38,14.38 0 0 0 3.53,0.09a15.19,15.19 0 0 1 -3.39,-0.73z"/>
  </g>
  <path id="svg_107" fill="#ee8e9e" d="m175.86,468.15a8.65,8.65 0 0 1 -2.33,6.94a15.18,15.18 0 0 1 -3.31,2.43a8.71,8.71 0 0 1 -3.93,1.48a7.4,7.4 0 0 1 -5,-2.18c-4.13,-3.63 -6.2,-9 -8.11,-14.17c-2.53,-6.83 -5.05,-13.73 -6.13,-20.94c-1.16,-7.73 -0.67,-15.74 -2.88,-23.24c2,-3.93 3.22,-8.26 5.45,-12.05a54.8,54.8 0 0 0 3.76,-7.05a24.25,24.25 0 0 0 0.62,-16.25a2.2,2.2 0 0 1 2.6,0.14a5.29,5.29 0 0 1 1.57,2.27a20.15,20.15 0 0 1 1.55,9.55a3.86,3.86 0 0 0 0.28,2.34a3,3 0 0 0 2.54,1.07a22.32,22.32 0 0 0 5.86,-1.07a54.7,54.7 0 0 1 18.07,-1.49a8.65,8.65 0 0 1 3.52,0.86a3.29,3.29 0 0 1 1.82,2.95l-14.45,2.11a5.92,5.92 0 0 0 -3,1a2,2 0 0 0 -0.42,2.86a6.71,6.71 0 0 0 1,0.67a3,3 0 0 1 -0.12,4.75a3,3 0 0 0 -1,0.68c-0.59,0.79 0.2,1.84 0.44,2.8a3.52,3.52 0 0 1 -1.73,3.6a12.22,12.22 0 0 1 -4,1.35a42.48,42.48 0 0 0 -8.25,2.81a4.46,4.46 0 0 0 -2.15,1.6c-0.71,1.21 -0.24,2.74 0.25,4.05l3.76,10.14c0.59,1.59 1.18,3.18 1.92,4.7c1,2 2.14,3.86 3.12,5.83a61.13,61.13 0 0 1 2.35,5.68c1.9,5.2 5.69,8.3 6.33,13.78z"/>
  <path id="svg_108" fill="#ee8e9e" d="m342.93,399.87a4.49,4.49 0 0 0 -1.65,2.41a1,1 0 0 0 0.38,1.08a1.1,1.1 0 0 0 0.67,0a6.35,6.35 0 0 0 2.9,-1.38a3,3 0 0 0 -0.87,0.7a1,1 0 0 0 -0.11,1.06a1.37,1.37 0 0 0 0.95,0.5a9.27,9.27 0 0 0 4.19,-0.2a5.61,5.61 0 0 0 -1.75,1a2.32,2.32 0 0 0 -0.78,1.8a0.86,0.86 0 0 0 0.31,0.68a1.26,1.26 0 0 0 0.46,0.16a11.29,11.29 0 0 0 3.89,0a2,2 0 0 0 1.64,-1a2.45,2.45 0 0 0 -0.38,-1.88a10.43,10.43 0 0 1 -1,-4.76a1.93,1.93 0 0 0 -0.14,-1a1.75,1.75 0 0 0 -0.87,-0.63c-1.38,-0.61 -3.24,-1.45 -4.78,-0.95a9.87,9.87 0 0 0 -3.06,2.41z"/>
  <path id="svg_109" fill="#0ccc88" d="m374.58,367.88l-47.72,25.82a1,1 0 0 0 0.07,1.78l8.14,3.07a1.91,1.91 0 0 1 1.07,1l6.33,13c0.12,0.58 1.18,0.73 1.19,0.15l-1,-10.77a3.85,3.85 0 0 1 0.87,-2.17l24.74,-24.24a0.58,0.58 0 0 1 0.54,-0.16a0.57,0.57 0 0 1 0.31,0.91l-21.29,26.15a4.76,4.76 0 0 0 -0.84,2.15l-1.27,9.3c0.1,0.81 0.74,1.12 1.25,0.39l4.6,-5.39a1,1 0 0 1 1.34,-0.23l11.85,8.63a1,1 0 0 0 1.5,-0.59l9.74,-47.72a1,1 0 0 0 -1.4,-1.08l-0.02,0z"/>
  <ellipse id="svg_110" fill="#0ccc88" ry="11.44" rx="59.47" cy="803.39" cx="917.08"/>
  <ellipse id="svg_111" fill="#3f3d56" ry="9.06" rx="6.92" cy="798.53" cx="916.09"/>
  <ellipse id="svg_112" fill="#3f3d56" ry="9.06" rx="6.92" cy="787.46" cx="916.09"/>
  <ellipse id="svg_113" fill="#3f3d56" ry="9.06" rx="6.92" cy="776.38" cx="916.09"/>
  <ellipse id="svg_114" fill="#3f3d56" ry="9.06" rx="6.92" cy="765.3" cx="916.09"/>
  <ellipse id="svg_115" fill="#3f3d56" ry="9.06" rx="6.92" cy="754.22" cx="916.09"/>
  <ellipse id="svg_116" fill="#3f3d56" ry="9.06" rx="6.92" cy="743.15" cx="916.09"/>
  <ellipse id="svg_117" fill="#3f3d56" ry="9.06" rx="6.92" cy="732.07" cx="916.09"/>
  <path id="svg_118" fill="#0ccc88" d="m942,656.26a35.11,35.11 0 0 0 2.58,-3.79l-18.2,-3l19.68,0.15a33.27,33.27 0 0 0 0.63,-26.28l-26.39,13.69l24.34,-17.89a33.17,33.17 0 1 0 -54.78,37.11a34.29,34.29 0 0 0 -3.78,6l23.62,12.27l-25.18,-8.45a33.19,33.19 0 0 0 5.34,31.14a33.16,33.16 0 1 0 52.14,0a33.2,33.2 0 0 0 0,-41l0,0.05z"/>
  <path fill="#0ccc88" id="svg_119" opacity="0.1" d="m882.78,676.77a33,33 0 0 0 7.09,20.5a33.16,33.16 0 1 0 52.14,0c4.44,-5.64 -59.23,-24.22 -59.23,-20.5z"/>
  <ellipse id="svg_120" fill="#0ccc88" ry="6.53" rx="33.95" cy="772.77" cx="358.05"/>
  <ellipse id="svg_121" fill="#3f3d56" ry="5.17" rx="3.95" cy="769.99" cx="358.62"/>
  <ellipse id="svg_122" fill="#3f3d56" ry="5.17" rx="3.95" cy="763.67" cx="358.62"/>
  <ellipse id="svg_123" fill="#3f3d56" ry="5.17" rx="3.95" cy="757.34" cx="358.62"/>
  <ellipse id="svg_124" fill="#3f3d56" ry="5.17" rx="3.95" cy="751.02" cx="358.62"/>
  <ellipse id="svg_125" fill="#3f3d56" ry="5.17" rx="3.95" cy="744.69" cx="358.62"/>
  <ellipse id="svg_126" fill="#3f3d56" ry="5.17" rx="3.95" cy="738.37" cx="358.62"/>
  <ellipse id="svg_127" fill="#3f3d56" ry="5.17" rx="3.95" cy="732.05" cx="358.62"/>
  <path id="svg_128" fill="#0ccc88" d="m343.82,688.77a18.78,18.78 0 0 1 -1.47,-2.17l10.38,-1.7l-11.23,0.08a19,19 0 0 1 -0.36,-15l15.07,7.82l-13.9,-10.22a18.94,18.94 0 1 1 31.27,21.19a18.34,18.34 0 0 1 2.16,3.45l-13.48,7l14.38,-4.8a19.09,19.09 0 0 1 1,6.08a18.82,18.82 0 0 1 -4.06,11.7a18.93,18.93 0 1 1 -29.76,0a18.94,18.94 0 0 1 0,-23.41l0,-0.02z"/>
  <path fill="#0ccc88" id="svg_129" opacity="0.1" d="m377.64,700.48a18.82,18.82 0 0 1 -4.06,11.7a18.93,18.93 0 1 1 -29.76,0c-2.54,-3.22 33.82,-13.83 33.82,-11.7z"/>
  <ellipse id="svg_130" fill="#0ccc88" ry="4.39" rx="22.83" cy="720.25" cx="105.17"/>
  <ellipse id="svg_131" fill="#3f3d56" ry="3.48" rx="2.66" cy="718.39" cx="105.56"/>
  <ellipse id="svg_132" fill="#3f3d56" ry="3.48" rx="2.66" cy="714.14" cx="105.56"/>
  <ellipse id="svg_133" fill="#3f3d56" ry="3.48" rx="2.66" cy="709.88" cx="105.56"/>
  <ellipse id="svg_134" fill="#3f3d56" ry="3.48" rx="2.66" cy="705.63" cx="105.56"/>
  <ellipse id="svg_135" fill="#3f3d56" ry="3.48" rx="2.66" cy="701.38" cx="105.56"/>
  <ellipse id="svg_136" fill="#3f3d56" ry="3.48" rx="2.66" cy="697.13" cx="105.56"/>
  <ellipse id="svg_137" fill="#3f3d56" ry="3.48" rx="2.66" cy="692.88" cx="105.56"/>
  <path id="svg_138" fill="#0ccc88" d="m95.61,663.78a11,11 0 0 1 -1,-1.46l7,-1.14l-7.55,0a12.72,12.72 0 0 1 -0.25,-10.08l10.13,5.32l-9.35,-6.87a12.73,12.73 0 1 1 21,14.25a12.9,12.9 0 0 1 1.45,2.32l-9.04,4.69l9.66,-3.24a12.51,12.51 0 0 1 0.67,4.08a12.7,12.7 0 0 1 -2.72,7.87a12.74,12.74 0 1 1 -20,0a12.71,12.71 0 0 1 0,-15.74z"/>
  <path fill-opacity="0" fill="#0ccc88" id="svg_139" opacity="0.1" d="m118.34,671.65a12.7,12.7 0 0 1 -2.72,7.87a12.74,12.74 0 1 1 -20,0c-1.72,-2.16 22.72,-9.3 22.72,-7.87z"/>
 </g>
</svg>