<svg width="1126.81" height="633.59" xmlns="http://www.w3.org/2000/svg" xmlns:xlink="http://www.w3.org/1999/xlink" data-name="Layer 1">
 <defs>
  <linearGradient y2="-0.0001" x2="0.50005" y1="1.00027" x1="0.50005" id="ebf7d176-5ffd-4420-bcca-304f4f77ac7a">
   <stop stop-opacity="0.25" stop-color="gray" offset="0"/>
   <stop stop-opacity="0.12" stop-color="gray" offset="0.54"/>
   <stop stop-opacity="0.1" stop-color="gray" offset="1"/>
  </linearGradient>
  <linearGradient xlink:href="#ebf7d176-5ffd-4420-bcca-304f4f77ac7a" gradientTransform="translate(1052.52 21.29) rotate(-2.2)" y2="269.19" x2="-222.1" y1="711.31" x1="-222.1" id="ffba99e4-d350-4cb7-a6ec-0715674198cb"/>
  <linearGradient xlink:href="#ebf7d176-5ffd-4420-bcca-304f4f77ac7a" y2="339.73" x2="197.37" y1="744.56" x1="197.37" id="f94edff0-5540-4209-9ffe-d34bff61dab8"/>
 </defs>
 <title>status update</title>
 <g>
  <title>Layer 1</title>
  <path id="svg_1" opacity="0.1" fill="#0ccc98" d="m650.4,130.03c-70.76,0.54 -138.73,-15.45 -203.73,-33.27s-129.47,-37.83 -198.84,-46c-44.62,-5.28 -95.4,-4.45 -130.48,16c-33.75,19.66 -43.73,51.88 -48.66,81.62c-3.71,22.38 -5.52,45.86 7.54,66.23c9.07,14.13 24.69,25.73 35.68,39.19c38.26,46.84 14.54,107.11 -23.4,155.51c-17.77,22.67 -38.57,44.49 -52.11,68.49s-19.18,51.11 -5.79,74.6c13.28,23.29 43.54,40.06 76.08,51.45c66.1,23.14 143.17,27.7 218.23,29.17c166.14,3.24 332.71,-6.64 498.82,-16.51c61.48,-3.65 123.23,-7.33 183.48,-17.15c33.46,-5.45 67.93,-13.43 91.75,-30.6c30.24,-21.8 36.68,-57.12 15,-82.34c-36.37,-42.29 -133,-49.68 -159,-95.53c-14.31,-25.24 -1.57,-54.37 17,-78.91c39.94,-52.65 108.34,-100 109.95,-158.63c1.11,-40.25 -34,-79.28 -86.68,-96.43c-55.24,-18 -130.78,-12.79 -169.84,21.62c-40.16,35.37 -112.5,51.02 -175,51.49z"/>
  <path id="svg_2" fill="#0b75ce" d="m928.97,550.93s-12.29,-8.11 -24.47,-2.35c0,0 3.75,7.23 19.17,6.54l5.3,-4.19z"/>
  <path id="svg_3" fill="#0b75ce" d="m930.48,551.36s3.74,14.24 -5.63,23.93c0,0 -5.64,-5.87 -0.05,-20.25l5.68,-3.68z"/>
  <path id="svg_4" fill="#0b75ce" d="m945.81,537.69s-0.91,-12.11 -28.26,-8.1c0,0 -0.12,7.82 9.48,11.52s13.99,0.58 18.78,-3.42z"/>
  <path id="svg_5" fill="#0b75ce" d="m947.49,537.61s11.56,3.71 1.25,29.36c0,0 -7.62,-1.7 -9,-11.91s2.74,-13.74 7.75,-17.45z"/>
  <path id="svg_6" fill="#0b75ce" d="m962.97,520.42s1.57,-19.93 -26.38,-17.88c0,0 -2,18 21.45,22.68l4.93,-4.8z"/>
  <path id="svg_7" fill="#0ccc88" d="m981.4,497.93s-3.83,-22.59 -31.76,-15.86c0,0 -0.11,19.53 27.2,21.24l4.56,-5.38z"/>
  <path id="svg_8" fill="#0ccc88" d="m994.94,474.67s-6.42,-22 -34.1,-15.42c0,0 6.59,19.79 32.26,19.48l1.84,-4.06z"/>
  <path id="svg_9" fill="#0ccc88" d="m1007.76,451.95s-6.27,-22.83 -33,-16c0,0 8.92,21.69 31.23,19.87l1.77,-3.87z"/>
  <path id="svg_10" fill="#0ccc88" d="m1016.03,430.37s-4.82,-27.92 -29.74,-21.74c0,0 7.23,25.4 27.9,25.8l1.84,-4.06z"/>
  <path id="svg_11" fill="#0ccc88" d="m1023.77,404.3s-5.78,-28.15 -31,-20c0,0 9.89,26.6 29.22,23.85l1.78,-3.85z"/>
  <path id="svg_12" fill="#0ccc88" d="m1028.57,380.03s-9.19,-28.14 -28.68,-27.38c0,0 9.4,29.73 27,33l1.68,-5.62z"/>
  <path id="svg_13" fill="#0ccc88" d="m1031.62,356.36s-10,-33.88 -25.87,-31.27c0,0 6.93,25.9 25.3,36.55l0.57,-5.28z"/>
  <path id="svg_14" fill="#0ccc88" d="m1033.4,328.08s-9.37,-28.23 -25,-29.36c0,0 6.37,27.78 24.68,36.69l0.32,-7.33z"/>
  <path id="svg_15" fill="#0ccc88" d="m1035.24,301.8s-11.69,-28.26 -22,-28.9c0,0 5.08,27.83 21,33.54l1,-4.64z"/>
  <path id="svg_16" fill="#0ccc88" d="m1036.54,277.23s-7.18,-30.7 -17.52,-33.24c0,0 1.41,25.11 16.48,35.54l1.04,-2.3z"/>
  <path id="svg_17" fill="#0ccc88" d="m1040.4,245.14s-7.56,-24.46 -15.93,-28.19c0,0 1.66,28.84 14,34.18l1.93,-5.99z"/>
  <path id="svg_18" fill="#0ccc88" d="m1043.66,224.07l1.53,-43.14s-15.62,32.56 -2.68,50.75l1.15,-7.61z"/>
  <path id="svg_19" fill="#0ccc88" d="m1055.75,181.2s11.26,-31.5 14,-33.26c0,0 -22.1,20.44 -19.94,46.73l5.94,-13.47z"/>
  <path id="svg_20" fill="#0ccc88" d="m963.74,520.28s19.82,-2.6 19.22,25.42c0,0 -17.91,2.91 -23.75,-20.25l4.53,-5.17z"/>
  <path id="svg_21" fill="#0ccc88" d="m982.4,497.17s22.91,-0.07 21,28.6c0,0 -19.22,3.43 -25.57,-23.18l4.57,-5.42z"/>
  <path id="svg_22" fill="#0ccc88" d="m995.16,476.52s20.79,-9.75 34.1,15.42c0,0 -19.21,8.12 -35.93,-11.35l1.83,-4.07z"/>
  <path id="svg_23" fill="#0ccc88" d="m1008.22,452.16s21.29,-10.37 33.79,14.21c0,0 -22.17,7.64 -35.54,-10.32l1.75,-3.89z"/>
  <path id="svg_24" fill="#0ccc88" d="m1015.75,430.98s20.49,-19.58 36.85,0.22c0,0 -20.94,16.1 -37.79,4.14l0.94,-4.36z"/>
  <path id="svg_25" fill="#0ccc88" d="m1022.61,403.63s20.62,-20 36.84,0.92c0,0 -23.14,16.43 -37.57,3.28l0.73,-4.2z"/>
  <path id="svg_26" fill="#0ccc88" d="m1026.47,379.23s15.88,-25 34.57,-19.41c0,0 -16.47,26.47 -34.4,25.29l-0.17,-5.88z"/>
  <path id="svg_27" fill="#0ccc88" d="m1031.15,356.2s16,-31.49 31.13,-26c0,0 -11.53,24.2 -31.54,31.31l0.41,-5.31z"/>
  <path id="svg_28" fill="#0ccc88" d="m1032.25,326.47s16.45,-24.78 31.86,-21.76c0,0 -13.45,25.13 -33.45,28.93l1.59,-7.17z"/>
  <path id="svg_29" fill="#0ccc88" d="m1033.5,301.19s12.75,-27.8 23.12,-28c0,0 -6.13,27.61 -22.26,32.72l-0.86,-4.72z"/>
  <path id="svg_30" fill="#0ccc88" d="m1036.03,276.63s14.17,-28.17 24.82,-28.22c0,0 -7.25,24.08 -24.35,30.69l-0.47,-2.47z"/>
  <path id="svg_31" fill="#0ccc88" d="m1038.16,246.87s10.6,-23.3 19.38,-25.94c0,0 -5.3,28.4 -18.21,32.12l-1.17,-6.18z"/>
  <path id="svg_32" fill="#0ccc88" d="m1044.92,223.25l23.69,-36.08s-6.07,35.6 -27.14,43l3.45,-6.92z"/>
  <path id="svg_33" fill="#0ccc88" d="m1061.18,184.1s27.54,-19 28.53,-22.08c0,0 -14,26.62 -40,31.32l11.47,-9.24z"/>
  <path id="svg_34" fill="#0ccc88" d="m1062.83,175.55s31.61,-30.38 39.68,-30.35c0,0 -26.07,1.19 -40.44,28.74l0.76,1.61z"/>
  <path id="svg_35" fill="#444053" d="m1038.47,251.38l1.15,0.15c5.94,-46.5 14.6,-74 24.39,-77.37l-0.38,-1.1c-10.38,3.6 -19.08,30.68 -25.16,78.32z"/>
  <path id="svg_36" fill="#444053" d="m1029.74,362.55l1.74,0.15c0.36,-4.34 0.64,-8.79 0.83,-13.21c1.66,-38.48 4.23,-73.82 7.62,-100.31l-1,-1.25c-3.39,26.54 -6.69,62.95 -8.35,101.49c-0.18,4.38 -0.48,8.82 -0.84,13.13z"/>
  <path id="svg_37" fill="#444053" d="m896.51,573.06c0.31,-0.13 30.94,-13.81 62.73,-46.44a252.42,252.42 0 0 0 45.85,-65c14.69,-29.93 23.65,-66.71 26.66,-102.44l-1.82,0.85c-6.74,80.2 -43.26,135 -72.29,164.85c-31.48,32.33 -61.76,45.87 -62.06,46l0.93,2.18z"/>
  <path id="svg_38" fill="#fff" d="m969.85,31.19l0,518.42c0,15.41 -14.87,28 -33.23,28l-703.37,0c-18.36,0 -33.23,-12.54 -33.23,-28l0,-518.42c0,-15.44 14.87,-31.19 33.23,-31.19l703.33,1.71c18.36,0 33.27,14.09 33.27,29.48z"/>
  <path id="svg_39" fill="#3f3d56" d="m969.85,31.35l0,24l-769.83,0l0,-24a31.35,31.35 0 0 1 31.38,-31.35l707.11,0a31.35,31.35 0 0 1 31.34,31.35z"/>
  <circle id="svg_40" opacity="0.8" fill="#fa5959" r="11.08" cy="27.67" cx="237.32"/>
  <circle id="svg_41" opacity="0.8" fill="#fed253" r="11.08" cy="27.67" cx="269.55"/>
  <circle id="svg_42" opacity="0.8" fill="#8ccf4d" r="11.08" cy="27.67" cx="301.78"/>
  <g id="svg_43" opacity="0.2">
   <path id="svg_44" fill="#0ccc88" d="m653.4,189.8l0,56c0,1.67 -3.13,3 -7,3l-147.72,0c-3.86,0 -7,-1.35 -7,-3l0,-56c0,-1.67 3.12,-3.37 7,-3.37l147.72,0c3.88,-0.01 7,1.69 7,3.37z"/>
  </g>
  <rect id="svg_45" fill="#0b75ce" height="2.72" width="76.96" y="206.42" x="562.67"/>
  <path id="svg_46" opacity="0.2" fill="#0b75ce" d="m523.73,200.46a18.25,18.25 0 0 0 -10.06,33.47l0,-1.21a4.15,4.15 0 0 1 3.65,-4.11a7.24,7.24 0 0 0 12.7,0a4.15,4.15 0 0 1 3.65,4.11l0,1.29a18.25,18.25 0 0 0 -9.94,-33.55zm7.16,23.14a7.23,7.23 0 0 1 -14.43,0a7.92,7.92 0 0 1 4.15,-10.61a2.46,2.46 0 0 1 -0.39,-1.31a2.41,2.41 0 0 1 2.42,-2.41l0.17,0a2.41,2.41 0 0 0 -2.24,2.4a2.44,2.44 0 0 0 0.32,1.2l0.07,0a2.61,2.61 0 0 1 0,-0.48a2.35,2.35 0 0 1 0.46,-1.4a2.4,2.4 0 0 1 2.3,-1.7l0.17,0a2.39,2.39 0 0 0 -1.84,1.08a2.34,2.34 0 0 1 1.33,-0.4a2.41,2.41 0 0 1 2.41,2.41a2.45,2.45 0 0 1 0,0.27a7.93,7.93 0 0 1 5.88,7.66a8.07,8.07 0 0 1 -0.78,3.29z"/>
  <rect id="svg_47" opacity="0.2" fill="#0b75ce" height="2.72" width="76.96" y="213.04" x="562.67"/>
  <rect id="svg_48" opacity="0.2" fill="#0b75ce" height="2.72" width="76.96" y="219.66" x="562.67"/>
  <rect id="svg_49" opacity="0.2" fill="#0b75ce" height="2.72" width="76.96" y="226.29" x="562.67"/>
  <g opacity="0.2" id="svg_50">
   <path id="svg_51" fill="#0ccc88" d="m479.99,299.47l0,56c0,1.66 -3.12,3 -7,3l-147.72,0c-3.86,0 -7,-1.36 -7,-3l0,-56c0,-1.67 3.12,-3.37 7,-3.37l147.74,0c3.86,0 6.98,1.7 6.98,3.37z"/>
  </g>
  <rect id="svg_52" fill="#0b75ce" height="2.72" width="76.96" y="316.1" x="389.25"/>
  <path id="svg_53" opacity="0.2" fill="#0b75ce" d="m350.32,310.13a18.25,18.25 0 0 0 -10.06,33.48l0,-1.22a4.14,4.14 0 0 1 3.65,-4.1a7.24,7.24 0 0 0 12.7,0a4.14,4.14 0 0 1 3.65,4.1l0,1.3a18.25,18.25 0 0 0 -9.94,-33.56zm7.15,23.14a7.23,7.23 0 0 1 -14.43,0a8,8 0 0 1 -0.71,-3.29a7.94,7.94 0 0 1 4.86,-7.32a2.39,2.39 0 0 1 -0.38,-1.3a2.42,2.42 0 0 1 2.41,-2.42l0.18,0a2.41,2.41 0 0 0 -1.93,3.6l0.08,0a2.42,2.42 0 0 1 0,-0.47a3.54,3.54 0 0 1 2.76,-3.11l0.09,0a2.42,2.42 0 0 0 -1.84,1.08a2.39,2.39 0 0 1 1.32,-0.4a2.42,2.42 0 0 1 2.42,2.42a2.45,2.45 0 0 1 0,0.27a7.92,7.92 0 0 1 5.16,11l0.01,-0.06z"/>
  <rect id="svg_54" opacity="0.2" fill="#0b75ce" height="2.72" width="76.96" y="322.72" x="389.25"/>
  <rect id="svg_55" opacity="0.2" fill="#0b75ce" height="2.72" width="76.96" y="329.34" x="389.25"/>
  <rect id="svg_56" opacity="0.2" fill="#0b75ce" height="2.72" width="76.96" y="335.96" x="389.25"/>
  <g id="svg_57" opacity="0.2">
   <path id="svg_58" fill="#0ccc88" d="m440.1,121.88l0,56c0,1.66 -3.12,3 -7,3l-147.7,0c-3.85,0 -7,-1.36 -7,-3l0,-56c0,-1.67 3.13,-3.37 7,-3.37l147.72,0c3.86,0 6.98,1.7 6.98,3.37z"/>
  </g>
  <rect id="svg_59" fill="#0b75ce" height="2.72" width="76.96" y="138.51" x="349.36"/>
  <rect id="svg_60" opacity="0.2" fill="#0b75ce" height="2.72" width="76.96" y="145.13" x="349.36"/>
  <rect id="svg_61" opacity="0.2" fill="#0b75ce" height="2.72" width="76.96" y="151.75" x="349.36"/>
  <rect id="svg_62" opacity="0.2" fill="#0b75ce" height="2.72" width="76.96" y="158.37" x="349.36"/>
  <path id="svg_63" opacity="0.2" fill="#0b75ce" d="m310.4,132.54a18.26,18.26 0 0 0 -10,33.48l0,-3.09a4.15,4.15 0 0 1 3.65,-4.11a7.24,7.24 0 0 0 12.7,0a4.14,4.14 0 0 1 3.65,4.11l0,3.16a18.25,18.25 0 0 0 -10,-33.55zm8,22.28a1.23,1.23 0 0 1 -0.24,0.31a1,1 0 0 1 -0.53,0.18l-0.37,0a7.25,7.25 0 0 1 -14.19,-2.06a7.14,7.14 0 0 1 0.95,-3.56l-0.08,-0.05a2.41,2.41 0 0 1 0.24,-3.35a4.82,4.82 0 0 1 1.5,-0.55a6.7,6.7 0 0 0 3.8,-2.91a8,8 0 0 1 0,1.1a1.61,1.61 0 0 1 2.29,-0.08a4.6,4.6 0 0 0 0.65,0.74a2,2 0 0 0 0.81,0.23l1.82,0.23a3.48,3.48 0 0 1 2.07,0.75a3.28,3.28 0 0 1 0.69,1.22a18.24,18.24 0 0 1 1.19,3.85a6.17,6.17 0 0 1 -0.55,3.93l-0.05,0.02z"/>
  <g opacity="0.2" id="svg_64">
   <path id="svg_65" fill="#0ccc88" d="m693.77,386.8l0,56c0,1.67 -3.12,3 -7,3l-147.73,0c-3.86,0 -7,-1.35 -7,-3l0,-56c0,-1.67 3.12,-3.36 7,-3.36l147.75,0c3.86,-0.05 6.98,1.64 6.98,3.36z"/>
  </g>
  <rect id="svg_66" fill="#0b75ce" height="2.72" width="76.96" y="403.38" x="603.03"/>
  <rect id="svg_67" opacity="0.2" fill="#0b75ce" height="2.72" width="76.96" y="410" x="603.03"/>
  <rect id="svg_68" opacity="0.2" fill="#0b75ce" height="2.72" width="76.96" y="416.63" x="603.03"/>
  <rect id="svg_69" opacity="0.2" fill="#0b75ce" height="2.72" width="76.96" y="423.25" x="603.03"/>
  <path id="svg_70" opacity="0.2" fill="#0b75ce" d="m564.09,397.42a18.25,18.25 0 0 0 -10.06,33.47l0,-3.09a4.15,4.15 0 0 1 3.65,-4.1a7.24,7.24 0 0 0 12.7,0a4.14,4.14 0 0 1 3.65,4.1l0,3.17a18.25,18.25 0 0 0 -9.94,-33.55zm8,22.27a1.12,1.12 0 0 1 -0.24,0.32a1,1 0 0 1 -0.53,0.18l-0.38,0a7.24,7.24 0 1 1 -13.23,-5.62l-0.08,0a2.41,2.41 0 0 1 0.24,-3.35a4.82,4.82 0 0 1 1.5,-0.55a6.69,6.69 0 0 0 3.8,-2.9a8,8 0 0 1 0,1.1a1.61,1.61 0 0 1 2.29,-0.08a4.14,4.14 0 0 0 0.65,0.73a1.91,1.91 0 0 0 0.81,0.24l1.82,0.23a3.42,3.42 0 0 1 2.07,0.75a3.28,3.28 0 0 1 0.69,1.22a18.06,18.06 0 0 1 1.19,3.85a6.14,6.14 0 0 1 -0.57,3.88l-0.03,0z"/>
  <path id="svg_71" fill="url(#ebf7d176-5ffd-4420-bcca-304f4f77ac7a)" d="m519.56,570.28l-21.94,-31.81s-0.41,-7.88 -1.85,-9.72s-0.31,-5.93 -0.31,-5.93s1.54,-2.25 0.21,-2.46s-0.21,-5.22 -0.21,-5.22l-0.1,-8s1.23,-7.68 0.21,-9.52a3,3 0 0 1 0.1,-3.27s1.23,-4.4 0,-5.53s-0.93,-8 -0.62,-13.4s-2.15,-8.49 -2.15,-9.31s-8.1,-8.79 -8.1,-9.51s-5.13,-3.68 -8.21,-4.5s-4.61,-1.43 -4.51,-1.84s-4.82,-2 -4.82,-2s-4.3,-0.31 -5.95,-2.45s-6.65,-2.78 -6.8,-2.79l-0.09,-0.43l-0.09,-0.46c0.38,-0.65 0.74,-1.32 1.07,-2c0.1,-0.21 0.19,-0.41 0.28,-0.62a8.78,8.78 0 0 0 5.05,-1.57a6.85,6.85 0 0 0 2.45,-4.91a10.83,10.83 0 0 0 -1.19,-5.45c-0.9,-1.84 -2.22,-3.75 -1.77,-5.75c0.2,-0.86 0.72,-1.62 1,-2.46a6.5,6.5 0 0 0 -0.74,-4.85c-0.77,-1.48 -1.85,-2.79 -2.72,-4.23a16.42,16.42 0 0 1 -2.16,-6a9.24,9.24 0 0 0 -0.8,-3.26a6.24,6.24 0 0 0 -1.8,-1.82a18,18 0 0 0 -11,-3.34c-2.79,0.1 -5.58,0.85 -8.35,0.51a30.6,30.6 0 0 1 -4.87,-1.27c-3.44,-1 -7.41,-1.44 -10.4,0.53s-4.19,5.84 -6.22,8.87c-1.8,2.67 -4.42,4.92 -5.79,7.76c0,-0.06 0,-0.11 0,-0.17a9.86,9.86 0 0 0 -0.76,2.07a14.74,14.74 0 0 0 0.45,6.78a4.72,4.72 0 0 0 1.66,3c1,0.65 2.4,0.5 3.59,0.71c-0.05,0.19 -0.1,0.39 -0.14,0.58a23,23 0 0 0 -0.51,4.87a23.44,23.44 0 0 0 16.74,22.47c0,0.21 0,0.42 0,0.62a16.37,16.37 0 0 1 -0.1,1.76l0,0s-10.31,-2.12 -13.07,-0.68s-8.21,2.55 -9,3.37s-2.87,0.21 -4.72,5s-2.05,9.72 -4.4,12s-3.59,3.79 -3.7,5.43s0.31,2 -0.61,2.55s-2.26,2.66 -1.85,3.48a2.9,2.9 0 0 1 -1.13,3.07a3.41,3.41 0 0 0 -1.43,3.07s-0.62,2.25 -2.05,2.76s-2.36,3.89 -2.36,3.89l-4.65,5.35l-9.22,-10.2a3.89,3.89 0 0 0 -5.48,-0.28l-4.54,4.03a8.94,8.94 0 0 0 -4.53,2.7a11.75,11.75 0 0 0 -2.34,3.49l-2.48,2.23a6.28,6.28 0 0 0 -0.64,6.95l5.91,6.53l0,0.06a10.33,10.33 0 0 0 -5.71,2.32c-8.81,7.78 -8.92,14.94 -7.58,18.21s12.51,15.86 12.51,15.86s6.49,8.44 15.86,12.93l0,0l-0.07,0.07c-0.19,0.2 -0.37,0.41 -0.55,0.64l-0.15,0.2a1.43,1.43 0 0 0 -0.14,0.2l-0.17,0.24l-0.13,0.2l-0.18,0.3l-0.11,0.19l-0.21,0.4s-0.05,0.09 -0.07,0.13s-0.17,0.37 -0.25,0.56l-0.09,0.21c0,0.13 -0.1,0.27 -0.16,0.4l-0.09,0.27c0,0.13 -0.09,0.26 -0.13,0.4l-0.09,0.29q-0.06,0.21 -0.12,0.45c0,0.09 -0.05,0.18 -0.07,0.27s-0.11,0.49 -0.16,0.74a2.5,2.5 0 0 0 0,0.29a4.51,4.51 0 0 0 -0.09,0.53c0,0.12 0,0.24 -0.05,0.37s-0.05,0.33 -0.07,0.51s0,0.25 0,0.39s0,0.38 0,0.58l0,0.36c0,0.32 0,0.65 0,1c-0.21,12 0.49,13.71 0.49,13.71a6.64,6.64 0 0 0 5.44,4.08a7.17,7.17 0 0 0 1.76,-0.09c5.33,-0.93 17.84,-3.07 22.25,-2.25c2.65,0.49 7.56,-0.24 11.05,-0.9l0.92,-0.18l0.64,2l2,-0.56l1.72,1l1.09,0.62c2,6.86 10.24,4.52 10.24,4.52l1.95,1.13l19.79,0.51a39.78,39.78 0 0 0 7,3.36a6.29,6.29 0 0 0 1,0.22a44.38,44.38 0 0 0 5.51,0.1c1.52,0 2.69,-0.1 2.69,-0.1s-0.2,-5.37 -0.49,-11.39a161.45,161.45 0 0 0 18.33,-1.5c10.57,-1.86 15,-11.47 16.6,-16.6a46.9,46.9 0 0 1 1,6.37a46.46,46.46 0 0 0 1.64,5.52a18.45,18.45 0 0 0 2.26,4.1c7.79,-2.66 3.07,-6.65 1.43,-8.39s1.13,-3.17 1.13,-3.17s2.16,-1.44 2,-2.77s-0.31,-2.76 6.67,-2.66s6.51,-5.67 6.51,-5.67zm-108.28,-65.32c0.09,0.59 1.06,6.89 1.94,8.55a10.9,10.9 0 0 1 0.23,3.37c-4.13,-0.33 -8.43,-0.51 -8.43,-0.51a1,1 0 0 1 0.22,0.53l-0.65,-0.15l-0.95,-0.23l7.62,-11.57l0.02,0.01zm-15.08,24l7.15,1.14l0.6,0.09a25.52,25.52 0 0 0 -0.37,3.38c0,0.1 0.16,0.23 0.39,0.38a10.74,10.74 0 0 0 -0.14,1.69c0.12,0.57 3.46,1.79 7.3,2.81c-0.06,0.2 -0.11,0.4 -0.16,0.58l0,0c-3.39,-1.78 -8.72,-2.61 -9.34,-3.93s-18.76,-7.67 -18.76,-7.67s-0.67,-0.35 -1.81,-0.9l4.78,0.9l1.31,-0.13a71.46,71.46 0 0 0 9.05,1.65l0,0.01z"/>
  <path id="svg_72" fill="#65617d" d="m496.22,574.73s-2.85,17.18 -17.28,19.72s-62.6,2 -62.6,2s-27.54,-4 -37.5,-27.23s-16.37,-32.53 -7.83,-32.93s54.58,15.55 57.22,15.75s70.53,-35.34 67.99,22.69z"/>
  <path id="svg_73" opacity="0.05" d="m496.22,574.73s-2.85,17.18 -17.28,19.72s-62.6,2 -62.6,2s-27.54,-4 -37.5,-27.23s-16.37,-32.53 -7.83,-32.93s54.58,15.55 57.22,15.75s70.53,-35.34 67.99,22.69z"/>
  <path id="svg_74" fill="#3f3d56" d="m367.03,593.8a6.59,6.59 0 0 0 5.37,4.1a7,7 0 0 0 1.74,-0.1c5.28,-0.91 17.68,-3 22.05,-2.23c2.63,0.49 7.5,-0.24 11,-0.89c2.3,-0.43 4,-0.84 4,-0.84s-4.06,-13.52 -4.57,-13.92s-18.33,-11.12 -18.33,-11.12l-14.09,-1l0,0a7.41,7.41 0 0 0 -4.77,2.81c-1.49,1.8 -2.77,4.75 -2.85,9.59c-0.25,11.91 0.45,13.6 0.45,13.6z"/>
  <path id="svg_75" opacity="0.05" d="m367.03,593.8a6.59,6.59 0 0 0 5.37,4.1a57.66,57.66 0 0 1 -3.82,-5.58l0.07,-9.86a17.38,17.38 0 0 1 5.55,-14.66l0,0s-7.42,0.51 -7.62,12.4s0.45,13.6 0.45,13.6z"/>
  <path id="svg_76" opacity="0.1" d="m428.13,572.29l13.11,-10.26l20.63,-20.33l-5.59,-0.25c-0.84,0.53 -3.18,2.21 -3.27,4.25c-0.1,2.48 -5.57,0.17 -8.42,1.59s-16.77,19.24 -19.19,19.13s-4.37,-1.24 -5.38,0.49a1,1 0 0 1 -0.08,0.11l8.19,5.27z"/>
  <path id="svg_77" opacity="0.1" d="m369.4,570.63l1.42,0.65c10,4.27 22.25,13.21 23.17,14.84c0.56,1 7.69,5.32 13.19,8.56c2.3,-0.43 4,-0.84 4,-0.84s-4.06,-13.52 -4.57,-13.92s-18.32,-11.12 -18.32,-11.12l-14.09,-1l0,0a7.41,7.41 0 0 0 -4.8,2.83z"/>
  <path id="svg_78" fill="#65617d" d="m341.74,541.5c1.32,3.25 12.4,15.75 12.4,15.75s7,9.15 17,13.42s22.26,13.21 23.17,14.84c0.59,1 8.53,5.82 14.12,9.11l1.26,0.73l2.77,1.61l1.47,0.84s3.4,-2.73 6.79,-5.48s6.68,-5.44 6.73,-5.59c0.1,-0.31 1.42,-3.76 1.11,-4c-0.16,-0.1 -0.85,-1.51 -2.14,-3.14a14.41,14.41 0 0 0 -5.17,-4.28a14.68,14.68 0 0 1 -6.71,-7s-0.45,-0.32 -1.12,-0.75a13.6,13.6 0 0 0 -4.57,-2c-2.24,-0.28 -6.4,-4.85 -6.4,-4.85a12.53,12.53 0 0 1 -4,-4.17c-1.07,-2.23 -16.83,-13 -18.29,-14l38.24,24.49l9.15,5.87l13.11,-10.26l20.63,-20.33l-6.81,-0.3c-10,-0.44 -27.83,-1.12 -30.08,-0.61a17,17 0 0 1 -5.59,0.36s-5.08,0.23 -8.43,-1.54s-8.65,-2.6 -9.26,-3.91s-18.6,-7.62 -18.6,-7.62s-24.49,-13 -33.23,-5.28s-8.89,14.84 -7.55,18.09z"/>
  <path id="svg_79" fill="#ee8e9e" d="m420.71,466.9l3.15,10.47l4.06,23.58l14.94,1l4.33,-7.18l4.31,-7.15s2.69,-9.53 4.63,-18.75c1.71,-8.15 2.82,-16.07 1,-16.93c-1.65,-0.76 -2.73,-3.51 -3.44,-6.46c-0.09,-0.36 -0.17,-0.73 -0.24,-1.1a57.52,57.52 0 0 1 -1,-7.58s-31.31,-1.63 -26.94,11.28a20.38,20.38 0 0 1 1.18,6.86a16.33,16.33 0 0 1 -0.1,1.75a14.63,14.63 0 0 1 -5.88,10.21z"/>
  <path id="svg_80" fill="#e3e8f4" d="m414.2,465.17l1.12,17.79l2.54,15.14l2.85,7l2.54,38.36s24.5,2.84 30.46,0a2.61,2.61 0 0 0 1.08,-0.84c7.2,-10.87 4.84,-42.35 4.84,-42.35l2.77,-20.36l-1.83,-10.55l-4.42,-0.47l-3.41,-0.36s-0.77,0.94 -1.87,2.41c-3,4 -8.56,11.8 -8.19,15.07c0.51,4.47 -0.61,9 -2.34,9.75s-3.15,1.94 -3.45,0.72a5.5,5.5 0 0 1 -0.31,-3.25c0.31,-1.73 -1.32,-7 -1.32,-7s-2.74,-6.2 -2.54,-8.84s-0.3,-5.69 -1.12,-6.4s-1.93,-1.43 -1,-4.68s-4,-9.58 -4,-9.58l-12.4,8.44z"/>
  <path id="svg_81" opacity="0.1" d="m446.57,509.59l1,30.39l5.87,3.26a2.54,2.54 0 0 0 1.08,-0.85c7.2,-10.87 4.84,-42.35 4.84,-42.35l2.74,-20.33l-1.83,-10.55l-4.42,-0.47c1.71,-8.15 2.83,-16.06 1,-16.92c-1.65,-0.77 -2.74,-3.51 -3.44,-6.46l0,0l-3.18,21.49s0.27,1.93 0.36,3.93a11.13,11.13 0 0 1 -0.26,3.79c-0.71,1.83 -0.2,5.08 -0.2,5.08c-1.83,3.23 -2.75,9.21 -3.19,15c-0.6,7.68 -0.37,14.99 -0.37,14.99z"/>
  <path id="svg_82" fill="#3f3d56" d="m453.5,444.8s5.12,0.64 6.74,2.77s5.9,2.44 5.9,2.44s4.88,1.63 4.77,2s1.43,1 4.48,1.83s8.13,3.76 8.13,4.48s8,8.63 8,9.45s2.43,3.86 2.13,9.25s-0.61,12.19 0.61,13.31s0,5.49 0,5.49a3,3 0 0 0 -0.1,3.25c1,1.83 -0.21,9.45 -0.21,9.45l0.11,7.93s-1.12,5 0.2,5.18s-0.2,2.44 -0.2,2.44s-1.12,4.07 0.3,5.9s1.83,9.65 1.83,9.65l21.75,31.61s0.3,5.79 -6.61,5.69s-6.81,1.32 -6.6,2.64s-1.93,2.75 -1.93,2.75s-2.75,1.42 -1.12,3.15s6.3,5.69 -1.42,8.33a18.38,18.38 0 0 1 -2.24,-4.06a47.34,47.34 0 0 1 -1.63,-5.49s-0.71,-7.73 -2.13,-8.74s-1.22,-5.9 -1.22,-5.9s2,-4 -0.81,-5.59s-44.11,-24.49 -44.11,-24.49l-1,-30.39s-0.71,-22.46 3.56,-30c0,0 -0.51,-3.25 0.2,-5.08s-0.1,-7.73 -0.1,-7.73l2.72,-21.52z"/>
  <path id="svg_83" opacity="0.1" d="m426.86,457.02s-10.22,-2.11 -13,-0.69s-8.13,2.54 -8.94,3.36s-2.85,0.2 -4.68,5s-2,9.65 -4.37,11.89s-3.56,3.76 -3.66,5.38s0.31,2 -0.61,2.54s-2.23,2.65 -1.83,3.46s21.14,18.7 21.14,18.7s1,6.81 1.93,8.54s-1,25.51 -3.05,27.13s13.76,1.47 13.76,1.47s0.72,-15.6 1.33,-16.42s-0.41,-17.48 -0.41,-17.48s-0.1,-14.23 1.22,-18s1.17,-16.26 1.17,-16.26s1.17,-7.5 2.59,-9.25s-2.59,-9.37 -2.59,-9.37z"/>
  <path id="svg_84" fill="#3f3d56" d="m426.56,456.71s-10.22,-2.1 -13,-0.68s-8.13,2.54 -8.94,3.35s-2.85,0.21 -4.67,5s-2,9.66 -4.37,11.89s-3.56,3.76 -3.66,5.39s0.3,2 -0.61,2.54s-2.24,2.64 -1.83,3.46s21.14,18.7 21.14,18.7s1,6.81 1.93,8.53s-1,25.51 -3.05,27.14s13.72,1.47 13.72,1.47s0.71,-15.6 1.32,-16.41s-0.41,-17.48 -0.41,-17.48s-0.1,-14.23 1.22,-18s1.18,-16.26 1.18,-16.26s1.16,-7.5 2.58,-9.25s-2.55,-9.39 -2.55,-9.39z"/>
  <path id="svg_85" opacity="0.1" d="m425.48,448.1a20.38,20.38 0 0 1 1.18,6.86a23.28,23.28 0 0 0 26.74,-10.56a57.52,57.52 0 0 1 -1,-7.58s-31.29,-1.63 -26.92,11.28z"/>
  <path id="svg_86" fill="#ee8e9e" d="m410.04,432.04a23.22,23.22 0 1 0 0.5,-4.84a23.27,23.27 0 0 0 -0.5,4.84z"/>
  <path id="svg_87" fill="#3f3d56" d="m395.1,485.91l-5.59,1.73a2.88,2.88 0 0 1 -1.12,3a3.39,3.39 0 0 0 -1.42,3s-0.61,2.24 -2,2.75s-2.33,3.86 -2.33,3.86l-4.68,5.39s-1.73,1.42 -1.42,2.13s-1.83,0.91 -1.83,0.91l1.12,18.1l9.65,1.82l6,-0.61l4.88,-1.82l4.27,-2.55l1.93,-5l8.53,-13l-15.99,-19.71z"/>
  <path id="svg_88" fill="#ee8e9e" d="m376.09,510.2s-12.4,-17.89 -21.65,-8.23s3.76,25.3 6.81,24.79s17.59,-1.32 17.59,-1.32l-2.75,-15.24z"/>
  <path id="svg_89" opacity="0.1" d="m410.54,427.2a2.82,2.82 0 0 1 1.71,0.77c0.78,0.83 0.82,2.3 1.85,2.82a2.16,2.16 0 0 0 1.21,0.14c2.7,-0.39 4.26,-3.44 6.86,-4.28a7,7 0 0 1 4.55,0.39a3.46,3.46 0 0 1 1.5,1c0.87,1.13 0.26,2.78 0.66,4.14c0.56,1.89 2.81,2.64 4.77,2.88s4.15,0.39 5.45,1.86a5,5 0 0 1 1,3.93a3.14,3.14 0 0 0 0,1.46c0.54,1.52 3.18,1.3 3.87,0.09c0.5,-0.87 0.35,-1.6 1.53,-1.84a5,5 0 0 1 2.49,0.43a18.11,18.11 0 0 0 6.44,1a23.28,23.28 0 1 0 -43.84,-14.74l-0.05,-0.05z"/>
  <path id="svg_90" fill="#3f3d56" d="m440.05,441.67a3.14,3.14 0 0 1 0,-1.46a5,5 0 0 0 -1,-3.93c-1.3,-1.47 -3.5,-1.61 -5.45,-1.86s-4.21,-1 -4.77,-2.88c-0.4,-1.36 0.21,-3 -0.66,-4.14a3.35,3.35 0 0 0 -1.5,-1a7,7 0 0 0 -4.55,-0.4c-2.6,0.84 -4.16,3.89 -6.86,4.28a2.17,2.17 0 0 1 -1.21,-0.14c-1,-0.52 -1.07,-2 -1.85,-2.82c-1.24,-1.31 -3.58,-0.47 -5.09,-1.44a4.63,4.63 0 0 1 -1.64,-3a14.57,14.57 0 0 1 -0.45,-6.74c0.88,-3.78 4.26,-6.37 6.42,-9.6c2,-3 3.14,-6.81 6.16,-8.81s6.9,-1.54 10.31,-0.53a28.86,28.86 0 0 0 4.83,1.27c2.74,0.34 5.5,-0.41 8.27,-0.5a17.72,17.72 0 0 1 10.92,3.32a6,6 0 0 1 1.78,1.8a9.08,9.08 0 0 1 0.8,3.24a16.44,16.44 0 0 0 2.14,5.94c0.86,1.43 1.93,2.73 2.7,4.21a6.43,6.43 0 0 1 0.73,4.81c-0.26,0.84 -0.77,1.59 -1,2.45c-0.45,2 0.86,3.88 1.75,5.71a10.78,10.78 0 0 1 1.19,5.42a6.84,6.84 0 0 1 -2.44,4.87a8.72,8.72 0 0 1 -5.15,1.56a18.33,18.33 0 0 1 -6.57,-1a5,5 0 0 0 -2.48,-0.43c-1.19,0.24 -1,1 -1.54,1.84c-0.61,1.26 -3.25,1.48 -3.79,-0.04z"/>
  <path id="svg_91" opacity="0.1" d="m427.52,572.9l13.11,-10.26l20.63,-20.33l-6.81,-0.3a4.44,4.44 0 0 0 -1.44,2.77c-0.1,2.49 -5.57,0.18 -8.42,1.6s-16.77,19.24 -19.19,19.12s-4.37,-1.23 -5.38,0.49l-0.08,0.12a2.89,2.89 0 0 1 -1.55,0.92l9.13,5.87z"/>
  <path id="svg_92" fill="#65617d" d="m401.09,572.19l6.59,21l1,3.3l3.14,-0.86l6.92,-1.9l30.8,-8.46a26.72,26.72 0 0 0 11.09,-3a33.53,33.53 0 0 1 19.14,-4.18c4.07,0.38 8.6,-1.37 12.36,-8.32c0,0 8.53,-25.2 -13,-32.41s-22.58,3.83 -22.58,3.83l-0.29,0.18c-0.84,0.53 -3.18,2.21 -3.27,4.25c-0.1,2.48 -5.57,0.17 -8.42,1.59s-16.75,19.32 -19.17,19.21s-4.37,-1.24 -5.38,0.49a1,1 0 0 1 -0.08,0.11c-0.75,1 -3,1.28 -4.51,1.32c-0.82,0 -1.41,0 -1.41,0l-0.19,0.06l-1.56,0.46l-11.18,3.33z"/>
  <path id="svg_93" opacity="0.1" d="m402.8,531.34l3.17,0.51l1.32,-13.11s-1.45,-0.22 -3.27,-0.64c0.48,1.82 -0.62,8.9 -1.22,13.24z"/>
  <path id="svg_94" opacity="0.1" d="m485.9,470.08s9.45,-2.74 7.12,24.09s-19.82,43.8 -19.82,43.8s-20.13,8.84 -29.17,7.42s-15.63,-1.73 -15.63,-1.73a23.13,23.13 0 0 0 -9.15,-2.44c-5.08,-0.2 -15.75,-3.35 -16,-4.37s2.65,-15.95 1.43,-17.07c0,0 14.23,0.58 15.65,1.61s3.45,0.29 5,0s6.2,-4.35 15.45,-0.8c0,0 3.15,0.31 4.37,-0.51a4.38,4.38 0 0 1 3.18,-0.2a8.74,8.74 0 0 0 2.2,-1.12c0.31,-0.4 2.75,0 2.75,0a1.08,1.08 0 0 0 1.52,-0.71a6.66,6.66 0 0 1 1.42,-2.23s2.75,-15.45 7.93,-21.24a3.32,3.32 0 0 0 1.12,-2.95c-0.41,-1.63 8.43,-24.83 20.63,-21.55z"/>
  <path id="svg_95" opacity="0.1" d="m412.25,568.85l13.42,16.25l0.09,-0.1c0.1,-0.3 1.42,-3.76 1.11,-4s-2.64,-5.29 -7.32,-7.42a13.93,13.93 0 0 1 -5.74,-5.23l-1.56,0.5z"/>
  <path id="svg_96" opacity="0.1" d="m412.4,596.96l1.47,0.84s3.4,-2.73 6.79,-5.48s6.68,-5.44 6.73,-5.59c0.1,-0.31 1.42,-3.76 1.11,-4c-0.16,-0.1 -0.85,-1.51 -2.14,-3.14c-9.1,-2.55 -3.3,3.77 -2.53,4.06c0,0 -11.08,-2.54 -11.69,9.52a14.4,14.4 0 0 0 0.26,3.79z"/>
  <path id="svg_97" fill="#3f3d56" d="m423.65,602.07l1.94,1.12l19.61,0.51a39.61,39.61 0 0 0 6.94,3.34a6.44,6.44 0 0 0 1,0.22a45.73,45.73 0 0 0 5.47,0.1c1.5,0 2.66,-0.1 2.66,-0.1s-0.93,-24.74 -1.63,-27.34c-0.33,-1.25 -2,-1 -3.6,-0.35a23.21,23.21 0 0 0 -3.51,1.78s-8.33,0.8 -9.66,1.52s-5.08,-0.41 -7.42,0s-6.5,-2.75 -6.5,-2.75c-11.38,-3.76 -5,3.25 -4.17,3.56c0,0 -11.07,-2.54 -11.68,9.52s10.55,8.87 10.55,8.87z"/>
  <path id="svg_98" fill="#565387" d="m452.01,592.52c0.21,5.12 4.2,11.48 6.59,14.84c1.5,0 2.66,-0.1 2.66,-0.1s-0.93,-24.74 -1.63,-27.34c-0.33,-1.25 -2,-1 -3.6,-0.35c-1.97,3.69 -4.19,8.82 -4.02,12.95z"/>
  <path id="svg_99" opacity="0.1" d="m452.01,592.52c0.21,5.12 4.2,11.48 6.59,14.84c1.5,0 2.66,-0.1 2.66,-0.1s-0.93,-24.74 -1.63,-27.34c-0.33,-1.25 -2,-1 -3.6,-0.35c-1.97,3.69 -4.19,8.82 -4.02,12.95z"/>
  <path id="svg_100" opacity="0.05" d="m448.66,593.2c1.35,4.94 1.33,10.49 3.48,13.84a6.44,6.44 0 0 0 1,0.22a45.73,45.73 0 0 0 5.47,0.1c1.5,0 2.66,-0.1 2.66,-0.1s-0.93,-24.74 -1.63,-27.34c-0.33,-1.25 -2,-1 -3.6,-0.35a23.21,23.21 0 0 0 -3.51,1.78s-5.6,5.52 -3.87,11.85z"/>
  <path id="svg_101" opacity="0.1" d="m380.99,543.06s9.74,3.16 18,14.39l-18,-14.39z"/>
  <g id="svg_102" opacity="0.1">
   <path id="svg_103" d="m460.16,421.1l-0.06,0.22a6.85,6.85 0 0 1 -0.34,0.85a6,6 0 0 1 0.4,-1.07z"/>
   <path id="svg_104" d="m405.04,416.17a9.14,9.14 0 0 1 0.75,-2c-0.05,0.17 -0.1,0.35 -0.14,0.53a14.58,14.58 0 0 0 0.45,6.74a4.63,4.63 0 0 0 1.64,3c1.51,1 3.85,0.13 5.08,1.43c0.79,0.83 0.83,2.31 1.85,2.82a2,2 0 0 0 1.22,0.14c2.7,-0.38 4.26,-3.43 6.86,-4.27a6.86,6.86 0 0 1 4.54,0.39a3.35,3.35 0 0 1 1.51,1c0.87,1.12 0.26,2.78 0.66,4.14c0.56,1.88 2.81,2.63 4.76,2.88s4.15,0.38 5.46,1.86a4.92,4.92 0 0 1 1,3.93a3.23,3.23 0 0 0 0,1.45c0.54,1.53 3.18,1.3 3.87,0.1c0.5,-0.88 0.35,-1.6 1.53,-1.85a5.1,5.1 0 0 1 2.49,0.43a18.31,18.31 0 0 0 6.57,1a8.86,8.86 0 0 0 5.15,-1.56a6.15,6.15 0 0 0 1.58,-1.93a6.5,6.5 0 0 1 -2.19,3.45a8.72,8.72 0 0 1 -5.15,1.56a18.3,18.3 0 0 1 -6.57,-1a5,5 0 0 0 -2.49,-0.43c-1.18,0.24 -1,1 -1.53,1.84c-0.69,1.21 -3.33,1.43 -3.87,-0.09a3.27,3.27 0 0 1 0,-1.46a4.92,4.92 0 0 0 -1,-3.93c-1.31,-1.47 -3.5,-1.61 -5.46,-1.86s-4.2,-1 -4.76,-2.88c-0.4,-1.36 0.21,-3 -0.66,-4.14a3.35,3.35 0 0 0 -1.5,-1a7,7 0 0 0 -4.55,-0.4c-2.6,0.84 -4.16,3.89 -6.86,4.28a2.2,2.2 0 0 1 -1.22,-0.14c-1,-0.52 -1.06,-2 -1.85,-2.82c-1.23,-1.31 -3.57,-0.47 -5.08,-1.44a4.63,4.63 0 0 1 -1.64,-3a14.57,14.57 0 0 1 -0.45,-6.77z"/>
  </g>
  <path id="svg_105" opacity="0.1" d="m461.73,497.52c-1.86,2.51 -4,4.84 -5.63,7.5a14.23,14.23 0 0 0 -2.47,8.87c1.7,-1.75 2.48,-4.17 3.56,-6.36c1.82,-3.72 4.54,-6.87 6.83,-10.28c0.44,-0.65 3.25,-4.42 1.83,-4.6c-1.17,-0.15 -3.45,4.01 -4.12,4.87z"/>
  <path id="svg_106" fill="#fff" d="m410.28,456.48l20.37,38.52c0.61,1.14 -1.05,3.21 -3.7,4.62l-101.67,53.77c-2.65,1.4 -5.3,1.61 -5.9,0.46l-20.37,-38.51c-0.61,-1.15 0.92,-3.46 3.57,-4.86l101.67,-53.77c2.66,-1.41 5.43,-1.38 6.03,-0.23z"/>
  <g opacity="0.2" id="svg_107">
   <path id="svg_108" fill="#0ccc88" d="m410.28,456.48l20.37,38.52c0.61,1.14 -1.05,3.21 -3.7,4.62l-101.67,53.77c-2.65,1.4 -5.3,1.61 -5.9,0.46l-20.37,-38.51c-0.61,-1.15 0.92,-3.46 3.57,-4.86l101.67,-53.77c2.66,-1.41 5.43,-1.38 6.03,-0.23z"/>
  </g>
  <rect id="svg_109" transform="rotate(-27.87 -278.54 134.04)" fill="#0b75ce" height="2.11" width="59.91" y="754.06999" x="108.96999"/>
  <rect id="svg_110" transform="rotate(-27.87 -280.39 135.7)" opacity="0.2" fill="#0b75ce" height="2.11" width="59.91" y="760.29" x="109.52999"/>
  <rect id="svg_111" transform="rotate(-27.87 -282.24 137.35)" opacity="0.2" fill="#0b75ce" height="2.11" width="59.91" y="766.49001" x="110.09001"/>
  <rect id="svg_112" transform="rotate(-27.87 -284.09 139.01)" opacity="0.2" fill="#0b75ce" height="2.11" width="59.91" y="772.70999" x="110.65"/>
  <path id="svg_113" opacity="0.2" fill="#0b75ce" d="m324.93,511.02a14.2,14.2 0 0 0 5.26,26.69l-1.12,-2.12a3.23,3.23 0 0 1 1,-4.16a5.63,5.63 0 0 0 8.74,-4.62a3.24,3.24 0 0 1 4,1.5l1.15,2.18a14.2,14.2 0 0 0 -19.05,-19.47l0.02,0zm13.63,12.41a0.76,0.76 0 0 1 -0.05,0.3a0.84,0.84 0 0 1 -0.3,0.32l-0.25,0.14a5.64,5.64 0 1 1 -11.16,1l-0.07,0a1.89,1.89 0 0 1 -1.05,-2.4a3.61,3.61 0 0 1 0.83,-0.92a5.21,5.21 0 0 0 1.56,-3.38a6,6 0 0 1 0.37,0.77a1.26,1.26 0 0 1 1.54,-0.89a4.22,4.22 0 0 0 0.72,0.27a1.64,1.64 0 0 0 0.65,-0.13l1.33,-0.51a2,2 0 0 1 2.62,0.36a14.5,14.5 0 0 1 2.22,2.21a4.79,4.79 0 0 1 1.04,2.86z"/>
  <path id="svg_114" fill="#ee8e9e" d="m368.06,513.96c-0.1,13.41 27.65,16.26 27.65,16.26l7.09,1.12l3.17,0.51l1.32,-13.11s-1.45,-0.22 -3.27,-0.64c-2.68,-0.63 -6.16,-1.71 -6.89,-3.23c-1.22,-2.54 -28.97,-14.33 -29.07,-0.91z"/>
  <path id="svg_115" fill="#3f3d56" d="m485.65,468.02s9.45,-2.74 7.12,24.09s-19.82,43.8 -19.82,43.8s-20.13,8.84 -29.17,7.42s-15.65,-1.73 -15.65,-1.73a23.13,23.13 0 0 0 -9.15,-2.44c-5.08,-0.2 -15.75,-3.35 -16,-4.37s2.65,-16 1.43,-17.07c0,0 14.23,0.58 15.65,1.61s3.45,0.29 5,0s6.2,-4.36 15.45,-0.8c0,0 3.15,0.31 4.37,-0.51a4.38,4.38 0 0 1 3.18,-0.2a8.74,8.74 0 0 0 2.2,-1.12c0.31,-0.4 2.75,0 2.75,0a1.07,1.07 0 0 0 1.52,-0.71a6.76,6.76 0 0 1 1.42,-2.24s2.75,-15.44 7.93,-21.24a3.29,3.29 0 0 0 1.12,-2.94c-0.39,-1.63 8.46,-24.77 20.65,-21.55z"/>
  <path id="svg_116" fill="#fff" d="m878.16,136.14l0,56c0,1.67 -3.12,3 -7,3l-147.76,0c-3.86,0 -7,-1.35 -7,-3l0,-56c0,-1.67 3.12,-3.37 7,-3.37l147.78,0c3.86,0.03 6.98,1.7 6.98,3.37z"/>
  <g id="svg_117" opacity="0.1">
   <path id="svg_118" fill="#0b75ce" d="m860.85,146.33l0,56c0,1.66 -3.13,3 -7,3l-147.73,0c-3.86,0 -7,-1.36 -7,-3l0,-56c0,-1.67 3.12,-3.37 7,-3.37l147.75,0c3.85,0 6.98,1.7 6.98,3.37z"/>
  </g>
  <path id="svg_119" fill="#fff" d="m878.16,136.14l0,56c0,1.67 -3.12,3 -7,3l-147.76,0c-3.86,0 -7,-1.35 -7,-3l0,-56c0,-1.67 3.12,-3.37 7,-3.37l147.78,0c3.86,0.03 6.98,1.7 6.98,3.37z"/>
  <g opacity="0.2" id="svg_120">
   <path id="svg_121" fill="#0ccc88" d="m878.16,136.14l0,56c0,1.67 -3.12,3 -7,3l-147.76,0c-3.86,0 -7,-1.35 -7,-3l0,-56c0,-1.67 3.12,-3.37 7,-3.37l147.78,0c3.86,0.03 6.98,1.7 6.98,3.37z"/>
  </g>
  <rect id="svg_122" fill="#0b75ce" height="2.72" width="76.96" y="152.77" x="787.42"/>
  <rect id="svg_123" opacity="0.2" fill="#0b75ce" height="2.72" width="76.96" y="159.39" x="787.42"/>
  <rect id="svg_124" opacity="0.2" fill="#0b75ce" height="2.72" width="76.96" y="166.01" x="787.42"/>
  <rect id="svg_125" opacity="0.2" fill="#0b75ce" height="2.72" width="76.96" y="172.63" x="787.42"/>
  <path id="svg_126" opacity="0.2" fill="#0b75ce" d="m748.49,146.8a18.25,18.25 0 0 0 -10.09,33.48l0,-3.09a4.16,4.16 0 0 1 3.65,-4.11a7.24,7.24 0 0 0 12.7,0a4.16,4.16 0 0 1 3.65,4.11l0,3.17a18.25,18.25 0 0 0 -9.91,-33.56zm8,22.27a0.79,0.79 0 0 1 -0.77,0.49a2.3,2.3 0 0 1 -0.37,0a7.24,7.24 0 0 1 -14.18,-2.06a7.16,7.16 0 0 1 0.94,-3.56l-0.08,-0.05a2.42,2.42 0 0 1 0.24,-3.35a4.91,4.91 0 0 1 1.5,-0.55a6.65,6.65 0 0 0 3.8,-2.9a6.79,6.79 0 0 1 0,1.1a1.61,1.61 0 0 1 2.29,-0.08c0.23,0.23 0.38,0.55 0.66,0.73a1.73,1.73 0 0 0 0.81,0.23l1.81,0.24a2.56,2.56 0 0 1 2.76,2a17.51,17.51 0 0 1 1.19,3.85a6.08,6.08 0 0 1 -0.58,3.92l-0.02,-0.01z"/>
  <path id="svg_127" fill="url(#ffba99e4-d350-4cb7-a6ec-0715674198cb)" d="m924.97,594.22c-1.38,-5 -2.28,-9.38 -2.28,-9.38s0.06,-5.49 -2.56,-9.51l-0.05,-1.37l0,0l-0.4,-10.16a34.22,34.22 0 0 1 2.36,-5.4c1.7,-3.25 -0.57,-14.85 -0.57,-14.85s-7.4,-16.19 -6.15,-26.68s-15.67,-45.79 -15.67,-45.79a46,46 0 0 1 1.07,-10.28a8.18,8.18 0 0 0 0.11,-2.16a2.26,2.26 0 0 0 0,-0.26s0,0 0,0.08c-0.5,-6.87 -6.43,-19.55 -6.43,-19.55l-0.22,-24.61s2.92,-14.63 -3.5,-33.86c-2.24,-6.71 -3.71,-12.1 -4.67,-16.26c-0.11,-0.47 -0.22,-0.92 -0.31,-1.36c11.59,-2.22 20.43,-4 20.43,-4s-7.84,-28 -12.6,-32.8s-9,-20.19 -9,-20.19s-3.14,-19.89 0.47,-25.87s3.75,-16.16 3.75,-16.16s8.52,-6.71 9.51,-9.58s2.57,-9.31 2.44,-12.66s-1.34,-6.33 -1,-8.11s-2.89,-8.39 -1.55,-11.63a8.62,8.62 0 0 0 0.47,-3.09l0,-0.13a43.13,43.13 0 0 0 -1.09,-8.26a23.54,23.54 0 0 0 -8.86,-4.31l-0.22,-0.75l-0.57,-2c-0.3,-0.18 -0.59,-0.34 -0.88,-0.48l0,-0.72l-0.19,-2.87l1.12,-6.51c2.27,-11.33 -12.78,-12.43 -12.78,-12.43a7.82,7.82 0 0 0 -4.38,-3.55c-3.06,-1 0.14,16.91 1.6,18c1.09,0.82 4.58,6.32 6.26,9l0,0l0.28,0.44a6.82,6.82 0 0 0 -0.66,0.75l0.72,3.87l0.11,0.6a15.68,15.68 0 0 0 -2.23,4.16s2.85,2.9 2.43,6.28s1.13,7.52 1.21,7.74c-0.17,-0.18 -2.18,-2.19 -4.08,-1.6s-7.23,2.4 -7.23,2.4s-4,0.86 -3.59,1.73s-2.55,4.88 -2.55,4.88l-11.2,-9.82c-0.12,-0.3 -0.24,-0.6 -0.35,-0.91a25.63,25.63 0 0 1 -1.11,-4.45a24.33,24.33 0 0 0 3.41,-1.23a7.47,7.47 0 0 0 2.92,-2c1,-1.33 1.18,-3.1 1.56,-4.72c0.73,-3.18 2.46,-6.05 3.66,-9.09a29.07,29.07 0 0 0 1.47,-16.06a10.66,10.66 0 0 0 -1.84,-4.63c-1.86,-2.36 -5.09,-3.23 -7.49,-5.07s-4,-4.74 -6.78,-6.09c-2.5,-1.22 -5.48,-1 -8.22,-0.39a43.87,43.87 0 0 0 -15.1,6.15c-1.53,1 -3.22,2.14 -5,1.88c-1.56,-0.22 -2.74,-1.42 -3.79,-2.57a0.83,0.83 0 0 1 0,-0.15l-0.13,-0.13a19.09,19.09 0 0 0 -1.36,8.14c0,0.43 0,0.86 0.1,1.29c0,0.15 0,0.3 0,0.45a2.41,2.41 0 0 1 0,0.38l0,0a2.29,2.29 0 0 1 -0.06,0.58a4.16,4.16 0 0 1 -1,1.49a9,9 0 0 0 -0.84,1.24c0,-0.15 0.08,-0.3 0.13,-0.45a6.32,6.32 0 0 0 -1,3.45a3.4,3.4 0 0 0 0.9,2.41a11.76,11.76 0 0 0 1.82,1.35a19.53,19.53 0 0 0 -0.19,3.6a20.91,20.91 0 0 0 10.86,17.43c0.14,0.3 0.27,0.6 0.41,0.91c1.52,3.58 2.72,7.77 2.41,11.7c0,0.29 -0.06,0.58 -0.1,0.86s-0.26,0.31 -0.37,0.47l0,0s-17.83,0.86 -22.17,-2.78s-10.24,9.69 -10.24,9.69s-6.34,1.49 -7.67,0.3s-8.78,0.16 -8.78,0.16a16.08,16.08 0 0 0 -11.29,-3.64a33.09,33.09 0 0 0 -8.36,-4.23l0,0l-0.21,-0.06l0,0a9.18,9.18 0 0 0 -4,-0.36s-9.05,-6.91 -11.76,-10.7s-15.44,-17.75 -15.5,-17.82l-0.07,-0.69l-0.22,-2.1a7.55,7.55 0 0 1 -1.09,0.14l-0.27,-0.72a38.49,38.49 0 0 0 -2.82,-5.84s-0.1,-2.66 0.65,-3.35s-0.72,-10.38 -0.72,-10.38s-8.61,-18.17 -15.16,-4.1c0,0 -13,9.44 -1.41,19.39c0,0 4.57,2 5.27,3.7c0.46,1.1 2.1,4.16 3.2,6.19c0.18,0.34 0.35,0.64 0.49,0.91l-0.12,0.11l0.23,1.73l0.09,0.67c-2.06,1.28 -3.45,2.53 -3.07,3.42a19.33,19.33 0 0 1 1.46,4.72s16.28,18.85 18.61,27.09c0,0 42.6,23.15 56.37,24.39l-1.8,12.44a98.66,98.66 0 0 0 -0.16,10.1c0.28,2.65 -1.08,14.74 -1.08,14.74s-1.7,17.77 -3.61,20.33s-1.15,13.14 -1.15,13.14a89.34,89.34 0 0 1 -2.16,15.14c-1.75,6.79 0,15.05 0,15.05s-6.33,16.18 9.88,4.75c0,0 8.14,-0.82 17.52,-1.5c0,0.31 0,0.62 0,0.94c0,1.21 0.06,2.52 0.1,3.9c0.22,9.12 0.65,21.68 1.43,31.17c1.39,16.77 7.78,49.77 7.78,49.77l0.64,16.7a22.94,22.94 0 0 0 -0.29,4.79a31,31 0 0 0 5.1,16.59l1.71,11.08s3.28,7.23 3.51,11.61a6,6 0 0 1 -0.09,1.07a7.4,7.4 0 0 0 -0.08,1.71c0,5.06 3.54,17.05 3.54,17.05s0.65,12.19 2.5,12.83c1.59,0.54 -1.81,7.11 -2.83,9a3.59,3.59 0 0 1 -0.08,-0.35c-0.13,0.25 -0.21,0.38 -0.21,0.38a8.69,8.69 0 0 0 -0.45,3.11a4.42,4.42 0 0 0 2.19,4.21c3.55,2 5.48,3.68 2.57,4.5a31,31 0 0 0 -3.2,0.81c0,-0.14 -0.12,-0.28 -0.17,-0.41a2,2 0 0 0 -1.12,2.18a9.2,9.2 0 0 0 1.25,4.1c3.18,6.43 5.3,8.83 5.3,8.83l1.39,-0.21a7.27,7.27 0 0 1 -0.75,1.54a5.93,5.93 0 0 1 -2,1.91a6.31,6.31 0 0 1 -2.46,1a7,7 0 0 0 -5.08,2.72c-1.73,2.42 -2.75,5.68 1,8.36l13.24,4s22.58,2.06 21.19,-2.94s-2.28,-9.38 -2.28,-9.38a20,20 0 0 0 -2.17,-8.87a11,11 0 0 0 -0.84,-1.29l0.79,-0.12s1.21,-11.2 3.32,-13.41c0.49,-0.5 0.59,-0.88 0.46,-1.17c0.2,-0.62 -0.38,-1 -1.13,-1.12c0,0.14 -0.09,0.29 -0.14,0.44a11.21,11.21 0 0 0 -2.19,-0.16s-1,-5.8 1.34,-8a2.24,2.24 0 0 0 0.39,-1.75a9.47,9.47 0 0 0 -0.34,-2.36a0.61,0.61 0 0 0 -0.07,0.14c-1.41,-5.25 -5.78,-13.51 -5.78,-13.51s-0.38,-5.3 1,-7.47s-1.3,-28.82 -1.3,-28.82s0.06,-12.93 -1.82,-18.87s1.51,-13.16 1.51,-13.16s0,-0.14 -0.06,-0.39l0,-0.09s-0.11,-0.79 -0.29,-2a0.65,0.65 0 0 1 0,0.13c-0.49,-3.4 -1.43,-9.56 -2,-12.41c-0.89,-4 -0.72,-23.52 -0.72,-23.52l3,-8.44l6.4,14.1l6.95,18.86s3.23,3.91 3.46,8c0,0.2 0,0.4 0,0.6a11,11 0 0 0 0,1.28a11.38,11.38 0 0 0 2.15,6.72s2,9 4.64,11.16s2.82,6.62 2.82,6.62s3.61,13 5.16,15.21c1.3,1.89 1.57,7.21 1.62,8.84l0,0c0,0.3 0,0.48 0,0.48s0.62,4.66 0.75,8.59c0,0.48 0,1 0,1.4c0,0 0,-0.07 0,-0.1a14.23,14.23 0 0 1 -0.26,3.19c0,0.06 0,0.12 0,0.19q0,-0.35 0,-0.66a33.61,33.61 0 0 0 -0.62,8.18c0.1,4.71 1,10.25 4,13.41c5.15,5.47 8.23,4.64 8.23,4.64s-2.1,7.16 -5,8.69a2.11,2.11 0 0 0 -0.31,0.21c0,-0.13 -0.06,-0.27 -0.08,-0.4a3.42,3.42 0 0 0 -0.76,2.66c-0.09,3.12 2.07,8.1 4,10.35a5.82,5.82 0 0 0 2.52,1.34a4.91,4.91 0 0 1 -0.44,0.31a9.45,9.45 0 0 1 -1,0.51a4.9,4.9 0 0 1 -1.48,0.44a7.05,7.05 0 0 0 -5.08,2.72c-1.72,2.42 -2.75,5.67 1,8.36l13.24,4s22.54,1.95 21.11,-3.05z"/>
  <path id="svg_128" fill="#2d293d" d="m839.47,605.87l-12.82,-4c-3.59,-2.69 -2.6,-5.95 -0.93,-8.37a6.75,6.75 0 0 1 4.91,-2.71a6,6 0 0 0 2.38,-1a5.6,5.6 0 0 0 1.93,-1.91a9.36,9.36 0 0 0 1.26,-4.94s13.72,-4.6 17.68,-0.68a10.68,10.68 0 0 1 1.78,2.4a20.65,20.65 0 0 1 2.11,8.88s0.88,4.38 2.22,9.38s-20.52,2.95 -20.52,2.95z"/>
  <path id="svg_129" fill="#2d293d" d="m901.11,597.26l-12.81,-4c-3.6,-2.68 -2.61,-5.94 -0.94,-8.35a6.68,6.68 0 0 1 4.91,-2.71a5,5 0 0 0 1.43,-0.45a8.26,8.26 0 0 0 1,-0.51c3.47,-2.08 3.19,-6.85 3.19,-6.85s13.73,-4.6 17.68,-0.68a9.78,9.78 0 0 1 1.4,1.75c2.54,4 2.49,9.52 2.49,9.52s0.88,4.4 2.22,9.39s-20.57,2.89 -20.57,2.89z"/>
  <path id="svg_130" opacity="0.1" d="m853.88,582.3a10.68,10.68 0 0 1 1.78,2.4l0,0l-20.72,3.21a9.36,9.36 0 0 0 1.26,-4.94s13.72,-4.59 17.68,-0.67z"/>
  <path id="svg_131" opacity="0.1" d="m916.92,575.44l0.15,3.9c-3,5.46 -18.72,4.89 -23.37,2.39a8.26,8.26 0 0 0 1,-0.51c3.47,-2.08 3.19,-6.85 3.19,-6.85s13.73,-4.6 17.68,-0.68a9.78,9.78 0 0 1 1.35,1.75z"/>
  <path id="svg_132" fill="#65617d" d="m918.75,558.56a34.32,34.32 0 0 0 -2.27,5.4l0.53,14c-3.31,6 -21.77,4.74 -24.37,1.65s-5.57,-11.29 -2.79,-12.82s4.8,-8.68 4.8,-8.68s-3,0.82 -8,-4.65s-4.06,-18.08 -3.29,-21.12s-0.51,-13.09 -0.51,-13.09s-0.09,-7.08 -1.59,-9.32s-5,-15.21 -5,-15.21s-0.17,-4.42 -2.73,-6.63s-4.5,-11.16 -4.5,-11.16a11.6,11.6 0 0 1 -2.06,-7.53c0.36,-4.44 -3.36,-9.08 -3.36,-9.08l-6.75,-18.86l-6.21,-14.11l-2.85,8.45s-0.14,19.48 0.73,23.52s2.34,14.78 2.34,14.78s-3.27,7.21 -1.44,13.16s1.79,18.88 1.79,18.88s2.61,26.63 1.28,28.81s-1,7.47 -1,7.47s7.85,15.28 5.63,17.49s-1.29,8 -1.29,8s5,-0.19 2.92,2s-3.21,13.41 -3.21,13.41l-21.28,3.3s-2.06,-2.4 -5.14,-8.84s0.31,-5.85 3.13,-6.67s1,-2.51 -2.49,-4.51s-1.68,-6.84 -1.68,-6.84s4.79,-8.86 3,-9.5s-2.44,-12.83 -2.44,-12.83s-4.09,-14.36 -3.36,-18.29s-3.34,-13.15 -3.34,-13.15l-1.66,-11.09a30.64,30.64 0 0 1 -4.7,-20.89l-0.62,-17.21s-6.23,-33 -7.58,-49.82c-0.87,-10.74 -1.31,-25.42 -1.51,-34.59c-0.11,-5.14 -0.15,-8.55 -0.15,-8.55l76.07,-10.89a63.52,63.52 0 0 0 1.82,11.29c0.94,4.16 2.37,9.55 4.55,16.26c6.23,19.24 3.43,33.87 3.43,33.87l0.24,24.6s7.35,16.18 6.15,21.9a47.55,47.55 0 0 0 -1,10.31s16.41,35.31 15.22,45.8s6,26.69 6,26.69s2.19,11.64 0.54,14.89z"/>
  <path id="svg_133" opacity="0.05" d="m871.53,468.12l23.13,-4s-12.65,13.96 -23.13,4z"/>
  <path id="svg_134" opacity="0.1" d="m890.4,441.54s1.11,8.19 -3.81,11.48c0.03,0 9,-1.76 3.81,-11.48z"/>
  <path id="svg_135" opacity="0.1" d="m888,415.43s-18.82,16.75 -26,15.7s26,-15.7 26,-15.7z"/>
  <path id="svg_136" opacity="0.1" d="m843,476.8s-14.63,3.92 -14.84,9.86s14.84,-9.86 14.84,-9.86z"/>
  <path id="svg_137" opacity="0.05" d="m849.09,550.35s-20.69,4.69 -14.69,7.11s15.83,4.18 15.83,4.18s6.73,0.09 -1.14,-11.29z"/>
  <g id="svg_138" opacity="0.05">
   <path id="svg_139" d="m830.4,561.8a4.15,4.15 0 0 1 -2,-2.95c-0.12,0.24 -0.2,0.38 -0.2,0.38s-1.76,4.84 1.68,6.84c0.4,0.23 0.77,0.45 1.12,0.67c0.62,-0.14 1.28,-0.25 1.92,-0.44c2.74,-0.77 0.87,-2.5 -2.52,-4.5z"/>
   <path id="svg_140" d="m857.17,559.39c0.55,-0.55 0.48,-1.91 0.06,-3.64a9.82,9.82 0 0 0 -1,5.16a4.1,4.1 0 0 1 0.94,-1.52z"/>
   <path id="svg_141" d="m850.57,471.55a24,24 0 0 0 -1.16,6.56a25.51,25.51 0 0 1 1.45,-4.53s-0.11,-0.78 -0.29,-2.03z"/>
   <path id="svg_142" d="m897.98,460.43a7.86,7.86 0 0 0 0.12,-1.94c-0.21,1.33 -0.35,2.56 -0.44,3.64c0.1,-0.55 0.2,-1.12 0.32,-1.7z"/>
   <path id="svg_143" d="m852.49,534.42a11.24,11.24 0 0 0 0.37,-3.94a13.31,13.31 0 0 0 -0.82,5a4.81,4.81 0 0 1 0.45,-1.06z"/>
   <path id="svg_144" d="m858.15,567.6a69.59,69.59 0 0 0 -2,11l-21.28,3.3s-2.05,-2.4 -5.13,-8.83c-0.27,-0.57 -0.49,-1.08 -0.67,-1.54c-1.26,0.64 -1.71,2 0.12,5.81c3.08,6.43 5.14,8.83 5.14,8.83l21.28,-3.3s1.16,-11.2 3.2,-13.4c0.99,-1.13 0.3,-1.67 -0.66,-1.87z"/>
   <path id="svg_145" d="m828.68,536.93s0.65,12.2 2.44,12.84l0,0c0.82,-2.05 1.34,-4 0.54,-4.27c-1.8,-0.64 -2.44,-12.84 -2.44,-12.84s-4.1,-14.36 -3.36,-18.28s-3.34,-13.15 -3.34,-13.15l-1.67,-11.09a30.64,30.64 0 0 1 -4.7,-20.89l-0.66,-17.15s-6.23,-33 -7.58,-49.82c-0.87,-10.74 -1.31,-25.43 -1.51,-34.59c0,-1.66 -0.06,-3.13 -0.09,-4.37l-0.61,0.09s0,3.4 0.16,8.55c0.2,9.16 0.64,23.85 1.5,34.59c1.36,16.77 7.59,49.82 7.59,49.82l0.66,17.15a30.64,30.64 0 0 0 4.7,20.89l1.66,11.09s4.08,9.22 3.34,13.15s3.37,18.28 3.37,18.28z"/>
   <path id="svg_146" d="m893.17,574.8a20.68,20.68 0 0 1 -3.7,-8.26c-2.11,2 0.69,9.6 3.16,12.53c2.6,3.09 21.06,4.33 24.37,-1.64l-0.13,-3.37c-4.59,4.94 -21.24,3.68 -23.7,0.74z"/>
   <path id="svg_147" d="m919.28,553.8a34.32,34.32 0 0 0 -2.27,5.4l0.09,2.48c0.37,-0.92 0.9,-2.15 1.64,-3.61a10.73,10.73 0 0 0 0.6,-4.41l-0.06,0.14z"/>
   <path id="svg_148" d="m893.6,557.59a33.39,33.39 0 0 0 1.58,-4.27s-3,0.82 -8,-4.65c-3.63,-4 -4.13,-11.75 -3.83,-16.85c-0.77,3 -1.7,15.65 3.29,21.12c3.29,3.58 5.69,4.46 6.96,4.65z"/>
   <path id="svg_149" d="m882.87,518.74a96,96 0 0 1 0.76,10.46a12.91,12.91 0 0 1 0.3,-1.65c0.77,-3 -0.51,-13.08 -0.51,-13.08s-0.1,-7.08 -1.6,-9.33s-5,-15.21 -5,-15.21s-0.17,-4.42 -2.74,-6.62s-4.5,-11.16 -4.5,-11.16a11.64,11.64 0 0 1 -2.06,-7.54c0.36,-4.44 -3.36,-9.07 -3.36,-9.07l-6.76,-18.87l-6.21,-14.1l-2.86,8.43s0,1 0,2.69l2.33,-6.85l6.21,14.1l6.74,18.86s3.72,4.63 3.36,9.07a11.58,11.58 0 0 0 2.06,7.54s1.93,9 4.5,11.16s2.73,6.62 2.73,6.62s3.51,13 5,15.21s1.61,9.34 1.61,9.34z"/>
  </g>
  <path id="svg_150" fill="#ffcdd3" d="m885.2,192.87l-1.08,6.51l0.19,2.87l0.14,2.12l-7.35,1l-0.89,-1.5l0,0c-1.63,-2.71 -5,-8.22 -6.08,-9c-1.4,-1.09 -4.53,-18.95 -1.57,-18a7.75,7.75 0 0 1 4.26,3.56s14.58,1.12 12.38,12.44z"/>
  <path id="svg_151" opacity="0.1" d="m884.45,204.37l-7.35,1l-0.89,-1.5l0,0a6.52,6.52 0 0 1 8.1,-1.66l0.14,2.16z"/>
  <path id="svg_152" fill="#dce6f2" d="m886.4,207.8l-9.64,2.63l-0.26,-1.44l-0.7,-3.88s3.65,-5.28 9.37,-1.64l0.56,2l0.67,2.33z"/>
  <path id="svg_153" fill="#ffcdd3" d="m728.31,199.62l-10.17,6s-0.43,-0.8 -1,-1.92c-1.07,-2 -2.66,-5.1 -3.11,-6.2c-0.68,-1.69 -5.1,-3.7 -5.1,-3.7c-11.27,-10 1.34,-19.39 1.34,-19.39c6.32,-14.06 14.67,4.12 14.67,4.12s1.44,9.69 0.71,10.38s-0.62,3.34 -0.62,3.34a39.3,39.3 0 0 1 2.73,5.85c0.36,0.92 0.55,1.52 0.55,1.52z"/>
  <path id="svg_154" opacity="0.1" d="m728.31,199.62l-10.17,6s-0.43,-0.8 -1,-1.92c1.41,-1.28 6.45,-5.7 8.16,-5.57a13.19,13.19 0 0 0 2.46,0c0.36,0.89 0.55,1.49 0.55,1.49z"/>
  <path id="svg_155" fill="#dce6f2" d="m729.49,202.72l-11.45,6.2l-0.33,-2.5l-0.23,-1.73s6.54,-6.05 8.55,-5.91a10.82,10.82 0 0 0 3,-0.12l0.22,2.09l0.24,1.97z"/>
  <path id="svg_156" fill="#ffcdd3" d="m858.56,236.8s-50.66,7.7 -41.27,4.25c6.54,-2.42 9,-6.73 9.38,-11.41c0.29,-3.93 -0.87,-8.12 -2.35,-11.71a51.09,51.09 0 0 0 -4.9,-9s38.07,-22.89 31,-3.14a30.94,30.94 0 0 0 -1.85,9.3a26,26 0 0 0 1.36,9.29a27.8,27.8 0 0 0 8.63,12.42z"/>
  <path id="svg_157" opacity="0.1" d="m850.46,205.8a30.94,30.94 0 0 0 -1.85,9.3c-3.54,3.22 -7.57,3.17 -12.73,3.37c-4,0.15 -8.32,1.28 -11.56,-0.51a51.09,51.09 0 0 0 -4.9,-9s38.07,-22.9 31.04,-3.16z"/>
  <circle id="svg_158" fill="#ffcdd3" r="21.06" cy="198.81" cx="834.44"/>
  <path id="svg_159" opacity="0.1" d="m858.56,236.8s-50.66,7.7 -41.27,4.25c6.54,-2.42 9,-6.73 9.38,-11.41c2.43,-2.85 7.44,-5 10.67,-6.2a15.19,15.19 0 0 1 9.21,-0.5a12.83,12.83 0 0 1 3.42,1.42a27.8,27.8 0 0 0 8.59,12.44z"/>
  <path id="svg_160" opacity="0.1" d="m886.4,207.8l-9.64,2.63l-0.26,-1.44a8.62,8.62 0 0 1 9.23,-3.56l0.67,2.37z"/>
  <path id="svg_161" opacity="0.1" d="m729.49,202.72l-11.45,6.2l-0.33,-2.5a84.76,84.76 0 0 1 11.58,-5.62l0.2,1.92z"/>
  <path id="svg_162" opacity="0.1" d="m883.62,364.28c-19.58,3.87 -47.47,9 -52,7.81c-3.74,-1 -15.52,-0.41 -25.77,0.34c-0.11,-5.14 -0.15,-8.55 -0.15,-8.55l76.07,-10.89a63.52,63.52 0 0 0 1.85,11.29z"/>
  <path id="svg_163" fill="#3f3d56" d="m903.1,358.9s-64.46,13.63 -71.51,11.78s-42.71,1.82 -42.71,1.82c-15.67,11.4 -9.57,-4.77 -9.57,-4.77s-1.73,-8.25 0,-15.05a92.45,92.45 0 0 0 2.07,-15.13s-0.76,-10.59 1.09,-13.14s3.47,-20.32 3.47,-20.32s1.3,-12.09 1,-14.74s0.15,-10.09 0.15,-10.09l1.8,-12.46c-13.33,-1.26 -54.59,-24.46 -54.59,-24.46c-2.27,-8.23 -18,-27.1 -18,-27.1a20.3,20.3 0 0 0 -1.42,-4.73c-1.17,-2.79 14.53,-9.06 14.53,-9.06s12.4,14 15,17.84s11.39,10.72 11.39,10.72a8.5,8.5 0 0 1 3.91,0.35l0.2,0.06l0,0a31.66,31.66 0 0 1 8.09,4.24a15.36,15.36 0 0 1 10.94,3.65s7.21,-1.34 8.49,-0.15s7.43,-0.28 7.43,-0.28s5.68,-13.33 9.89,-9.68s21.47,2.8 21.47,2.8c2.18,-3.14 7.69,-5.55 11.15,-6.81a15.19,15.19 0 0 1 9.21,-0.51a11.82,11.82 0 0 1 3.71,1.62l10.86,9.85s2.86,-4 2.47,-4.88s3.48,-1.72 3.48,-1.72s5.06,-1.79 7,-2.4s3.78,1.44 3.95,1.61c-0.08,-0.22 -1.57,-4.45 -1.18,-7.74s-2.37,-6.28 -2.37,-6.28c5.61,-15.44 20.06,-3.25 20.06,-3.25s1.92,8.25 0.62,11.49s1.8,9.84 1.51,11.62s0.89,4.75 1,8.11s-1.39,9.79 -2.34,12.66s-9.2,9.56 -9.2,9.56s-0.14,10.1 -3.63,16.08s-0.42,25.87 -0.42,25.87s4.14,15.42 8.75,20.2s12.25,32.82 12.25,32.82z"/>
  <path id="svg_164" opacity="0.1" d="m804.03,246.2s-2.17,-5.76 -4,-6.22a42.43,42.43 0 0 1 -5.21,-2.1l1,-2.22s6.71,1.56 7.85,3.47s0.36,7.07 0.36,7.07z"/>
  <path id="svg_165" opacity="0.1" d="m768,234.66c-0.29,1.78 -16,4 -16,4l7.65,-8.29l0,0l0.2,0.06l0,0a31.66,31.66 0 0 1 8.15,4.23z"/>
  <circle id="svg_166" fill="#575988" r="1.42" cy="212.14" cx="721.54"/>
  <circle id="svg_167" fill="#575988" r="1.42" cy="214.9" cx="723.46"/>
  <circle id="svg_168" fill="#575988" r="1.42" cy="217.44" cx="725.33"/>
  <circle id="svg_169" fill="#575988" r="1.42" cy="220.2" cx="727.29"/>
  <circle id="svg_170" fill="#575988" r="1.15" cy="213.63" cx="893.95"/>
  <circle id="svg_171" fill="#575988" r="1.15" cy="216.23" cx="894.23"/>
  <circle id="svg_172" fill="#575988" r="1.15" cy="218.83" cx="894.48"/>
  <path id="svg_173" opacity="0.1" d="m805.96,294.11c-0.17,-0.2 41.62,48.6 71.45,18.32c-0.01,0 -48.64,8.51 -71.45,-18.32z"/>
  <path id="svg_174" opacity="0.1" d="m784.07,321.16s23.88,-0.27 26.64,6.49l0.27,7.14a4.55,4.55 0 0 1 -4.44,0.17c-2.45,-1.2 -17.15,-8 -22.1,-4.25l-0.37,-9.55z"/>
  <path id="svg_175" fill="#656691" d="m784.52,321.14s22.83,-0.26 25.47,6.19l0.26,6.81a4.38,4.38 0 0 1 -4.25,0.16c-2.34,-1.15 -16.4,-7.6 -21.13,-4.05l-0.35,-9.11z"/>
  <path id="svg_176" opacity="0.1" d="m795.1,268.87a76.72,76.72 0 0 0 9.86,15.51a62.23,62.23 0 0 0 15,13.42s-24.34,-25.67 -24.86,-28.93z"/>
  <path id="svg_177" opacity="0.1" d="m786.23,241.46s4.64,17 15.12,22.46l-15.12,-22.46z"/>
  <path id="svg_178" opacity="0.1" d="m780.2,243.43c-0.12,-0.32 -3,13.72 14,20.76c0.03,0 -7.18,-2.14 -14,-20.76z"/>
  <path id="svg_179" opacity="0.1" d="m883.89,227.9c-0.26,0 8.48,5.11 10.89,7.55c0,0 -5.86,-8.1 -10.89,-7.55z"/>
  <path id="svg_180" fill="#2d293d" d="m829.48,218.1a3.31,3.31 0 0 0 3.75,3.15c6.43,0.15 13.12,0.18 19,-2.52a7.16,7.16 0 0 0 2.81,-2c1,-1.33 1.14,-3.09 1.51,-4.72c0.71,-3.17 2.37,-6 3.54,-9.08a30.07,30.07 0 0 0 1.42,-16.13a10.74,10.74 0 0 0 -1.78,-4.63c-1.8,-2.37 -4.94,-3.23 -7.26,-5.08s-3.89,-4.75 -6.57,-6.1c-2.42,-1.22 -5.31,-1 -8,-0.4a41.76,41.76 0 0 0 -14.6,6.14c-1.49,1 -3.12,2.13 -4.89,1.87c-1.55,-0.23 -2.71,-1.48 -3.75,-2.65a19.61,19.61 0 0 0 -1.22,9.23a4,4 0 0 1 0,1.38a4.24,4.24 0 0 1 -0.93,1.49c-1.51,1.9 -2.39,4.85 -0.75,6.64c0.71,0.79 1.77,1.19 2.47,2c1.24,1.43 0.92,3.57 1,5.46a2.77,2.77 0 0 0 0.54,1.85a2.73,2.73 0 0 0 2.62,0.52a7.07,7.07 0 0 1 2.75,-0.37a4.58,4.58 0 0 1 2.48,1.76c3.13,3.61 4.44,7.71 5.86,12.19z"/>
  <g id="svg_181" opacity="0.1">
   <path id="svg_182" d="m855.65,215.05a7.17,7.17 0 0 1 -2.82,2c-5.84,2.7 -12.52,2.68 -18.95,2.52a3.31,3.31 0 0 1 -3.76,-3.14c-1.41,-4.49 -2.73,-8.59 -5.84,-12.24a4.6,4.6 0 0 0 -2.47,-1.76a7.31,7.31 0 0 0 -2.76,0.37a2.73,2.73 0 0 1 -2.62,-0.52a2.83,2.83 0 0 1 -0.54,-1.85c0,-1.89 0.28,-4 -1,-5.46c-0.69,-0.8 -1.76,-1.2 -2.47,-2a4.16,4.16 0 0 1 -0.57,-4.21c-1.05,1.83 -1.45,4.14 -0.08,5.65c0.71,0.78 1.78,1.18 2.47,2c1.24,1.43 0.93,3.57 1,5.47a2.76,2.76 0 0 0 0.54,1.84a2.7,2.7 0 0 0 2.62,0.52a7.28,7.28 0 0 1 2.76,-0.37a4.65,4.65 0 0 1 2.47,1.76c3.11,3.66 4.42,7.75 5.84,12.24a4.45,4.45 0 0 0 1.75,2.78a4.51,4.51 0 0 0 2,0.37c6.43,0.15 13.12,0.17 19,-2.53a7.25,7.25 0 0 0 2.82,-2a5.72,5.72 0 0 0 0.84,-1.74a2.9,2.9 0 0 1 -0.23,0.3z"/>
   <path id="svg_183" d="m813.53,185.97a3,3 0 0 0 0.6,-1.09a3.77,3.77 0 0 0 0,-1.38a19.59,19.59 0 0 1 0.7,-7.65l-0.13,-0.14a19.64,19.64 0 0 0 -1.22,9.23a5.94,5.94 0 0 1 0.05,1.03z"/>
  </g>
  <path id="svg_184" opacity="0.1" d="m826.22,231s26.42,2.48 28.63,-1.57"/>
  <path id="svg_185" opacity="0.1" d="m876.9,218.16s14.6,-0.54 18,4.81"/>
  <path id="svg_186" fill="#fff" d="m161.71,172.05l0,56c0,1.67 -3.13,3 -7,3l-147.73,0c-3.86,0 -7,-1.35 -7,-3l0,-56c0,-1.67 3.12,-3.37 7,-3.37l147.75,0c3.85,0 6.98,1.7 6.98,3.37z"/>
  <g opacity="0.2" id="svg_187">
   <path id="svg_188" fill="#0ccc88" d="m161.71,172.05l0,56c0,1.67 -3.13,3 -7,3l-147.73,0c-3.86,0 -7,-1.35 -7,-3l0,-56c0,-1.67 3.12,-3.37 7,-3.37l147.75,0c3.85,0 6.98,1.7 6.98,3.37z"/>
  </g>
  <rect id="svg_189" fill="#0b75ce" height="2.72" width="76.96" y="188.68" x="70.97"/>
  <path id="svg_190" opacity="0.2" fill="#0b75ce" d="m32.03,182.72a18.25,18.25 0 0 0 -10.06,33.47l0,-1.22a4.14,4.14 0 0 1 3.65,-4.1a7.24,7.24 0 0 0 12.7,0a4.14,4.14 0 0 1 3.65,4.1l0,1.3a18.25,18.25 0 0 0 -9.94,-33.55zm7.15,23.13a7.23,7.23 0 0 1 -14.42,0a7.92,7.92 0 0 1 4.15,-10.61a2.32,2.32 0 0 1 -0.39,-1.3a2.41,2.41 0 0 1 2.42,-2.41l0.17,0a2.41,2.41 0 0 0 -2.24,2.41a2.31,2.31 0 0 0 0.32,1.19l0.07,0a2.42,2.42 0 0 1 0,-0.47a2.39,2.39 0 0 1 0.45,-1.4a2.41,2.41 0 0 1 2.31,-1.7l0.17,0a2.42,2.42 0 0 0 -1.84,1.08a2.41,2.41 0 0 1 3.74,2a2.45,2.45 0 0 1 0,0.27a7.92,7.92 0 0 1 5.16,10.95l-0.07,-0.01z"/>
  <rect id="svg_191" opacity="0.2" fill="#0b75ce" height="2.72" width="76.96" y="195.3" x="70.97"/>
  <rect id="svg_192" opacity="0.2" fill="#0b75ce" height="2.72" width="76.96" y="201.92" x="70.97"/>
  <rect id="svg_193" opacity="0.2" fill="#0b75ce" height="2.72" width="76.96" y="208.54" x="70.97"/>
  <path id="svg_194" fill="url(#f94edff0-5540-4209-9ffe-d34bff61dab8)" d="m263.4,343.26a60.5,60.5 0 0 1 -1,-9.21c0,-3.7 -5,-7 -5,-7s-3.11,-7.2 -5.15,-8.25s-8.47,-10.48 -8.47,-10.48a8.54,8.54 0 0 0 -1.93,-5.08a72.79,72.79 0 0 1 -5.24,-7.91l0,0c-0.86,-1.06 -0.43,-1.8 -1.72,-7.94q-0.11,-0.48 -0.24,-0.93c0,-0.14 -0.09,-0.26 -0.13,-0.39a10.38,10.38 0 0 0 2.44,-10.74a4.41,4.41 0 0 0 -1.23,-1.9c-1.46,-1.19 -3.79,-0.7 -5.29,-1.83l1.59,-7.06c0.39,-1.72 0.59,-3.92 -0.93,-4.85a7.62,7.62 0 0 0 -1.78,-0.6c-2.62,-0.83 -4.09,-3.59 -4.76,-6.23a21.36,21.36 0 0 1 -0.52,-7.8c0.29,-2.5 1,-4.94 1.3,-7.45a20.57,20.57 0 0 0 -3.17,-13.26a10.34,10.34 0 0 0 -4.19,-3.95c-1.61,-0.72 -3.48,-0.81 -5,-1.76c-3.22,-2 -3.06,-6.89 -5.62,-9.7s-7.11,-2.78 -10.85,-1.82s-7.45,2.61 -11.29,2.18c-2.47,-0.27 -4.79,-1.39 -7.26,-1.65a7.26,7.26 0 0 0 -2.13,0.1l0.05,-0.09c-1.84,0.33 -3.52,1.35 -3.95,3.09a4.77,4.77 0 0 0 -0.12,1.26c0,1 0.24,2.06 0.26,3a2.92,2.92 0 0 1 -0.7,2.13c-0.49,0.53 -1.22,0.81 -1.7,1.35a2.2,2.2 0 0 0 -0.63,1.59c0,1.54 1.92,2.89 3.21,3.51l0,0c-0.35,0.35 -0.69,0.71 -1,1.08a22.72,22.72 0 0 0 -5.63,15.13a23.05,23.05 0 0 0 14,21.11c-0.06,0.19 -0.11,0.37 -0.18,0.56a29.72,29.72 0 0 1 -1.26,3.27a6.48,6.48 0 0 0 -5.43,0.6c-2.47,1.69 -7.29,1.59 -8.58,1.27s-14.69,-2 -15.76,-1.59s-3.22,-1.48 -4.61,1.06s-2,3.92 -3.43,4.55s-3.86,2.65 -3.54,3.07s-3.54,3 -3.54,3s-3.32,3.49 -5.25,3.92s-6,3.07 -6,3.07l-4.72,3.7s-3.54,0.53 -2.47,-1.9s-1.93,-5.51 -1.93,-5.51s-6,-12.17 -6,-14.7s-4.93,-13.23 -4.93,-13.23l-0.61,-0.06c-0.09,-0.26 -0.18,-0.52 -0.28,-0.79c-0.9,-2.55 -2.07,-5.67 -3,-7.51c-1.7,-3.49 -2.8,-3.89 -2.8,-3.89s-20.8,-15.62 -34.31,-10.86s24.66,18.94 28.09,20.43c1.2,0.51 2.06,2.19 2.67,4.14a17.77,17.77 0 0 0 -7.35,6.69s8.25,18.3 8.46,22.85s5.69,17.25 5.69,17.25s2,9.42 13.08,8.89c0,0 15.22,2.79 18.54,0s6.33,-5 7.94,-5.31a6.25,6.25 0 0 0 3,-2.12s-5,31.74 -7.5,34.5s-24.34,38.41 -16.52,44.75a156.79,156.79 0 0 0 19.62,13c0.67,0.33 2.66,-3 5.51,-5.35c0,0.59 0,1.2 0,1.83c0.05,12.68 1.7,32 4.05,36.32c3.43,6.35 2,18.63 2,18.63a14.8,14.8 0 0 0 5.8,1.39c0.1,0.41 0.22,0.84 0.34,1.29c1.89,7.14 4.95,18.18 6.51,21.12c2.37,4.45 4.08,18.52 4.08,18.52s1.39,13.86 0.86,15.77c-0.21,0.73 0.7,6.48 2.12,13.78l0,0c-0.87,9.92 -2.5,29.05 -2.78,36l0,0c0,0.13 0,0.26 0,0.39l0,0.35c0,0.15 0,0.29 0,0.42l0,0a7.86,7.86 0 0 0 0,1.3a4.07,4.07 0 0 1 -0.14,2a32.13,32.13 0 0 1 -2.33,5.54c-0.05,0.18 -0.63,1.38 -1,2.69c-0.85,0.37 -1.91,1.3 -2.5,3.55c-1.07,4.13 -2.68,15.56 -2.68,15.56s-0.64,7 -1.93,8.57s-2.57,11.53 6.54,12.8s13.08,-4.84 13.08,-4.84l-0.32,-27.7l0,0a4,4 0 0 0 0.47,-0.76l0,-0.06c0.06,-0.14 0.13,-0.27 0.19,-0.43s0,-0.13 0.08,-0.2s0.09,-0.22 0.13,-0.34a0.56,0.56 0 0 1 0,-0.12a18.2,18.2 0 0 0 0.77,-8.25s0,-0.09 0,-0.14l0,-0.22c0,-0.07 0,-0.14 0,-0.21a1.28,1.28 0 0 0 0,-0.19a1.93,1.93 0 0 1 0,-0.24l0,-0.17c0,-0.18 0,-0.37 0.06,-0.56a0.37,0.37 0 0 1 0,-0.11c0,-0.11 0,-0.22 0,-0.33a0.77,0.77 0 0 0 0,-0.15c0,-0.11 0.05,-0.23 0.07,-0.35l0,-0.08c0.08,-0.41 0.19,-0.82 0.3,-1.25l0,-0.09l0.12,-0.42l0,0c0.14,-0.45 0.29,-0.89 0.44,-1.33l0,-0.09l0.15,-0.41l0,-0.05c0.15,-0.42 0.31,-0.83 0.47,-1.22l0,-0.11l0.15,-0.35l0,-0.1l0.33,-0.78l0,0l2.53,7.81s1.39,5.82 0.64,7.19s0.86,7.1 1.93,7.2l-1,7.2a110.07,110.07 0 0 0 -1,12c-0.07,0.45 -0.14,0.84 -0.19,1.14c-0.69,3.68 1,9.4 1,9.4c8.47,10 18.55,0.78 18.55,0.78s1.18,-5.3 0,-6.35s-0.64,-4.87 -0.64,-4.87s0.53,-9.42 0.64,-16.3s-5.63,-12.93 -5.63,-12.93l-0.32,0.29c-1,-2.69 -2.23,-5.84 -2,-7.25c0.43,-2.43 -1.18,-28.14 -1.18,-28.14a153.47,153.47 0 0 0 0.37,-20.68l0,0c0.14,-1.17 0.27,-2.32 0.4,-3.43c0.65,-5.53 1.17,-10.26 1.38,-12.73l0,0l0,-0.29c0.05,-0.67 0.08,-1.14 0.07,-1.37c0,-0.82 0,-1.85 0.08,-2.93c0.21,-3 0.67,-6.28 0.67,-6.28l2.25,-13.65s1.71,-6.66 4.18,-10.37l0.29,-0.47l0,0c0.1,-0.16 0.2,-0.34 0.3,-0.53l0,-0.08l0.3,-0.57l0,-0.08c0.35,-0.68 0.72,-1.47 1.1,-2.33l0.09,-0.19l0.29,-0.66l0.11,-0.26l0.29,-0.66c0,-0.09 0.07,-0.17 0.11,-0.26c0.11,-0.27 0.22,-0.54 0.34,-0.81l0.16,-0.39c0.09,-0.2 0.17,-0.4 0.25,-0.61l0.22,-0.52l0.15,-0.39l0.24,-0.59c0,-0.09 0.08,-0.18 0.11,-0.27c0.61,-1.53 1.21,-3 1.73,-4.42l0,0c0.17,-0.43 0.33,-0.84 0.48,-1.24c5.49,0.34 9.22,0.65 9.22,0.65s1.72,-12.38 1.18,-20.53c-0.37,-5.56 0.66,-12.56 1.35,-16.43c0.08,-0.43 0.15,-0.81 0.21,-1.15l0.15,0.12c2.69,2.11 4.61,-4.87 4.61,-4.87s-0.72,-6.53 -1.69,-14.42c0,-0.26 -0.07,-0.53 -0.1,-0.79a41.52,41.52 0 0 0 4.69,0.72s0.86,-0.08 2,-0.23a56.82,56.82 0 0 0 10.18,4.56l5.68,-10.58a43.14,43.14 0 0 1 3.75,-6.24c1.72,-2.12 7.83,-8.89 7.72,-10.16s2,-8.57 4.18,-11.85s3.45,-9.94 3.33,-10.48zm-23.8,8c-2.25,0.95 -4.4,6.24 -4.5,7.83s-2.47,8.57 -4.94,9.42c-2.26,0.78 -6.6,4.76 -7.29,5.4c-0.71,0.07 -1.51,0.16 -2.35,0.3c-0.94,-6.68 -1.87,-12.2 -2.47,-13.32c-1.71,-3.18 1.89,-13.33 1.89,-13.33s0.36,-10.26 2.61,-12.7s1.72,-8.57 1.72,-8.57s0.53,-2.54 0.75,-3.7s3.19,0 3.21,0l0,0s5.79,3.17 6.65,7.93s7.18,13 7.18,13s-1,2.85 0,4.34s-0.2,2.49 -2.45,3.44l-0.01,-0.04z"/>
  <path id="svg_195" fill="#4c4981" d="m84.55,260.87a17.29,17.29 0 0 1 17.32,-8.13l0,12.36l-7.47,0l-5.92,-1.53l-3.93,-2.7z"/>
  <path id="svg_196" opacity="0.1" d="m84.55,260.87a17.29,17.29 0 0 1 17.32,-8.13l0,12.36l-7.47,0l-5.92,-1.53l-3.93,-2.7z"/>
  <path id="svg_197" fill="#ae6e79" d="m102.4,256.01l-9.19,6.45s-0.08,-1.3 -0.31,-3.06c-0.46,-3.33 -1.49,-8.33 -3.71,-9.3c-3.38,-1.48 -41,-15.63 -27.66,-20.38s33.79,10.83 33.79,10.83s1.06,0.36 2.74,3.85c0.89,1.83 2,4.95 2.94,7.49c0.81,2.3 1.4,4.12 1.4,4.12z"/>
  <polygon id="svg_198" fill="#4c4981" points="175.88 265.94 176.92 265.44 179.86 268.79 177.46 273.91 173.37 272.27 174.32 268.18 175.88 265.94"/>
  <path id="svg_199" fill="#444053" d="m161.96,565.87s-2.64,-0.31 -3.7,3.8s-2.64,15.53 -2.64,15.53s-0.63,7 -1.9,8.55s-2.53,11.51 6.44,12.78s12.89,-4.83 12.89,-4.83l-0.32,-27.7l-10.77,-8.13z"/>
  <path id="svg_200" fill="#444053" d="m193.27,567.12s5.65,6 5.55,12.9s-0.64,16.27 -0.64,16.27s-0.52,3.8 0.64,4.86s0,6.33 0,6.33s-9.93,9.22 -18.27,-0.77c0,0 -1.63,-5.71 -1,-9.39s2.53,-20.25 2.53,-20.25l11.19,-9.95z"/>
  <path id="svg_201" fill="#ae6e79" d="m207.27,440.8s-5.71,16 -8.14,19.64s-4.11,10.36 -4.11,10.36l-2.22,13.63a74.75,74.75 0 0 0 -0.74,9.19c0.1,3.06 -5.49,47.73 -5.49,47.73l-8.87,11.3s-3.91,7.92 -3.28,11.2s-0.42,8.55 -1.69,10.13c0,0 -0.21,10.35 -0.53,12.68s1.17,8.87 0,10s-16.68,0.63 -17.11,-1.27s1.91,-11.09 1.91,-11.09l1.37,-8.87s2.74,-4.86 2.11,-6.44s1.16,-5.28 1.27,-5.6s3,-5.49 2.43,-7.49s3.27,-44.57 3.27,-44.57l10.88,-76.36l28.94,5.83z"/>
  <path id="svg_202" opacity="0.1" d="m207.27,440.8s-0.86,2.4 -2.06,5.56c-1.88,5 -4.59,11.82 -6.08,14.08c-2.43,3.7 -4.12,10.35 -4.12,10.35l-2.21,13.63a74.73,74.73 0 0 0 -0.74,9.18c0,1.21 -0.81,8.93 -1.85,17.81c-1.6,13.59 -3.64,29.93 -3.64,29.93l-8.88,11.3s-0.45,0.91 -1,2.23c-1.11,2.59 -2.68,6.8 -2.26,9c0.63,3.28 -0.42,8.56 -1.69,10.14c0,0 -0.21,10.36 -0.53,12.67s1.17,8.88 0,10s-16.68,0.64 -17.11,-1.27s1.9,-11.08 1.9,-11.08l1.38,-8.88s2.74,-4.86 2.11,-6.44s1.16,-5.28 1.27,-5.6s3,-5.49 2.43,-7.5c-0.41,-1.53 1.7,-26.54 2.72,-38.4c0.33,-3.74 0.55,-6.16 0.55,-6.16l9.36,-65.69l0.75,-5.3l0.77,-5.37l28.93,5.81z"/>
  <path id="svg_203" fill="#ae6e79" d="m197.76,599.67c0.1,1.16 -14.89,2.85 -17,1.58s0,-17 0,-17l1,-7.18c-1.06,-0.11 -2.64,-5.81 -1.9,-7.19s-0.64,-7.18 -0.64,-7.18l-2.49,-7.8l-1.52,-4.76c-2.46,-5.45 -6,-21 -8.26,-32.6c-1.4,-7.29 -2.29,-13 -2.09,-13.77c0.53,-1.9 -0.85,-15.73 -0.85,-15.73s-1.68,-14 -4,-18.48c-1.54,-2.94 -4.55,-14 -6.42,-21.09c-0.95,-3.65 -1.61,-6.27 -1.61,-6.27s16,-1.34 25.64,-1.81c4.46,-0.21 7.58,-0.24 7.21,0.13s-0.45,2.3 -0.43,5.09c0,7.25 1.05,20 2.12,23.42c1.48,4.75 3,19 2.32,20.38s-0.42,10.56 -0.42,10.56a47.43,47.43 0 0 1 1.85,11.47a154.79,154.79 0 0 1 -0.37,20.64s1.59,25.66 1.16,28.09s3.38,10 3.38,11.51s0.96,11.51 0.96,11.51s2.26,15.32 2.36,16.48z"/>
  <path id="svg_204" fill="#ae6e79" d="m206.1,291.18l-1.82,2l-1.18,1.27l-6.92,7.35l-17.85,2l-9.48,-2.54l-2.35,-0.62s0,-4.77 0.43,-10.49c0.6,-7.33 2.05,-16.24 5.49,-18.66a13.64,13.64 0 0 0 4,-5.09a28.49,28.49 0 0 0 1.73,-4.27c0.07,-0.19 0.12,-0.37 0.18,-0.55a46.79,46.79 0 0 0 1.68,-7.84s2.28,-1.26 5.44,-2.73c8.27,-3.86 22.55,-9.18 17.58,2.73a44.91,44.91 0 0 0 -1.86,5.36c-0.08,0.26 -0.15,0.53 -0.21,0.79c-1.66,6.64 -0.56,10.66 0.68,12.88l0,0a9,9 0 0 0 0.72,1.09a5.5,5.5 0 0 0 1.2,1.22l2.06,13.05l0.17,1.08l0.31,1.97z"/>
  <path id="svg_205" opacity="0.1" d="m203.04,254.43c-0.94,2.26 0.46,-1.85 0,0c-3.76,2.68 -12.63,10.3 -17.62,10.3c-3.36,0 -4.37,-0.61 -7.26,-1.91a46.9,46.9 0 0 0 1.86,-8.39s29.88,-16.48 23.02,0z"/>
  <path id="svg_206" fill="#ae6e79" d="m210.63,240.55a23,23 0 0 1 -20.61,22.89a21.37,21.37 0 0 1 -2.41,0.13a23,23 0 1 1 23,-23l0.02,-0.02z"/>
  <path id="svg_207" opacity="0.1" d="m213.92,342.61l-3.27,8.56s-2.68,0.12 -6.84,0.25c-14,0.45 -45,1 -46.39,-2.58a8.67,8.67 0 0 1 -0.48,-2.84c-0.19,-5.5 2.38,-13.95 2.38,-13.95s1.48,-16.9 1.48,-17.63s-1.27,-12.62 -1.27,-12.62l2.53,-9.5l7.08,-5s3.17,4.86 5.07,5.28s4.44,2.75 4.44,2.75s6.22,3.8 8.23,1.68s17.64,-11.4 17.64,-11.4l8.24,9.08l1.16,47.92z"/>
  <path id="svg_208" fill="#fff" d="m213.92,343.88l-3.27,8.56s-2.68,0.12 -6.84,0.24l-0.41,0l-6.07,0.16c-11.16,0.25 -26.55,0.32 -34.58,-0.85c-3,-0.44 -5,-1 -5.33,-1.9a7,7 0 0 1 -0.38,-1.57a12.58,12.58 0 0 1 -0.1,-1.27c-0.19,-5.5 2.38,-14 2.38,-14s1.48,-16.9 1.48,-17.64s-1.27,-12.57 -1.27,-12.57l2.53,-9.5l4.87,-3.41l2.21,-1.55a31.92,31.92 0 0 0 2.43,3.19a6.36,6.36 0 0 0 2.64,2.08c1.9,0.43 4.44,2.75 4.44,2.75s6.22,3.81 8.23,1.69c1.54,-1.62 11,-7.43 15.42,-10.08l2.22,-1.33l1.11,1.23l7.13,7.86l1.16,47.91z"/>
  <path id="svg_209" opacity="0.1" d="m102.4,256.01l-9.19,6.45s-0.08,-1.3 -0.31,-3.06c4.54,-1.91 7.3,-6.15 8.1,-7.51c0.81,2.3 1.4,4.12 1.4,4.12z"/>
  <path id="svg_210" fill="#3f3d56" d="m134.71,277.87l-2,-0.52s-3.28,3.48 -5.18,3.9s-5.91,3.07 -5.91,3.07l-4.65,3.69s-3.49,0.53 -2.43,-1.9s-1.9,-5.49 -1.9,-5.49s-5.91,-12.15 -5.91,-14.68s-4.86,-13.2 -4.86,-13.2s-6.13,11.93 -17.32,8.13c0,0 8.13,18.27 8.34,22.81s5.6,17.22 5.6,17.22s2,9.4 12.88,8.87c0,0 15,2.79 18.27,0s6.23,-5 7.82,-5.3a6.19,6.19 0 0 0 2.95,-2.11l0,-12.56l-5.7,-11.93z"/>
  <path id="svg_211" opacity="0.1" d="m115.91,289.8s2.64,9.82 1,10.88l-1,-10.88z"/>
  <path id="svg_212" opacity="0.1" d="m203.81,352.68c-14,0.45 -45,1 -46.39,-2.57a8.67,8.67 0 0 1 -0.48,-2.84l45.89,2.42l0.98,2.99z"/>
  <path id="svg_213" opacity="0.1" d="m207.27,440.8s-0.86,2.4 -2.05,5.56c-5.83,-0.36 -13.55,-0.73 -20.88,-0.78c-2.6,0 -5.14,0 -7.53,0.08a56.41,56.41 0 0 0 -12.31,1.37a32.48,32.48 0 0 1 -11,1.41c-0.95,-3.65 -1.61,-6.27 -1.61,-6.27s16,-1.34 25.64,-1.81l0.77,-5.37l28.97,5.81z"/>
  <path id="svg_214" fill="#65617d" d="m219.62,402.18l-1.79,3.8s-0.25,1.13 -0.57,2.93c-0.68,3.86 -1.7,10.85 -1.34,16.4c0.54,8.13 -1.16,20.48 -1.16,20.48s-38.86,-3.27 -50.26,0s-17,0 -17,0s1.37,-12.25 -2,-18.58c-2.32,-4.34 -3.94,-23.6 -4,-36.25c0,-5.85 0.29,-10.28 1,-11.17c2.32,-2.86 12.25,-31.37 12.25,-31.37l2.26,0.12l6,0.32l34.39,1.81l5.39,0.28l0.57,1.75l16.26,49.48z"/>
  <path id="svg_215" fill="#4c4981" d="m236.73,389.5l0.32,3.38s-17,-5.54 -16.16,-12.35s0,-6 0,-6l13.68,1.16l2.16,13.81z"/>
  <path id="svg_216" opacity="0.1" d="m236.73,389.5l0.32,3.38s-17,-5.54 -16.16,-12.35s0,-6 0,-6l13.68,1.16l2.16,13.81z"/>
  <path id="svg_217" opacity="0.1" d="m127.27,292.53a15.17,15.17 0 0 0 6,3.12a3.9,3.9 0 0 1 -1.77,-0.83c-1.22,-0.87 -2.38,-1.81 -3.55,-2.73c-0.94,-0.74 -2.13,-2 -3.3,-2.27a18.21,18.21 0 0 0 2.62,2.71z"/>
  <path id="svg_218" opacity="0.1" d="m127.53,296.98a7.35,7.35 0 0 1 1.31,2.09a8.4,8.4 0 0 1 0.38,2.7a8.52,8.52 0 0 1 -0.47,3.83l-2.77,-6.57c-0.47,-1.12 -1,-2.24 -1.52,-3.32c-0.25,-0.46 -1.82,-2.36 -1.64,-2.76c0.52,-1.15 4.2,3.4 4.71,4.03z"/>
  <path id="svg_219" opacity="0.1" d="m203.67,333.42a8.84,8.84 0 0 0 5,-2.31c-2.81,0.35 -5.46,1.45 -8.23,2a12.23,12.23 0 0 1 -7.67,-0.7c3.15,1.58 7.48,1.63 10.9,1.01z"/>
  <path id="svg_220" opacity="0.1" d="m195.74,314.09a1.89,1.89 0 0 1 -1.43,-0.36q-3.16,-1.8 -6.24,-3.78a37.85,37.85 0 0 1 -6.1,-4.22c4.19,3.79 8.09,6.99 13.77,8.36z"/>
  <path id="svg_221" opacity="0.1" d="m201.6,336.49a13.42,13.42 0 0 0 3.29,-0.26a4.45,4.45 0 0 0 2.71,-1.78a1.53,1.53 0 0 0 -1.15,0.18a19.42,19.42 0 0 1 -10.6,1.27c1.71,0.73 3.92,0.58 5.75,0.59z"/>
  <path id="svg_222" opacity="0.1" d="m181.59,385.52a33.89,33.89 0 0 1 -6.75,1.33a41.43,41.43 0 0 1 -5.34,-0.1l-8.65,-0.55l-4.33,-0.28c-0.51,0 -2.6,0 -1.57,-1c0.52,-0.49 3.41,-0.18 4.15,-0.2c1.44,0 2.87,-0.07 4.3,-0.08c2.86,0 5.73,0 8.59,0.18q4.82,0.19 9.6,0.7z"/>
  <path id="svg_223" opacity="0.1" d="m171.58,389.8c-1.47,-0.06 -3.36,0.82 -4.87,1a32.07,32.07 0 0 1 -5.09,0.21a28.64,28.64 0 0 1 -9.83,-2c6.61,0.33 13.2,0.53 19.79,0.79z"/>
  <path id="svg_224" opacity="0.1" d="m153.08,394.33a15.51,15.51 0 0 1 1.89,0.51c3.64,1.05 7.52,0.13 11.19,-0.78c-0.92,1.38 -2.63,2 -4.25,2.36a20,20 0 0 1 -8.29,0.3c-0.87,-0.17 -3,-0.48 -3.48,-1.38c-0.66,-1.33 2.13,-1.14 2.94,-1.01z"/>
  <path id="svg_225" opacity="0.1" d="m173.53,401.14a30.66,30.66 0 0 1 3.23,0.84c4.1,1 8.36,-0.38 12.48,-1.32a57.73,57.73 0 0 1 15.11,-1.4c-0.91,0 -2.35,0.8 -3.24,1.07c-1.17,0.35 -2.35,0.67 -3.53,1a71,71 0 0 1 -7.06,1.38a72.31,72.31 0 0 1 -14.48,0.63c-2.21,-0.12 -6,0.11 -7.94,-1a8.78,8.78 0 0 1 5.43,-1.2z"/>
  <path id="svg_226" opacity="0.1" d="m175.06,270.89s0.21,9.73 -1.38,14.16c-0.49,1.38 -1.27,3.93 -2.11,6.79c-0.93,3.17 -1.94,6.72 -2.72,9.47s-1.29,4.65 -1.29,4.65s-3.57,29.06 -4.5,42.9c0,0.24 0,0.49 0,0.72c-0.05,0.78 -0.14,1.59 -0.26,2.43c-2.06,13.75 -13.92,34.95 -17.9,36.65a12,12 0 0 0 -3.35,2.3c0,-5.85 0.29,-10.28 1,-11.17c2.32,-2.86 12.25,-31.37 12.25,-31.37l2.26,0.12a12.58,12.58 0 0 1 -0.1,-1.27c-0.19,-5.5 2.38,-14 2.38,-14s1.48,-16.9 1.48,-17.64s-1.27,-12.57 -1.27,-12.57l2.53,-9.5l4.87,-3.41c0.6,-7.33 2.05,-16.24 5.49,-18.66a13.64,13.64 0 0 0 4,-5.09c0.69,0.09 -0.56,-0.51 -0.56,-0.51l-0.82,5z"/>
  <path id="svg_227" fill="#3f3d56" d="m176.92,265.44a6.32,6.32 0 0 0 -5.35,0.61c-2.43,1.68 -7.18,1.58 -8.45,1.26s-14.47,-2 -15.52,-1.58s-3.17,-1.48 -4.54,1.05s-2,3.91 -3.38,4.55s-3.81,2.64 -3.49,3.06s-3.48,3 -3.48,3l7.7,25s-5,31.68 -7.39,34.42s-24,38.34 -16.26,44.68a155.94,155.94 0 0 0 19.32,13c0.85,0.42 3.91,-5.28 8.14,-7.08s17.32,-25.61 18.18,-39.09s4.54,-43.62 4.54,-43.62s4.54,-16.48 6.13,-20.91s1.33,-14.17 1.33,-14.17l2.52,-4.18z"/>
  <path id="svg_228" opacity="0.1" d="m219.62,402.18l-1.79,3.8s-0.25,1.13 -0.57,2.93a1.66,1.66 0 0 1 -0.91,-0.39c-2.64,-2.12 -18.17,-18.06 -18.9,-32.22c-0.55,-10.44 -0.29,-19.43 -0.12,-23.44c0.06,-1.26 0.1,-2 0.11,-2.19a0.08,0.08 0 0 0 0,0s12,-14.58 10.66,-19.75s-4.54,-32.85 -4.54,-32.85l-0.47,-3.63l-0.8,-6.13l-1.89,-14.86l2,0.46a5.5,5.5 0 0 0 1.2,1.22l2.06,13.05l7.13,7.86l1.16,47.84l-3.27,8.56s-2.68,0.12 -6.84,0.24l-0.41,0l16.19,49.5z"/>
  <path id="svg_229" fill="#3f3d56" d="m226.28,323.18s-3,-1.16 -3.17,0s-0.74,3.69 -0.74,3.69s0.52,6.13 -1.69,8.56s-2.57,12.67 -2.57,12.67s-3.55,10.14 -1.87,13.31c0.61,1.15 1.56,6.92 2.51,13.82c0.6,4.31 1.2,9.06 1.74,13.39c1,7.89 1.67,14.4 1.67,14.4s-1.9,7 -4.54,4.86s-18.17,-18.08 -18.91,-32.21c-0.52,-9.95 -0.31,-18.58 -0.14,-22.84c0.08,-1.81 0.14,-2.83 0.14,-2.83s12,-14.57 10.67,-19.74s-4.54,-32.85 -4.54,-32.85l-0.56,-4.27l-0.59,-4.6l-0.13,-1l-1.91,-14.74l0,0c0.34,0.07 12.19,2.75 13.75,4.31s11.19,3.8 11.19,3.8a8.47,8.47 0 0 1 6,6.16c0.09,0.29 0.16,0.6 0.23,0.92c1.27,6.13 0.85,6.86 1.7,7.92s-8.24,27.27 -8.24,27.27z"/>
  <path id="svg_230" opacity="0.1" d="m220.49,388.62c-4.34,-0.84 -10.73,-2.85 -10.59,-7.25c0.14,-4.13 5.1,-5.61 8.85,-6.14c0.65,4.31 1.2,9.06 1.74,13.39z"/>
  <path id="svg_231" fill="#ae6e79" d="m233.88,386.44c-0.17,0.37 -0.89,0.69 -1.84,1a48.26,48.26 0 0 1 -7,1.14s-14.68,-1.16 -14.47,-7.81c0.15,-4.78 6.78,-6 10.51,-6.33c1.46,-0.13 2.48,-0.11 2.48,-0.11s10.96,10.74 10.32,12.11z"/>
  <path id="svg_232" opacity="0.1" d="m233.88,386.44c-0.17,0.37 -0.89,0.69 -1.84,1c-3.83,-5.12 -9.17,-11.69 -11.78,-12.27c0,0 0.3,-0.29 0.79,-0.73c1.46,-0.13 2.48,-0.11 2.48,-0.11s10.99,10.74 10.35,12.11z"/>
  <path id="svg_233" fill="#3f3d56" d="m230.18,295.3l4.33,0.63a74.44,74.44 0 0 0 5.18,7.92a8.61,8.61 0 0 1 1.9,5.07s6.34,9.4 8.34,10.46s5.07,8.24 5.07,8.24s5,3.27 5,7a61,61 0 0 0 0.95,9.18c0.1,0.53 -0.74,7.08 -2.86,10.35s-4.22,10.56 -4.11,11.83s-5.92,8 -7.61,10.14a42.67,42.67 0 0 0 -3.69,6.23l-5.6,10.56s-11.83,-17.42 -16.16,-18.37c0,0 4.86,-4.65 7.29,-5.49s4.75,-7.82 4.86,-9.4s2.21,-6.87 4.43,-7.82s3.38,-1.9 2.43,-3.38s0,-4.33 0,-4.33s-6.23,-8.24 -7.08,-13s-6.54,-7.92 -6.54,-7.92l-3.28,-8l7.15,-19.9z"/>
  <path id="svg_234" opacity="0.1" d="m245.89,334.72a13.69,13.69 0 0 1 8.53,-3.23c-2,0.35 -4.12,0.78 -5.58,2.18a12.74,12.74 0 0 0 -1.54,2c-0.51,0.72 -4.58,5.9 -5.23,5.09c-0.97,-1.24 3,-5.34 3.82,-6.04z"/>
  <path id="svg_235" opacity="0.1" d="m236.33,329.72a3.64,3.64 0 0 0 3,-2.13a12,12 0 0 0 0.94,-3.75a55.58,55.58 0 0 1 1.31,-6.41a4.08,4.08 0 0 0 0.21,-1.34a3.79,3.79 0 0 0 -0.39,-1.29a9.2,9.2 0 0 0 -0.92,-1.92c-0.79,0.89 -1,2.88 -1.33,4q-0.58,2.16 -1.11,4.32c-0.17,0.76 -1.64,8.52 -1.71,8.52z"/>
  <path id="svg_236" opacity="0.1" d="m232.59,287.09a9.42,9.42 0 0 1 -1.46,1.5c-1.69,1.37 -4,2.53 -4.24,4.69a5.17,5.17 0 0 1 -0.25,2.09c-0.55,0.94 -1.91,0.87 -3,0.68a5.28,5.28 0 0 1 -2.53,-0.93c-1.13,-1 -1.24,-2.7 -2.1,-3.91a5.34,5.34 0 0 0 -4.28,-1.92c-1.62,-0.05 -3.23,0.31 -4.84,0.39a13.41,13.41 0 0 1 -3.1,-0.21c-0.34,-0.06 -0.67,-0.13 -1,-0.21a13.12,13.12 0 0 1 -2.11,-0.72a10.64,10.64 0 0 1 -1,-0.48a13.59,13.59 0 0 1 -3,-2.07c-1.58,-1.46 -2.89,-3.45 -2.76,-5.61a34.46,34.46 0 0 1 0.9,-3.84c0.65,-3.73 -1.83,-7.26 -4.52,-9.93c-1.07,-1.05 -2.21,-2.09 -3.28,-3.17a15.82,15.82 0 0 1 -3.87,-5.5a16.76,16.76 0 0 1 -0.69,-6.88a46.79,46.79 0 0 0 0.21,-7.09c-0.8,-8.4 -8,-14.83 -15.14,-18.34l-0.31,-0.16a23,23 0 1 1 31,33.68c-0.08,0.26 -0.15,0.53 -0.21,0.79c-1.66,6.64 -0.56,10.66 0.68,12.88l0,0c0.34,0.07 12.19,2.75 13.75,4.31s11.19,3.8 11.19,3.8a8.47,8.47 0 0 1 5.96,6.16z"/>
  <path id="svg_237" fill="#444053" d="m168.63,219.35c0.47,-0.54 1.19,-0.82 1.67,-1.35c1.49,-1.62 0,-4.27 0.55,-6.41c0.59,-2.38 3.5,-3.42 5.94,-3.16s4.72,1.37 7.15,1.64c3.78,0.43 7.44,-1.21 11.13,-2.17s8.14,-1 10.69,1.81s2.36,7.64 5.52,9.69c1.46,0.94 3.3,1 4.88,1.75a10.12,10.12 0 0 1 4.13,3.95a20.69,20.69 0 0 1 3.11,13.23c-0.26,2.5 -1,4.94 -1.28,7.44a21.7,21.7 0 0 0 0.51,7.78c0.67,2.63 2.11,5.39 4.7,6.22a7.38,7.38 0 0 1 1.75,0.6c1.49,0.92 1.3,3.12 0.92,4.83l-1.6,7.05c1.48,1.13 3.77,0.64 5.21,1.83a4.23,4.23 0 0 1 1.21,1.9a10.39,10.39 0 0 1 -3.1,11.34c-1.69,1.38 -4,2.53 -4.24,4.7a5,5 0 0 1 -0.25,2.08c-0.55,0.94 -1.91,0.87 -3,0.68a5.18,5.18 0 0 1 -2.52,-0.93c-1.14,-1 -1.24,-2.7 -2.1,-3.91a5.34,5.34 0 0 0 -4.28,-1.92c-1.63,-0.05 -3.23,0.31 -4.85,0.39a14.27,14.27 0 0 1 -10.21,-3.69a7.4,7.4 0 0 1 -2.77,-5.6a37,37 0 0 1 0.9,-3.85c0.65,-3.72 -1.83,-7.26 -4.51,-9.92s-5.84,-5.13 -7.15,-8.68c-1.64,-4.4 0,-9.3 -0.49,-14c-0.8,-8.4 -8,-14.83 -15.13,-18.33c-1.63,-0.79 -4.35,-2.88 -2.49,-4.99z"/>
  <path id="svg_238" opacity="0.1" d="m225.1,291.87c-1.13,-1 -1.23,-2.69 -2.09,-3.91a5.38,5.38 0 0 0 -4.29,-1.91c-1.62,-0.05 -3.22,0.31 -4.84,0.39a14.32,14.32 0 0 1 -10.21,-3.64c-1.59,-1.46 -2.89,-3.46 -2.77,-5.61a36.83,36.83 0 0 1 0.9,-3.84c0.65,-3.73 -1.83,-7.26 -4.52,-9.93s-5.83,-5.13 -7.15,-8.68c-1.63,-4.39 0,-9.3 -0.48,-14c-0.8,-8.4 -8,-14.84 -15.14,-18.34c-1.67,-0.82 -4.39,-2.9 -2.53,-5c0.47,-0.54 1.18,-0.81 1.67,-1.34c1.49,-1.62 0,-4.28 0.55,-6.42a3.39,3.39 0 0 1 0.54,-1.17a4.57,4.57 0 0 0 -3.89,3.07c-0.53,2.14 0.94,4.8 -0.55,6.42c-0.48,0.53 -1.2,0.8 -1.67,1.34c-1.86,2.12 0.86,4.2 2.54,5c7.17,3.51 14.33,9.94 15.13,18.34c0.44,4.66 -1.15,9.57 0.49,14c1.31,3.55 4.46,6 7.15,8.68s5.16,6.2 4.51,9.93a37.44,37.44 0 0 0 -0.9,3.84c-0.12,2.15 1.18,4.15 2.77,5.61a14.27,14.27 0 0 0 10.21,3.69c1.62,-0.08 3.22,-0.44 4.85,-0.39a5.36,5.36 0 0 1 4.28,1.91c0.86,1.22 1,2.95 2.1,3.91a5.18,5.18 0 0 0 2.52,0.93c1.08,0.2 2.44,0.27 3,-0.68a2.36,2.36 0 0 0 0.24,-1.24a4.86,4.86 0 0 1 -2.42,-0.96z"/>
 </g>
</svg>