<svg width="1113.58" height="784.41" xmlns="http://www.w3.org/2000/svg" data-name="Layer 1">
 <defs>
  <linearGradient y2="0.5" x2="0.00019" y1="0.5" x1="0.99983" id="e697e668-bf6d-4d5c-9412-9fae30629717">
   <stop stop-opacity="0.25" stop-color="gray" offset="0"/>
   <stop stop-opacity="0.12" stop-color="gray" offset="0.54"/>
   <stop stop-opacity="0.1" stop-color="gray" offset="1"/>
  </linearGradient>
 </defs>
 <title>visual data</title>
 <g>
  <title>Layer 1</title>
  <ellipse id="svg_1" opacity="0.1" fill="#0b75ce" ry="16.99" rx="64" cy="767.42" cx="965"/>
  <path id="svg_2" opacity="0.1" fill="#0ccc88" d="m1070.55,694.89c-24.35,20.2 -59,28.56 -92.51,33.84l-5.64,0.86c-35,5.22 -70.39,8 -105.9,9.69c-19,0.92 -38,1.57 -57,2.15l-14.89,0.44q-29,0.86 -58.11,1.69q-28.5,0.81 -57,1.52q-36.5,0.89 -73,1.48q-28.5,0.45 -57,0.62q-36.51,0.21 -73,-0.14q-28.52,-0.29 -57,-1q-36.52,-0.94 -73,-2.75q-24.76,-1.21 -49.49,-2.91l-7.51,-0.53c-70.77,-5.1 -142.81,-14.25 -204.74,-43.17l-1.67,-0.79c-0.83,-0.39 -1.66,-0.78 -2.49,-1.19a224.11,224.11 0 0 1 -32.56,-19.09c-18.31,-13.06 -33.43,-29 -41.42,-47.91c-12.52,-29.66 -5.9,-63 8.4,-92s35.77,-55.18 54.34,-82.49c5.44,-8 10.6,-16.3 15.4,-24.81c30,-53.37 44.88,-115.13 13.43,-166.56a228.58,228.58 0 0 0 -13.43,-19c-7.67,-10 -15.47,-20 -20.74,-31.07c-12.29,-25.76 -9.65,-54.73 -5.17,-82.25c6,-36.59 17,-76 51.38,-98.86c35.67,-23.74 86.3,-22.54 130.57,-14c68.83,13.19 132.36,40.8 196.49,65.7s131.31,47.67 201.82,50.12a322.09,322.09 0 0 0 45.38,-1.65l0,0a287.81,287.81 0 0 0 59.12,-12.45c27.75,-9.14 53,-22.89 71.72,-42c40.15,-40.85 115.6,-43.94 170,-19.27c51.91,23.54 85.48,73.36 83,123.12c-2.82,55.39 -44.3,100.93 -82.31,147.64c-4.61,5.66 -9.16,11.34 -13.59,17.06q-3.71,4.79 -7.28,9.6l0,0c-4.17,5.66 -8.2,11.35 -12,17.11c-19.42,29.53 -33.15,65 -19.78,96.88c7.5,17.85 21.81,31.47 39.06,43.36c38.65,26.63 92,44.55 116,81.83c20.68,32.13 13.02,75.5 -17.88,101.18z"/>
  <g id="svg_3" opacity="0.1">
   <path id="svg_4" fill="#3f3d56" d="m555.5,549.35q0.06,1.41 0.21,2.76q11.67,-4.65 22.91,-10a18.57,18.57 0 0 0 10.59,-5.18c2.19,-1.1 4.37,-2.25 6.53,-3.4a26.82,26.82 0 0 0 -1.66,-3c-4.21,-6.65 -10.61,-10.81 -17.66,-10.58s-13.15,4.8 -16.92,11.69a34.46,34.46 0 0 0 -4,17.71z"/>
   <path id="svg_5" fill="#3f3d56" d="m554.35,514.38a34.57,34.57 0 0 0 5.15,17.32c4.22,6.63 10.62,10.79 17.67,10.56c0.49,0 1,-0.07 1.45,-0.11a18.57,18.57 0 0 0 10.59,-5.18a25.47,25.47 0 0 0 4.87,-6.38a35.82,35.82 0 0 0 -1.14,-35c-4.22,-6.65 -10.62,-10.81 -17.67,-10.58s-13.14,4.8 -16.91,11.69a34.47,34.47 0 0 0 -4.01,17.68z"/>
   <ellipse id="svg_6" transform="rotate(-1.88 -60.47 -37.23)" fill="#3f3d56" ry="28.63" rx="21.87" cy="499.25" cx="557.81"/>
   <ellipse id="svg_7" transform="rotate(-1.88 -59.32 -37.28)" fill="#3f3d56" ry="28.63" rx="21.87" cy="464.23" cx="557.81"/>
   <ellipse id="svg_8" transform="rotate(-1.88 -58.18 -37.34)" fill="#3f3d56" ry="28.63" rx="21.87" cy="429.2" cx="557.81"/>
   <path id="svg_9" fill="#0b75ce" d="m646.79,166.77a104.08,104.08 0 0 0 7.74,-12.25l-57.74,-7.54l62.12,-1.58a104.89,104.89 0 0 0 -0.72,-83l-81.91,45.95l75,-59a104.75,104.75 0 1 0 -169.11,122.86a105.16,105.16 0 0 0 -11.31,19.48l75.81,36.28l-80.36,-24.06a104.8,104.8 0 0 0 20.11,97.75a104.74,104.74 0 1 0 164.56,-5.45a104.77,104.77 0 0 0 -4.19,-129.44z"/>
   <path id="svg_10" opacity="0.1" d="m461.89,237.63a104.26,104.26 0 0 0 24.53,64a104.74,104.74 0 1 0 164.56,-5.42c13.45,-18.26 -189.47,-70.33 -189.09,-58.58z"/>
  </g>
  <g id="svg_11" opacity="0.1">
   <path id="svg_12" fill="#3f3d56" d="m326.18,733.56c0,0.66 -0.07,1.32 -0.15,2q-8.3,-3.3 -16.31,-7.07a13.21,13.21 0 0 1 -7.54,-3.67q-2.34,-1.19 -4.65,-2.42a18.9,18.9 0 0 1 1.18,-2.12c3,-4.74 7.54,-7.7 12.56,-7.54s9.36,3.4 12,8.3a24.5,24.5 0 0 1 2.91,12.52z"/>
   <path id="svg_13" fill="#3f3d56" d="m326.96,708.67a24.59,24.59 0 0 1 -3.64,12.33c-3,4.72 -7.55,7.69 -12.56,7.53l-1,-0.08a13.21,13.21 0 0 1 -7.54,-3.67a18,18 0 0 1 -3.47,-4.54a25.53,25.53 0 0 1 0.78,-24.89c3,-4.74 7.55,-7.7 12.56,-7.54s9.36,3.4 12.05,8.3a24.5,24.5 0 0 1 2.82,12.56z"/>
   <ellipse id="svg_14" transform="rotate(-88.19 -439.72 1015.15)" fill="#3f3d56" ry="15.56" rx="20.37" cy="1756.23002" cx="-84.32"/>
   <ellipse id="svg_15" transform="rotate(-88.19 -414.09 991.83)" fill="#3f3d56" ry="15.56" rx="20.37" cy="1708.02002" cx="-57.91"/>
   <ellipse id="svg_16" transform="rotate(-88.19 -388.45 968.51)" fill="#3f3d56" ry="15.56" rx="20.37" cy="1659.81001" cx="-31.48001"/>
   <path id="svg_17" fill="#0b75ce" d="m260.91,461.38a75.81,75.81 0 0 1 -5.53,-8.71l41.08,-5.46l-44.21,-1a74.64,74.64 0 0 1 0.44,-59.08l58.33,32.63l-53.42,-41.95a74.54,74.54 0 1 1 120.42,87.26a74.43,74.43 0 0 1 8.07,13.86l-53.92,25.88l57.17,-17.2a74.65,74.65 0 0 1 -14.22,69.6a74.54,74.54 0 1 1 -117.12,-3.7a74.54,74.54 0 0 1 2.91,-92.12l0,-0.01z"/>
   <path id="svg_18" opacity="0.1" d="m392.51,511.64a74.27,74.27 0 0 1 -17.39,45.57a74.54,74.54 0 1 1 -117.12,-3.7c-9.59,-13 134.79,-50.24 134.51,-41.87z"/>
  </g>
  <g id="svg_19" opacity="0.1">
   <path id="svg_20" fill="#3f3d56" d="m846.95,603.51c0,0.67 -0.07,1.32 -0.14,2q-8.31,-3.3 -16.31,-7.07a13.26,13.26 0 0 1 -7.55,-3.67c-1.55,-0.79 -3.11,-1.6 -4.65,-2.42a20.63,20.63 0 0 1 1.18,-2.12c3,-4.74 7.54,-7.7 12.56,-7.54s9.36,3.4 12,8.3a24.5,24.5 0 0 1 2.91,12.52z"/>
   <path id="svg_21" fill="#3f3d56" d="m847.79,578.62a24.59,24.59 0 0 1 -3.65,12.33c-3,4.72 -7.54,7.69 -12.56,7.53l-1,-0.08a13.26,13.26 0 0 1 -7.55,-3.67a18.32,18.32 0 0 1 -3.47,-4.54a25.53,25.53 0 0 1 0.78,-24.89c3,-4.73 7.55,-7.7 12.56,-7.54s9.37,3.4 12.05,8.3a24.5,24.5 0 0 1 2.84,12.56z"/>
   <ellipse id="svg_22" transform="rotate(-88.19 194.62 1409.71)" fill="#3f3d56" ry="15.56" rx="20.37" cy="2020.73996" cx="1070.79"/>
   <ellipse id="svg_23" transform="rotate(-88.19 220.26 1386.4)" fill="#3f3d56" ry="15.56" rx="20.37" cy="1972.54002" cx="1097.21999"/>
   <ellipse id="svg_24" transform="rotate(-88.19 245.89 1363.08)" fill="#3f3d56" ry="15.56" rx="20.37" cy="1924.33996" cx="1123.63"/>
   <path id="svg_25" fill="#0b75ce" d="m781.68,331.33a73.57,73.57 0 0 1 -5.52,-8.71l41.08,-5.41l-44.21,-1.07a74.7,74.7 0 0 1 0.43,-59.08l58.33,32.63l-53.42,-41.93a74.55,74.55 0 1 1 120.42,87.26a74.39,74.39 0 0 1 8.06,13.86l-53.92,25.88l57.17,-17.2a74.57,74.57 0 0 1 -14.22,69.59a74.53,74.53 0 1 1 -117.09,-3.7a74.54,74.54 0 0 1 2.91,-92.12l-0.02,0z"/>
   <path id="svg_26" opacity="0.1" d="m913.29,381.59a74.2,74.2 0 0 1 -17.4,45.56a74.53,74.53 0 1 1 -117.1,-3.7c-9.6,-12.99 134.76,-50.24 134.5,-41.86z"/>
  </g>
  <ellipse id="svg_27" fill="#0ccc88" ry="10.96" rx="57.01" cy="750.89" cx="193.5"/>
  <ellipse id="svg_28" fill="#3f3d56" ry="8.69" rx="6.64" cy="746.23" cx="192.55"/>
  <ellipse id="svg_29" fill="#3f3d56" ry="8.69" rx="6.64" cy="735.61" cx="192.55"/>
  <ellipse id="svg_30" fill="#3f3d56" ry="8.69" rx="6.64" cy="724.99" cx="192.55"/>
  <ellipse id="svg_31" fill="#3f3d56" ry="8.69" rx="6.64" cy="714.37" cx="192.55"/>
  <ellipse id="svg_32" fill="#3f3d56" ry="8.69" rx="6.64" cy="703.75" cx="192.55"/>
  <ellipse id="svg_33" fill="#3f3d56" ry="8.69" rx="6.64" cy="693.13" cx="192.55"/>
  <ellipse id="svg_34" fill="#3f3d56" ry="8.69" rx="6.64" cy="682.51" cx="192.55"/>
  <path id="svg_35" fill="#0ccc88" d="m217.4,609.83a32.32,32.32 0 0 0 2.47,-3.64l-17.44,-2.87l18.86,0.15a31.89,31.89 0 0 0 0.61,-25.2l-25.31,13.13l23.34,-17.19a31.8,31.8 0 1 0 -52.52,35.59a32,32 0 0 0 -3.62,5.8l22.64,11.76l-24.14,-8.1a31.82,31.82 0 0 0 5.12,29.86a31.8,31.8 0 1 0 50,0a31.82,31.82 0 0 0 0,-39.32l-0.01,0.03z"/>
  <path id="svg_36" opacity="0.1" d="m160.61,629.49a31.67,31.67 0 0 0 6.8,19.66a31.8,31.8 0 1 0 50,0c4.25,-5.41 -56.8,-23.23 -56.8,-19.66z"/>
  <path id="svg_37" fill="#3f3d56" d="m346.5,517.21l0,226q-24.76,-1.21 -49.49,-2.91l-7.51,-0.53l0,-222.56a8.82,8.82 0 0 1 8.82,-8.82l39.36,0a8.82,8.82 0 0 1 8.82,8.82z"/>
  <path id="svg_38" fill="#3f3d56" d="m419.5,746.02l0,-379.81a8.82,8.82 0 0 1 8.82,-8.82l39.36,0a8.82,8.82 0 0 1 8.82,8.82l0,380.8l-57,-0.99z"/>
  <path id="svg_39" fill="#3f3d56" d="m549.5,747.21l0,-302a8.82,8.82 0 0 1 8.82,-8.82l39.36,0a8.82,8.82 0 0 1 8.82,8.82l0,301.35l-57,0.65z"/>
  <path id="svg_40" fill="#3f3d56" d="m736.5,221.21l0,522.35q-28.5,0.81 -57,1.52l0,-523.87a8.82,8.82 0 0 1 8.82,-8.82l39.36,0a8.82,8.82 0 0 1 8.82,8.82z"/>
  <path id="svg_41" fill="#3f3d56" d="m866.5,326.21l0,413c-19,0.92 -38,1.57 -57,2.15l0,-415.15a8.82,8.82 0 0 1 8.82,-8.82l39.36,0a8.82,8.82 0 0 1 8.82,8.82z"/>
  <polyline id="svg_42" stroke-width="7" stroke-miterlimit="10" stroke-linecap="round" stroke="#3f3d56" fill="none" points="318.5 385.41 448.5 240.41 578.5 313.41 708.5 89.41 838.5 196.41"/>
  <circle id="svg_43" fill="#0ccc88" r="28" cy="385.41" cx="318"/>
  <circle id="svg_44" fill="#0ccc88" r="28" cy="240.41" cx="448"/>
  <circle id="svg_45" fill="#0ccc88" r="28" cy="313.41" cx="578"/>
  <circle id="svg_46" fill="#0ccc88" r="28" cy="89.41" cx="708"/>
  <circle id="svg_47" fill="#0ccc88" r="28" cy="327.41" cx="958"/>
  <ellipse id="svg_48" opacity="0.1" fill="#0b75ce" ry="3.16" rx="18.68" cy="722.61" cx="233.68"/>
  <path id="svg_49" fill="#a8a8a8" d="m221.14,707.94s10.65,-0.33 13.86,-2.62s16.39,-5 17.19,-1.35s16,18.24 4,18.34s-27.95,-1.88 -31.15,-3.83s-3.9,-10.54 -3.9,-10.54z"/>
  <path id="svg_50" opacity="0.2" d="m256.38,721.03c-12,0.1 -27.94,-1.87 -31.15,-3.82c-2.44,-1.49 -3.41,-6.82 -3.74,-9.28l-0.35,0s0.67,8.59 3.88,10.54s19.12,3.93 31.15,3.83c3.47,0 4.67,-1.26 4.6,-3.09c-0.48,1.11 -1.8,1.8 -4.39,1.82z"/>
  <ellipse id="svg_51" opacity="0.1" fill="#0b75ce" ry="5.8" rx="34.31" cy="749.41" cx="1063.8"/>
  <path id="svg_52" fill="#a8a8a8" d="m1040.79,722.46s19.57,-0.6 25.47,-4.8s30.1,-9.21 31.56,-2.48s29.42,33.5 7.32,33.68s-51.34,-3.44 -57.23,-7s-7.12,-19.4 -7.12,-19.4z"/>
  <path id="svg_53" opacity="0.2" d="m1105.51,746.52c-22.1,0.18 -51.34,-3.44 -57.23,-7c-4.48,-2.73 -6.27,-12.53 -6.87,-17l-0.65,0s1.24,15.79 7.12,19.37s35.14,7.21 57.23,7c6.38,0 8.58,-2.32 8.46,-5.68c-0.89,2 -3.32,3.27 -8.06,3.31z"/>
  <path id="svg_54" fill="url(#e697e668-bf6d-4d5c-9412-9fae30629717)" d="m849.6,344.58a9,9 0 0 0 2,4.77c1.45,1.64 3.62,2.39 5.57,3.37a22,22 0 0 1 10.76,12.37c3.33,9.72 3.76,20 8,29.38s9.22,18.39 12.88,28c2.08,5.45 3.74,11.12 6.79,16.08a24.94,24.94 0 0 0 5.57,6.41c-0.23,3.52 -0.32,7 -0.3,10.52a4,4 0 0 1 3.42,1.8a10.41,10.41 0 0 1 1.5,3.75c1.37,5.67 -0.32,11.71 0.91,17.41a88.56,88.56 0 0 1 -3,47.64c-1.37,3.88 -3.09,16.72 -1.63,20.57c5.44,-0.55 10.26,2.79 15.35,5a21.12,21.12 0 0 1 -0.72,9c-1.83,5.27 -1.82,11 -1.79,16.57l0.25,41.26c0,5.23 0.07,10.53 1.38,15.6c1.49,5.71 4.62,11.53 4.52,17.43c-0.27,12.7 5.73,24.8 5.25,37.4c-0.09,2.42 -0.42,4.82 -0.65,7.22a82.14,82.14 0 0 0 0.48,19.19c1.82,12.66 6.63,25.11 5.43,37.84c-0.08,0.86 -0.37,2 -1.18,2.33c1,1.13 2.06,2.25 3.14,3.32a2.85,2.85 0 0 1 -0.87,0.91a8.84,8.84 0 0 1 -3.82,1a8.09,8.09 0 0 0 -4.37,1.42a6.29,6.29 0 0 0 -1.82,3.34a9,9 0 0 0 1.2,7.48a8.35,8.35 0 0 0 3.39,2.54c4.62,2 9.92,0.55 14.74,-0.91l18.88,-5.72a6.36,6.36 0 0 0 3.07,-1.6a3.36,3.36 0 0 0 0.75,-1.62c4.17,1 8.75,-0.23 13,-1.5l18.88,-5.73a6.27,6.27 0 0 0 3.07,-1.6a3.66,3.66 0 0 0 0.77,-3c0.14,-0.06 0.28,-0.1 0.42,-0.17c1.44,-0.65 3,-1.92 2.65,-3.45c-0.25,-1 -1.25,-1.58 -1.68,-2.5a3.61,3.61 0 0 1 0.7,-3.53c0.74,-1 1.74,-1.83 2.42,-2.88c2.18,-3.34 0.7,-7.73 -0.12,-11.64c-1.77,-8.35 -0.13,-17.07 -1.25,-25.53c-0.38,-2.85 -1.07,-5.65 -1.62,-8.48a173.29,173.29 0 0 1 -2.31,-20.22c-0.72,-9.68 -3.41,-19.22 -1.87,-28.82a111.93,111.93 0 0 0 0.95,-17a74,74 0 0 0 -0.47,-10.84c-0.39,-2.68 -1.08,-5.31 -1.38,-8a72.52,72.52 0 0 1 -0.16,-9.09a89.92,89.92 0 0 0 -1.86,-20.12c-2,-9.09 -5.76,-17.79 -7.36,-26.9c0.54,0.12 1.08,0.24 1.6,0.38c0.06,-7 -6.07,-22.22 -8.34,-28.86a8.39,8.39 0 0 1 -0.6,-2.55a27.51,27.51 0 0 1 0.63,-3.43c0.29,-2.42 -1,-4.72 -1.35,-7.14a16.75,16.75 0 0 1 0.37,-5.08c1.61,-8.95 3.61,-17.83 5.61,-26.7a28.44,28.44 0 0 0 0.89,-9.87a12.39,12.39 0 0 1 3,-9.83a11.66,11.66 0 0 0 2.22,-2.79a7.08,7.08 0 0 0 0.44,-2.79a44.83,44.83 0 0 0 -1.8,-12.15c1.76,-3.19 2.41,-7.11 2.92,-10.81c1.12,-8.17 2.24,-16.38 2.2,-24.63a41.75,41.75 0 0 0 -1.8,-13a51.59,51.59 0 0 0 -3.42,-7.54c-5.26,-10.13 -10.29,-20.79 -16.93,-30.07c-2,-2.82 -0.74,-6.71 -0.6,-10.19c0.15,-4.2 -1.51,-8.23 -3.14,-12.09a19.84,19.84 0 0 0 -3.76,-6.47a6.11,6.11 0 0 0 -4.4,-2a6.63,6.63 0 0 0 -4.69,2.87a15.47,15.47 0 0 0 -2.81,11.57a22.37,22.37 0 0 0 5.09,10.93a24.77,24.77 0 0 0 4.39,4.17q2.48,7.88 5,15.75c2.64,8.35 5.28,16.74 9,24.64c1.09,2.29 2.29,4.62 2.42,7.15c0.14,2.73 -1,5.33 -1.91,7.9a55.75,55.75 0 0 0 -3.22,16.66a5.73,5.73 0 0 0 -0.84,0.46c-3.15,2.06 -4.14,6.55 -7.42,8.39c-1.91,1.07 -4.23,1 -6.37,1.49c-0.19,0 -0.38,0.1 -0.58,0.16c-0.08,-0.4 -0.16,-0.79 -0.21,-1.2a3.23,3.23 0 0 1 0,-0.77a33.59,33.59 0 0 0 12.43,-11.84a10.83,10.83 0 0 0 1.47,-3a11.6,11.6 0 0 0 0.15,-3.9a62.24,62.24 0 0 0 -1.85,-12.85a21.37,21.37 0 0 0 -6.69,-10.89c-1.64,-1.32 -3.53,-2.31 -5.16,-3.64c-3.18,-2.57 -5.36,-6.37 -9,-8.28a10.83,10.83 0 0 0 -13.61,3.52a7.89,7.89 0 0 1 -2,2.54a20.55,20.55 0 0 0 -1.86,1c-1.1,0.88 -1.16,2.57 -0.8,3.94a41,41 0 0 1 1.14,8.59a21,21 0 0 0 -0.06,27.17c0,1.86 0,3.72 -0.07,5.58c0,0.35 0,0.71 -0.07,1.06a7.21,7.21 0 0 1 -3,-2c-1.12,-1.4 -1.32,-3.46 -2.69,-4.61a7.59,7.59 0 0 0 -3.28,-1.2a20.37,20.37 0 0 1 -8,-3.79c-1.85,-1.43 -3.77,-3.26 -5.93,-3.68a131.57,131.57 0 0 0 -13,-19.84a38.65,38.65 0 0 1 -3.4,-4.67c-2.15,-3.75 -2.79,-8.16 -4.15,-12.27c-3.8,-11.52 -13.28,-20.76 -15.59,-32.68c-0.84,-4.32 -3.58,-8.08 -5.46,-12.06c-1.27,-2.69 -2.67,-5.53 -5.21,-7.07c-3.27,-2 -7.79,-1.08 -10.51,1.61a12.63,12.63 0 0 0 -3.25,10.63zm118.73,404.69a8.84,8.84 0 0 1 -3.82,1a18.43,18.43 0 0 0 -2,0.32c-0.25,-2.1 -0.39,-4.23 -0.55,-6.3c-0.53,-6.79 -1.59,-13.53 -2.64,-20.26c-1.1,-7 -1.62,-14.66 -4,-21.38c-3.83,-10.94 -7.71,-22.21 -7.22,-33.8c0.11,-2.63 0.44,-5.24 0.58,-7.86c0.32,-6.49 -0.59,-13.12 1,-19.43c0.71,-2.87 1.92,-5.61 2.38,-8.53a40.49,40.49 0 0 0 0.1,-7.94a105.53,105.53 0 0 1 2.27,-27.35c1.86,2.43 2.47,5.57 3,8.58l3.75,20.34c2.23,12.07 4.2,24.87 10.11,35.61c-0.83,3.87 -1.65,8 -0.28,11.7c0.59,1.6 1.56,3 2.16,4.62c1,2.69 0.86,5.65 1.16,8.5c0.65,6 3.13,11.9 1.31,17.69a86.29,86.29 0 0 0 -3.63,18.36a44.71,44.71 0 0 1 -0.6,5.17c-0.32,1.54 -0.84,3 -1.13,4.58a15.17,15.17 0 0 0 0.29,6.67a13.62,13.62 0 0 1 0.82,3.75c0,1.28 -1.57,2.2 -2.83,2.4c0.37,0.48 0.77,0.94 1.18,1.39a4.38,4.38 0 0 1 -1.41,2.17z"/>
  <path id="svg_55" fill="#3f3d56" d="m928.84,760.81a8.09,8.09 0 0 0 -4.37,1.42a6.16,6.16 0 0 0 -1.82,3.32a8.88,8.88 0 0 0 1.2,7.42a8.33,8.33 0 0 0 3.39,2.53c4.62,2 9.92,0.54 14.74,-0.91l18.88,-5.68a6.34,6.34 0 0 0 3.07,-1.59a4.17,4.17 0 0 0 0.08,-4.86a9.44,9.44 0 0 0 -4,-3.19c-5.87,-2.86 -12.49,-3.51 -18.94,-3.63c-2.4,0 -4.77,-0.58 -6.4,1.27c-0.86,1 -0.7,2.07 -2,2.92a9,9 0 0 1 -3.83,0.98z"/>
  <path id="svg_56" fill="#3f3d56" d="m964.51,750.43a8.17,8.17 0 0 0 -4.37,1.42a6.2,6.2 0 0 0 -1.82,3.32a8.91,8.91 0 0 0 1.2,7.43a8.4,8.4 0 0 0 3.39,2.52c4.63,2 9.92,0.55 14.74,-0.9l18.88,-5.69a6.34,6.34 0 0 0 3.07,-1.59a4.16,4.16 0 0 0 0.08,-4.85a9.47,9.47 0 0 0 -4,-3.19c-5.88,-2.86 -12.5,-3.52 -18.95,-3.64c-2.4,0 -4.76,-0.57 -6.4,1.28c-0.86,1 -0.7,2.06 -2,2.91a8.7,8.7 0 0 1 -3.82,0.98z"/>
  <path id="svg_57" fill="#696791" d="m948.1,545.53a232.59,232.59 0 0 1 33.49,-0.94a6.66,6.66 0 0 1 2.17,0.34c2.46,1 2.84,4.22 3.07,6.85c1,10.68 5.66,20.63 8,31.09a88.83,88.83 0 0 1 1.86,20a71.72,71.72 0 0 0 0.16,9c0.3,2.67 1,5.29 1.38,7.95a73,73 0 0 1 0.47,10.77a110.49,110.49 0 0 1 -0.95,16.87c-1.54,9.53 1.15,19 1.87,28.64a170.93,170.93 0 0 0 2.27,20.11c0.55,2.81 1.24,5.59 1.62,8.42c1.12,8.41 -0.52,17.07 1.25,25.37c0.82,3.88 2.3,8.24 0.12,11.56c-0.68,1 -1.68,1.85 -2.42,2.86a3.57,3.57 0 0 0 -0.7,3.51c0.43,0.91 1.43,1.51 1.68,2.48c0.39,1.53 -1.21,2.78 -2.65,3.43c-10.85,4.9 -24.84,1.45 -32.16,-7.94c1.26,-0.2 2.8,-1.11 2.83,-2.39a13.5,13.5 0 0 0 -0.82,-3.72a15,15 0 0 1 -0.29,-6.62c0.29,-1.54 0.81,-3 1.13,-4.55a44.2,44.2 0 0 0 0.6,-5.14a85.21,85.21 0 0 1 3.63,-18.24c1.82,-5.75 -0.66,-11.57 -1.31,-17.57c-0.3,-2.84 -0.17,-5.77 -1.16,-8.45c-0.6,-1.58 -1.57,-3 -2.16,-4.58c-1.37,-3.69 -0.55,-7.79 0.28,-11.63c-5.91,-10.67 -7.88,-23.39 -10.11,-35.38l-3.75,-20.2c-0.56,-3 -1.17,-6.11 -3,-8.53a104.16,104.16 0 0 0 -2.27,27.17a40,40 0 0 1 -0.1,7.89c-0.46,2.9 -1.67,5.63 -2.38,8.47c-1.55,6.27 -0.64,12.85 -1,19.3c-0.14,2.61 -0.47,5.2 -0.58,7.81c-0.49,11.52 3.39,22.72 7.22,33.59c2.35,6.67 2.87,14.25 4,21.23c1,6.69 2.11,13.38 2.64,20.13c0.49,6.2 0.71,12.91 4.57,17.78c-3.53,2.29 -7.17,4.62 -11.3,5.41a20.86,20.86 0 0 1 -13.92,-2.7a43.79,43.79 0 0 1 -11,-9.35c0.81,-0.28 1.1,-1.46 1.18,-2.31c1.2,-12.66 -3.61,-25 -5.43,-37.6a81,81 0 0 1 -0.48,-19.06c0.23,-2.39 0.56,-4.78 0.65,-7.18c0.48,-12.51 -5.55,-24.56 -5.33,-37.08c0.1,-5.87 -3,-11.65 -4.52,-17.32c-1.31,-5 -1.35,-10.3 -1.38,-15.5l-0.25,-41c0,-5.54 0,-11.22 1.79,-16.45c2.2,-6.3 -0.32,-13.53 -0.7,-20.19a83.22,83.22 0 0 0 32.19,3.59z"/>
  <path id="svg_58" fill="#a0616a" d="m912.45,427.73a130.66,130.66 0 0 0 -15.31,-24.17a38.33,38.33 0 0 1 -3.4,-4.64c-2.15,-3.73 -2.79,-8.11 -4.15,-12.19c-3.8,-11.44 -13.28,-20.63 -15.59,-32.46c-0.84,-4.3 -3.58,-8 -5.46,-12c-1.27,-2.67 -2.67,-5.49 -5.21,-7c-3.27,-2 -7.79,-1.08 -10.51,1.6a12.49,12.49 0 0 0 -3.22,10.55a8.93,8.93 0 0 0 2,4.74c1.45,1.63 3.62,2.37 5.57,3.35a21.88,21.88 0 0 1 10.76,12.29c3.33,9.65 3.76,19.87 8,29.19s9.22,18.26 12.88,27.79c2.08,5.41 3.74,11 6.79,16s7.81,9.19 13.56,9.94a33.45,33.45 0 0 1 1.63,-10.68c1.25,-3.94 3.47,-8.58 1.66,-12.31z"/>
  <path id="svg_59" fill="#a0616a" d="m974.36,435.21a55.26,55.26 0 0 1 3.25,-20.78c0.92,-2.55 2,-5.14 1.91,-7.85c-0.13,-2.52 -1.33,-4.83 -2.42,-7.11c-3.76,-7.85 -6.4,-16.17 -9,-24.47l-5,-15.65a24.31,24.31 0 0 1 -4.39,-4.15a22.1,22.1 0 0 1 -5.09,-10.86a15.25,15.25 0 0 1 2.81,-11.48a6.65,6.65 0 0 1 4.69,-2.86a6.14,6.14 0 0 1 4.4,2a19.71,19.71 0 0 1 3.76,6.42c1.63,3.84 3.29,7.84 3.14,12c-0.14,3.46 -1.43,7.32 0.6,10.13c6.64,9.22 11.67,19.81 16.93,29.88a50.56,50.56 0 0 1 3.42,7.49a41.19,41.19 0 0 1 1.8,12.94c0,8.19 -1.08,16.35 -2.2,24.47c-0.71,5.09 -1.64,10.63 -5.49,14c-4,-5.12 -8.02,-10.12 -13.12,-14.12z"/>
  <circle id="svg_60" fill="#a0616a" r="20.75" cy="418.36" cx="948.92"/>
  <path id="svg_61" fill="#a0616a" d="m958.97,440.21c0.5,3.75 2.51,7.11 4.47,10.35c1.18,2 2.69,4.13 5,4.35a100.79,100.79 0 0 1 -18.85,7.58a21.32,21.32 0 0 1 -6.88,1.11a16.83,16.83 0 0 1 -5.73,-1.47a28.49,28.49 0 0 1 -16.19,-18.92a37.6,37.6 0 0 0 7.71,-0.59a5.67,5.67 0 0 0 3.78,-1.86a6,6 0 0 0 0.78,-3.34c0.1,-3.46 0.11,-6.93 0,-10.39a41,41 0 0 1 15.08,1.86c2,0.65 4,1.43 6,1.94c1.26,0.32 4.73,0 5.66,0.73c1.53,1.03 -1.18,6.1 -0.83,8.65z"/>
  <path id="svg_62" fill="#f86d70" d="m949.85,452.82a13.06,13.06 0 0 1 9.94,-11.61c2.14,-0.48 4.46,-0.42 6.37,-1.48c3.28,-1.83 4.27,-6.29 7.42,-8.34s7.62,-0.91 10.36,1.68s4.13,6.28 5.25,9.89a50.06,50.06 0 0 1 2.69,15.15a7,7 0 0 1 -0.44,2.77a11.56,11.56 0 0 1 -2.22,2.77a12.26,12.26 0 0 0 -3,9.77a28,28 0 0 1 -0.89,9.8c-2,8.82 -4,17.63 -5.61,26.53a16.47,16.47 0 0 0 -0.37,5c0.31,2.41 1.64,4.69 1.35,7.1a26.87,26.87 0 0 0 -0.63,3.41a8.27,8.27 0 0 0 0.6,2.53c2.27,6.59 8.4,21.69 8.34,28.67c-10.65,-2.73 -26.35,-3.34 -37.35,-3.39a83.11,83.11 0 0 0 -9.06,0.4c-7.23,0.78 -14.63,2.89 -21.64,0.94c-6.51,-1.81 -12.27,-7 -19,-6.35c-1.46,-3.82 0.26,-16.57 1.63,-20.43a87.44,87.44 0 0 0 3,-47.33c-1.23,-5.66 0.46,-11.67 -0.91,-17.29a10.31,10.31 0 0 0 -1.5,-3.73a4,4 0 0 0 -3.42,-1.79a127.39,127.39 0 0 1 2.5,-26.93c0.66,-3.15 2,-6.87 5.23,-7.41c2.86,-0.49 5.26,1.93 7.56,3.7a20.31,20.31 0 0 0 8,3.76a7.59,7.59 0 0 1 3.28,1.2c1.37,1.14 1.57,3.19 2.69,4.58c2,2.49 6.47,2.28 7.89,5.15a19.61,19.61 0 0 1 0.75,2.62a9.62,9.62 0 0 0 3.3,4.26a18.56,18.56 0 0 0 7.89,4.4z"/>
  <path id="svg_63" fill="#2d293d" d="m932.06,396.3c-0.36,-1.37 -0.3,-3 0.8,-3.92c0.55,-0.43 1.27,-0.59 1.86,-1a8,8 0 0 0 2,-2.53a10.86,10.86 0 0 1 13.59,-3.45c3.61,1.89 5.79,5.67 9,8.22c1.63,1.32 3.52,2.3 5.16,3.62a21.21,21.21 0 0 1 6.69,10.82a61.39,61.39 0 0 1 1.85,12.76a11.48,11.48 0 0 1 -0.15,3.88a10.86,10.86 0 0 1 -1.47,3c-3.3,5 -7.65,9.54 -13.1,12.12s-12.08,3 -17.46,0.3a3,3 0 0 1 -1.34,-1.07a3.85,3.85 0 0 1 -0.21,-2.31a15.81,15.81 0 0 0 -1.74,-8.85c-1,-2 -2.5,-3.72 -3.3,-5.79a20.17,20.17 0 0 1 -0.94,-7.18c-0.09,-6.29 0.34,-12.56 -1.24,-18.62z"/>
 </g>
</svg>